<?xml version="1.0" standalone="no"?>
<!DOCTYPE svg PUBLIC "-//W3C//DTD SVG 1.1//EN" "http://www.w3.org/Graphics/SVG/1.1/DTD/svg11.dtd" >
<svg>
<metadata>
Created by FontForge 20090914 at Wed Jan 22 11:34:09 2020
 By www-data
Copyright 2011 Google Inc. All Rights Reserved.
</metadata>
<defs>
<font id="RobotoCondensed-BoldItalic" horiz-adv-x="961" >
  <font-face 
    font-family="Roboto Condensed"
    font-weight="700"
    font-style="italic"
    font-stretch="normal"
    units-per-em="2048"
    panose-1="2 0 0 0 0 0 0 0 0 0"
    ascent="1536"
    descent="-512"
    x-height="1082"
    cap-height="1456"
    bbox="-1457.99 -554.998 2167 2163"
    underline-thickness="100"
    underline-position="-100"
    slope="-12"
    unicode-range="U+0002-U+FFFD"
  />
<missing-glyph horiz-adv-x="813" 
d="M699 0h-595v1456h595v-1456zM653 86v1284l-229 -642zM149 1361v-1267l226 634zM183 54h432l-216 605zM399 796l216 606h-432z" />
    <glyph glyph-name="uniFB01" unicode="fi" horiz-adv-x="1094" 
d="M50 0l150.999 868.996h-127l37 213h119l8 44c25.333 142.667 79.333 250.834 162 324.501s187.334 109.834 314.001 108.501c49.333 -1.33301 97.333 -8.16602 144 -20.499s93 -26.166 139 -41.499l-68 -240c-74 33.333 -146.333 50 -217 50
c-110 0 -177 -64.333 -201 -193l-6 -32h173l-38 -213h-161l-151 -869h-278zM866.999 -0.00390625h-277l188 1082h277z" />
    <glyph glyph-name="uniFB02" unicode="fl" horiz-adv-x="1102" 
d="M827 1315c-52 6 -86.667 9.00098 -104 9.00098c-52.667 -0.666992 -95 -15.334 -127 -44.001s-52.667 -68.667 -62 -120l-12 -78h165l-37 -213h-164l-151 -869h-277l151 869h-127l37 213h127l12 92c18.667 122 67 217.167 145 285.5s177.333 101.833 298 100.5
c73.333 -0.666992 147.333 -4.66699 222 -12l210 -21l-258 -1527h-277z" />
    <glyph glyph-name="uniFB03" unicode="ffi" horiz-adv-x="1642" 
d="M58 0l150.999 868.999h-127l37 213h127l11 85c16 125.333 59.167 222.666 129.5 291.999s158.833 103.333 265.5 102c35.333 -1.33301 79 -8.33301 131 -21l-23 -228c-31.333 7.33301 -53.666 11 -66.999 11c-43.333 0 -78 -13.5 -104 -40.5s-43.333 -62.833 -52 -107.5
l-14 -93h254l11 60c26.667 135.333 80.5 239 161.5 311s184.5 107.333 310.5 106c50 -1.33301 98.333 -8.16602 145 -20.499s93 -26.166 139 -41.499l-68 -240c-75.333 33.333 -148.333 50 -219 50c-108.667 0 -175 -64 -199 -192l-6 -33h173l-38 -213h-161l-151 -869h-277
l151 869h-263l-151 -869h-277zM1414 -0.000976562h-277l188 1082h277z" />
    <glyph glyph-name="uniFB04" unicode="ffl" horiz-adv-x="1642" 
d="M58 0l150.999 869h-127l37 213l127 1l12 91c16 122 58.333 217.167 127 285.5s157.334 101.833 266.001 100.5c34.667 0 78.667 -6.66699 132 -20l-23 -228c-24.667 7.33301 -47 11 -67 11c-43.333 0 -78 -13.5 -104 -40.5s-43.333 -62.833 -52 -107.5l-15 -93l263 1
l12 91c18.667 122 66.667 217 144 285s177 101.333 299 100c73.333 -0.666992 147.333 -4.66699 222 -12l210 -21l-258 -1526h-277l232 1315c-52 6 -87.333 8.66699 -106 8c-109.333 0 -173 -59 -191 -177l-10 -64h164l-37 -213h-163l-151 -869h-277l151 869h-263l-151 -869
h-277z" />
    <glyph glyph-name=".notdef" horiz-adv-x="813" 
d="M699 0h-595v1456h595v-1456zM653 86v1284l-229 -642zM149 1361v-1267l226 634zM183 54h432l-216 605zM399 796l216 606h-432z" />
    <glyph glyph-name="uni0000" horiz-adv-x="0" 
 />
    <glyph glyph-name="uni0000" horiz-adv-x="0" 
 />
    <glyph glyph-name="uni0002" horiz-adv-x="0" 
 />
    <glyph glyph-name="uni000D" unicode="&#xd;" horiz-adv-x="468" 
 />
    <glyph glyph-name="space" unicode=" " horiz-adv-x="468" 
 />
    <glyph glyph-name="exclam" unicode="!" horiz-adv-x="527" 
d="M355 448h-229l143 1008h293zM35 132c0 46 14.499 84.002 43.499 114.002s64.833 45.667 107.5 47c42.667 0 78.334 -14.333 107.001 -43s43 -64.334 43 -107.001c0 -46 -14 -84 -42 -114s-64 -45.667 -108 -47c-44.667 0 -81 14.667 -109 44s-42 64.666 -42 105.999z" />
    <glyph glyph-name="quotedbl" unicode="&#x22;" horiz-adv-x="646" 
d="M381 1385l-100 -400h-162l87 551h199zM698 1385l-100 -400h-162l87 551h199z" />
    <glyph glyph-name="numbersign" unicode="#" horiz-adv-x="1058" 
d="M513 410h-124l-129 -410h-176l130 410h-176l30 173h200l90 283h-180l31 174h203l132 416h175l-133 -416h125l132 416h175l-132 -416h172l-30 -174h-196l-90 -283h175l-30 -173h-199l-129 -410h-176zM442 583h125l90 283h-124z" />
    <glyph glyph-name="dollar" unicode="$" horiz-adv-x="1015" 
d="M614 392c10.667 94 -22.334 164.833 -99.001 212.5s-132.834 87.667 -168.501 120s-63.5 65.666 -83.5 99.999s-34 70.5 -42 108.5s-10.333 81 -7 129c8 110.667 46 202.834 114 276.501s157.333 118.5 268 134.5l39 214h149l-41 -220
c84.667 -24 147.834 -75.167 189.501 -153.5s59.834 -181.166 54.501 -308.499h-277l2 40c5.33301 129.333 -25 195.333 -91 198c-66 2 -109.333 -46.333 -130 -145l-6 -36c-10 -86.667 23.167 -155.334 99.5 -206.001s128.166 -88 155.499 -112
c54 -47.333 92.833 -99 116.5 -155s32.834 -121.333 27.501 -196c-8 -112.667 -45.333 -205 -112 -277s-156.667 -116 -270 -132l-38 -199h-147l38 201c-97.333 20 -170.833 70.667 -220.5 152s-71.167 188 -64.5 320h277l-1 -74c0 -52.667 9.66699 -94.167 29 -124.5
s48 -45.5 86 -45.5c41.333 0 75.5 16 102.5 48s43.833 75.333 50.5 130z" />
    <glyph glyph-name="percent" unicode="%" horiz-adv-x="1279" 
d="M489 1478c79.333 -2.66699 140.167 -32.335 182.5 -89.002s60.5 -127.667 54.5 -213l-6 -77c-9.33301 -92 -41 -165.5 -95 -220.5s-120.333 -81.167 -199 -78.5c-77.333 1.33301 -137.833 30.333 -181.5 87s-62.5 127.334 -56.5 212.001l6 67
c8.66699 94 39.5 169.833 92.5 227.5s120.5 85.834 202.5 84.501zM368.001 1097v-39.999c2.66699 -58 24.334 -88 65.001 -90c25.333 -1.33301 47.5 9.66699 66.5 33s31.5 56.333 37.5 99l8 78l1 41c0 59.333 -21.333 90 -64 92
c-26.667 1.33301 -49.334 -10.334 -68.001 -35.001s-31 -57.667 -37 -99zM904.001 658c79.333 -2.66699 140.333 -32.334 183 -89.001s61 -127.334 55 -212.001l-6 -67c-8.66699 -96 -39.667 -172.5 -93 -229.5s-120.333 -84.167 -201 -81.5
c-76 1.33301 -136.333 29.833 -181 85.5s-64 127.167 -58 214.5l6 66c8.66699 98.667 40 175.834 94 231.501s121 82.834 201 81.501zM784.001 277l0.00195312 -38.999c1.33301 -25.333 7.66602 -46.833 18.999 -64.5s26.666 -26.834 45.999 -27.501
c56.667 -4 91.334 40.333 104.001 133l9 79l1 41c-2.66699 58.667 -24.334 89 -65.001 91c-26 1.33301 -48.5 -10 -67.5 -34s-31.5 -57 -37.5 -99zM339.003 112.001l-128 82l769 1126l129 -82z" />
    <glyph glyph-name="ampersand" unicode="&#x26;" horiz-adv-x="1160" 
d="M43 385c5.33301 70 29.002 135.667 71.002 197s109.333 124 202 188c-26 66 -44.333 123.167 -55 171.5s-14.334 95.833 -11.001 142.5c8.66699 116.667 48.167 212 118.5 286s157.166 109.667 260.499 107c87.333 -2.66699 158 -36 212 -100s78.333 -141.667 73 -233
c-7.33301 -129.333 -74.666 -240.666 -201.999 -333.999l-90 -66l134 -252c37.333 75.333 61 149.666 71 222.999l230 1c-16 -186 -72.667 -338.333 -170 -457l135 -259h-296l-37 74c-98.667 -64.667 -198.334 -95.667 -299.001 -93c-111.333 2.66699 -199 41.667 -263 117
s-92 171 -84 287zM421.002 215c40 -2 91.999 15.333 155.999 52l-161 325l-11 -8c-30 -40.667 -51.333 -80 -64 -118s-17.667 -78.667 -15 -122c1.33301 -36.667 10.333 -67.167 27 -91.5s39.334 -36.833 68.001 -37.5zM488.001 1091
c-5.33301 -44.667 6.66797 -100.332 36.001 -166.999l53 36c61.333 45.333 95 100.666 101 165.999c2 34.667 -3.33301 62.667 -16 84s-31.334 32 -56.001 32c-30 0 -55.667 -14 -77 -42s-35 -64.333 -41 -109z" />
    <glyph glyph-name="quotesingle" unicode="'" horiz-adv-x="330" 
d="M389 1375l-89 -392h-181l87 553h208z" />
    <glyph glyph-name="parenleft" unicode="(" horiz-adv-x="652" 
d="M693 1618l42.001 -160.002c-94 -88 -171.833 -199.167 -233.5 -333.5s-108 -303.5 -139 -507.5s-44.167 -371 -39.5 -501c7.33301 -190 52.666 -329.333 135.999 -418l-64 -153c-102.667 68.667 -179 176.334 -229 323.001s-69.667 321.334 -59 524.001
c10 186 41.167 364.833 93.5 536.5s120.5 316 204.5 433s180 202.5 288 256.5z" />
    <glyph glyph-name="parenright" unicode=")" horiz-adv-x="652" 
d="M535 572c-24 -166.667 -64.335 -321.668 -121.002 -465.001s-124.5 -262.166 -203.5 -356.499s-165.833 -163.5 -260.5 -207.5l-38 157c95.333 91.333 173.833 205 235.5 341s107.5 304.667 137.5 506s43.333 367 40 497c-3.33301 90.667 -16.5 171.834 -39.5 243.501
s-55.167 129.5 -96.5 173.5l61 154c96.667 -61.333 170.834 -155.833 222.501 -283.5s78.834 -282.5 81.501 -464.5l-1 -98c-3.33301 -56.667 -9.33301 -122.334 -18 -197.001z" />
    <glyph glyph-name="asterisk" unicode="*" horiz-adv-x="912" 
d="M390 968l-289 88l86 174l285 -129l44 355h191l-80 -349l309 120l27 -192l-328 -90l160 -270l-164 -106l-126 293l-223 -279l-146 117z" />
    <glyph glyph-name="plus" unicode="+" horiz-adv-x="954" 
d="M640 816h275l-46 -263h-274l-71 -407h-262l71 407h-280l46 263h279l68 390h262z" />
    <glyph glyph-name="comma" unicode="," horiz-adv-x="498" 
d="M29 -367l-146 80l62 99c50 82 80.667 155.667 92 221l37 213h240l-32 -192c-28.667 -170 -113 -310.333 -253 -421z" />
    <glyph glyph-name="hyphen" unicode="-" horiz-adv-x="732" 
d="M578 506h-476l42 236h476z" />
    <glyph glyph-name="period" unicode="." horiz-adv-x="588" 
d="M43 138c0 46.667 15.334 85.499 46.001 116.499s69 46.5 115 46.5s84 -14.5 114 -43.5s45 -64.833 45 -107.5c0 -48 -16 -87 -48 -117s-70 -45 -114 -45c-46.667 0 -84.334 14.333 -113.001 43s-43.667 64.334 -45 107.001z" />
    <glyph glyph-name="slash" unicode="/" horiz-adv-x="668" 
d="M79 -125h-210l698 1581h210z" />
    <glyph glyph-name="zero" unicode="0" horiz-adv-x="1015" 
d="M418 -20c-74.667 2 -137.666 23 -188.999 63s-88.5 97.833 -111.5 173.5s-33.167 159.834 -30.5 252.501c1.33301 46.667 4.66602 91 9.99902 133l43 281c32 198.667 90 348.167 174 448.5s191 148.833 321 145.5c112.667 -4 197.167 -48.667 253.5 -134
s82.5 -203.333 78.5 -354c-1.33301 -46.667 -4.66602 -91 -9.99902 -133l-46 -297c-39.333 -222.667 -110 -381.334 -212 -476.001c-78.667 -72.667 -172.334 -107 -281.001 -103zM685.001 898l12.9971 110.001l2 87c-1.33301 44 -9.66602 79.167 -24.999 105.5
s-37.333 40.5 -66 42.5c-49.333 4 -90.166 -20.333 -122.499 -73s-56.166 -143.334 -71.499 -272.001l-48 -336l-13 -112l-2 -87c2.66699 -96.667 33.334 -146.667 92.001 -150c48.667 -4 89.167 19.667 121.5 71s56.166 144 71.499 278z" />
    <glyph glyph-name="one" unicode="1" horiz-adv-x="1015" 
d="M593 0h-277l192 1106l-288 -106l44 247l541 211h34z" />
    <glyph glyph-name="two" unicode="2" horiz-adv-x="1015" 
d="M832 0l-834 0.000976562l33 211l449 490c123.333 136 189.333 252.667 198 350l2 53c0 42 -8 75.667 -24 101s-39.333 38.333 -70 39c-90.667 2 -147.667 -72.333 -171 -223l-3 -23l-275 -1c6.66699 88 31.334 169.5 74.001 244.5s99 133.167 169 174.5
s147.333 61.666 232 60.999c118.667 -2.66699 209.667 -41.167 273 -115.5s89.666 -171.833 78.999 -292.5c-6 -69.333 -26 -137.5 -60 -204.5s-83.333 -137.833 -148 -212.5l-137 -150l-223 -267h473z" />
    <glyph glyph-name="three" unicode="3" horiz-adv-x="1015" 
d="M379 857l123.998 -2c61.333 1.33301 108.833 27.833 142.5 79.5s47.834 114.834 42.501 189.501c-7.33301 78 -41.666 118 -102.999 120c-38.667 0 -71 -14.667 -97 -44s-43.333 -69.333 -52 -120l-276 -1c9.33301 118 55 214.167 137 288.5s181.667 110.833 299 109.5
c118 -2.66699 211.333 -40.834 280 -114.501s99 -171.834 91 -294.501c-10 -136.667 -87.333 -245 -232 -325c52 -30.667 90.333 -73.667 115 -129s34.667 -121.333 30 -198c-6 -84 -30.167 -159.5 -72.5 -226.5s-99.833 -119.167 -172.5 -156.5s-152 -55 -238 -53
c-114 2.66699 -204.167 42.5 -270.5 119.5s-97.5 177.167 -93.5 300.5l276 -1c-2 -55.333 7.33301 -99.5 28 -132.5s50 -50.167 88 -51.5c57.333 -1.33301 104 24.334 140 77.001s51.667 119.667 47 201c-2 40 -13.333 72 -34 96s-50 37 -88 39l-147 1z" />
    <glyph glyph-name="four" unicode="4" horiz-adv-x="1015" 
d="M808 550h121l-41 -235h-120l-55 -315h-277l56 315h-467l20 196l636 945h284zM326 550h206l93 491l-10 -15z" />
    <glyph glyph-name="five" unicode="5" horiz-adv-x="1015" 
d="M139 720l185.003 736.002h687l-38 -242h-457l-84 -313c47.333 35.333 101.666 53.666 162.999 54.999c91.333 1.33301 164.166 -30.834 218.499 -96.501s84.166 -157.5 89.499 -275.5c6 -179.333 -36.333 -326 -127 -440s-206.334 -169 -347.001 -165
c-112 2.66699 -202.167 44.667 -270.5 126s-101.166 182 -98.499 302h273c4 -125.333 42.333 -189 115 -191c59.333 -2.66699 105 30 137 98c30.667 66 45.667 151 45 255c-1.33301 51.333 -12.5 92.333 -33.5 123s-51.5 46 -91.5 46
c-53.333 1.33301 -101.333 -24.667 -144 -78z" />
    <glyph glyph-name="six" unicode="6" horiz-adv-x="1015" 
d="M877 1472l-24.001 -241.005l-10 1c-98.667 1.33301 -184 -27.5 -256 -86.5s-131.333 -150.833 -178 -275.5c70.667 70.667 147 105.334 229 104.001c86.667 -1.33301 154.5 -36.333 203.5 -105s75.167 -161.667 78.5 -279
c3.33301 -177.333 -40.667 -324.166 -132 -440.499s-206.333 -173.166 -345 -170.499c-107.333 2.66699 -192.166 44.334 -254.499 125.001s-95.833 189.667 -100.5 327c-2 44.667 -0.666992 87.667 4 129l13 99c33.333 248.667 114 445.834 242 591.501
s290 219.5 486 221.5h44zM532.999 742.995c-60 2 -112.333 -37.667 -157 -119c-13.333 -106.667 -20 -178.667 -20 -216c0 -127.333 34.333 -192 103 -194c58 -2 103.5 31 136.5 99s49.167 149.333 48.5 244c-1.33301 56.667 -11.5 101.667 -30.5 135
s-45.833 50.333 -80.5 51z" />
    <glyph glyph-name="seven" unicode="7" horiz-adv-x="1015" 
d="M1028 1280l-642 -1280h-301l639 1221h-562l37 235h856z" />
    <glyph glyph-name="eight" unicode="8" horiz-adv-x="1015" 
d="M972 1077c-10 -140.667 -83.3359 -251.331 -220.003 -331.998c50 -42 85 -92.667 105 -152s27.333 -121.333 22 -186c-9.33301 -128 -56 -232.167 -140 -312.5s-189 -118.5 -315 -114.5c-116.667 2.66699 -207.667 42.167 -273 118.5s-93.333 173.833 -84 292.5
c12.667 162 96.334 283.333 251.001 364c-81.333 76.667 -117.666 178.334 -108.999 305.001c5.33301 80.667 27.333 153.667 66 219s89.5 115.166 152.5 149.499s133.5 50.5 211.5 48.5c110.667 -2.66699 196.334 -41.334 257.001 -116.001s86 -169.334 76 -284.001z
M608.997 491.003c-5.33301 91.333 -38.6689 137.667 -100.002 139c-50.667 1.33301 -91.5 -25.167 -122.5 -79.5s-44.5 -120.833 -40.5 -199.5c1.33301 -40.667 10.833 -73.667 28.5 -99s42.5 -38.333 74.5 -39c50.667 -1.33301 90.834 25 120.501 79
s42.834 120.333 39.501 199zM696.994 1115c-2.66699 84 -30.332 126.667 -82.999 128c-42.667 0 -75.667 -22.667 -99 -68s-35 -106 -35 -182c0 -39.333 7 -71 21 -95s34.333 -36.333 61 -37c44 0 77.667 24 101 72s34.666 108.667 33.999 182z" />
    <glyph glyph-name="nine" unicode="9" horiz-adv-x="1015" 
d="M219 228c99.333 -2.66699 183.333 23.3301 252 77.9971s123.334 140.334 164.001 257.001c-68 -61.333 -133.667 -92 -197 -92c-87.333 0 -156.333 33.333 -207 100s-78.667 159.334 -84 278.001c-6 104 11.167 206.667 51.5 308s97.5 180.5 171.5 237.5
s156.667 84.5 248 82.5c70.667 -2 131.5 -22.667 182.5 -62s89.667 -95.5 116 -168.5s40.166 -152.167 41.499 -237.5c1.33301 -67.333 -6.66699 -154.666 -24 -261.999c-25.333 -158 -70.833 -294.5 -136.5 -409.5s-148.167 -202.167 -247.5 -261.5s-209.333 -90 -330 -92
h-37l25 244h11zM525 690.997c42.667 0 82.002 26.001 118.002 78.001l23 35c15.333 126.667 23 207 23 241c0 129.333 -31.667 195 -95 197c-56.667 1.33301 -100.334 -37.334 -131.001 -116.001s-44.334 -169 -41.001 -271c2 -52.667 11.833 -93.167 29.5 -121.5
s42.167 -42.5 73.5 -42.5z" />
    <glyph glyph-name="colon" unicode=":" horiz-adv-x="555" 
d="M45 138c0 46.667 15.334 85.499 46.001 116.499s69 46.5 115 46.5s84 -14.5 114 -43.5s45 -64.833 45 -107.5c0 -48 -16 -87 -48 -117s-70 -45 -114 -45c-46.667 0 -84.334 14.333 -113.001 43s-43.667 64.334 -45 107.001zM186.001 955.999
c0 46.667 15.334 85.499 46.001 116.499s69 46.5 115 46.5s84 -14.5 114 -43.5s45 -64.833 45 -107.5c0 -48 -16 -87 -48 -117s-70 -45 -114 -45c-46.667 0 -84.334 14.333 -113.001 43s-43.667 64.334 -45 107.001z" />
    <glyph glyph-name="semicolon" unicode=";" horiz-adv-x="516" 
d="M170 956c0 46.667 15.334 85.499 46.001 116.499s69 46.5 115 46.5s84 -14.5 114 -43.5s45 -64.833 45 -107.5c0 -48 -16 -87 -48 -117s-70 -45 -114 -45c-46.667 0 -84.334 14.333 -113.001 43s-43.667 64.334 -45 107.001zM52.001 -367.001l-146 80l62 99
c50 82 80.667 155.667 92 221l37 213h240l-32 -192c-28.667 -170 -113 -310.333 -253 -421z" />
    <glyph glyph-name="less" unicode="&#x3c;" horiz-adv-x="898" 
d="M328 611l406 -199l-47 -270l-645 365l42 238l771 365l-51 -295z" />
    <glyph glyph-name="equal" unicode="=" horiz-adv-x="1009" 
d="M894 744h-742l42 238h742zM819 311h-742l42 237h742z" />
    <glyph glyph-name="greater" unicode="&#x3e;" horiz-adv-x="912" 
d="M570 627l-414 201l47 268l654 -365l-41 -238l-782 -365l52 293z" />
    <glyph glyph-name="question" unicode="?" horiz-adv-x="900" 
d="M278 447c5.33301 78.667 21.332 148.835 47.999 210.502s69.667 121.334 129 179.001s100.333 107.167 123 148.5s35 90.333 37 147c1.33301 32.667 -4.33398 59 -17.001 79s-32 30.333 -58 31c-32 0.666992 -59.5 -14.333 -82.5 -45s-38.833 -73.334 -47.5 -128.001
l-275 -1c12.667 126.667 57.167 227.167 133.5 301.5s174.833 110.166 295.5 107.499c111.333 -2.66699 197 -39 257 -109s85.333 -162.333 76 -277c-7.33301 -102.667 -60.666 -204 -159.999 -304l-121 -118c-51.333 -54.667 -84.666 -128.334 -99.999 -221.001z
M189.999 136.001c0 46.667 14.333 84.832 43 114.499s64.334 45.167 107.001 46.5c41.333 1.33301 76.666 -12.167 105.999 -40.5s44 -64.833 44 -109.5c0 -46 -14 -84 -42 -114s-64.333 -45.667 -109 -47c-44.667 0 -80.667 14.833 -108 44.5s-41 64.834 -41 105.501z" />
    <glyph glyph-name="at" unicode="@" horiz-adv-x="1532" 
d="M990 -22c-44 1.33301 -82.001 13.332 -114.001 35.999s-54.667 55.334 -68 98.001c-72 -89.333 -144 -133 -216 -131c-58.667 1.33301 -105 24.333 -139 69s-53 109.667 -57 195c-6.66699 112 12.666 231 57.999 357s103.5 222.667 174.5 290s150.5 100.333 238.5 99
c44.667 -1.33301 85.834 -9.83301 123.501 -25.5s81.167 -43.167 130.5 -82.5l-127 -582c-8.66699 -50.667 -12.334 -83 -11.001 -97c1.33301 -42 19 -63.667 53 -65c52.667 -2.66699 98.167 27.166 136.5 89.499s68.5 156.5 90.5 282.5s29.667 239 23 339
c-10 131.333 -46 230.666 -108 297.999s-147.333 102 -256 104c-98 2.66699 -189.833 -22.5 -275.5 -75.5s-162 -134.667 -229 -245s-118.167 -238.5 -153.5 -384.5s-49.333 -282 -42 -408c6.66699 -134 40.834 -236.333 102.501 -307s148.167 -106.667 259.5 -108
c92.667 -1.33301 187.667 21.334 285 68.001l23 -159c-80.667 -58.667 -184.667 -87.334 -312 -86.001c-121.333 2 -223.5 31.167 -306.5 87.5s-144.5 138.666 -184.5 246.999s-57.667 230.5 -53 366.5c6 206 50.833 401.833 134.5 587.5s190.5 329.334 320.5 431.001
s275 151.167 435 148.5c112 -2 207.833 -29.833 287.5 -83.5s139.834 -132.5 180.501 -236.5s60.334 -222 59.001 -354c-2.66699 -146 -24.334 -278.667 -65.001 -398s-95 -210.666 -163 -273.999s-146.333 -93.666 -235 -90.999zM606.999 271.999
c0 -74.667 21.999 -113 65.999 -115c22.667 -0.666992 46 13 70 41s44 66.333 60 115l120 496c-17.333 4.66699 -31 7 -41 7c-123.333 5.33301 -206.666 -106 -249.999 -334c-18 -94 -26.333 -164 -25 -210z" />
    <glyph glyph-name="A" unicode="A" horiz-adv-x="1196" 
d="M738 298h-387l-127 -298h-312l694 1456h263l191 -1456h-297zM456 543h262l-41 516z" />
    <glyph glyph-name="B" unicode="B" horiz-adv-x="1125" 
d="M9 0l251.999 1456l403 -1c140 0 246.667 -33.833 320 -101.5s105.666 -163.834 96.999 -288.501c-11.333 -148 -88.666 -255.333 -231.999 -322c51.333 -21.333 89 -58.5 113 -111.5s33.333 -118.167 28 -195.5c-10 -135.333 -58.167 -241.833 -144.5 -319.5
s-202.166 -116.5 -347.499 -116.5h-489zM405.999 633.001l-67.998 -389l168 -2c63.333 1.33301 113.166 24.5 149.499 69.5s55.166 109.167 56.499 192.5c0 80 -33.667 122.667 -101 128zM442.001 847.001l136 -2c72.667 1.33301 127.667 26 165 74s53.333 109.333 48 184
c-6.66699 67.333 -46.667 103 -120 107l-165 1z" />
    <glyph glyph-name="C" unicode="C" horiz-adv-x="1143" 
d="M1042 486c-18 -158 -76.167 -282.836 -174.5 -374.503s-222.833 -135.5 -373.5 -131.5c-129.333 2.66699 -229.333 45.334 -300 128.001s-108 197.334 -112 344.001c-1.33301 50 1.33398 100.333 8.00098 151l37 241c31.333 206 99.166 363.667 203.499 473
s233.833 162.333 388.5 159c135.333 -2 239.333 -46.833 312 -134.5s109 -214.834 109 -381.501l-289 1l2 99c-2 112 -54.333 169.667 -157 173c-79.333 2.66699 -142 -26.166 -188 -86.499s-77 -158.166 -93 -293.499l-36 -251c-9.33301 -80 -14.333 -132.333 -15 -157
c-6.66699 -144 44 -218.333 152 -223c67.333 -3.33301 121 14.5 161 53.5s68 108.5 84 208.5z" />
    <glyph glyph-name="D" unicode="D" horiz-adv-x="1132" 
d="M9 0l251.999 1456l359 -1c106 -2.66699 195.5 -30.334 268.5 -83.001s125.333 -125.667 157 -219s40.167 -197.666 25.5 -312.999l-32 -213c-29.333 -196 -100.166 -349.333 -212.499 -460s-253.5 -166.334 -423.5 -167.001h-394zM505.999 1211l-168.001 -967l71 -2
c99.333 0 176.333 28.833 231 86.5s91.334 150.5 110.001 278.5l34 236c9.33301 76.667 13 132.667 11 168c-3.33301 66.667 -20.333 116 -51 148s-76 49 -136 51z" />
    <glyph glyph-name="E" unicode="E" horiz-adv-x="985" 
d="M849 630h-444l-67 -386h526l-43 -244h-812l252 1456h811l-43 -245h-523l-60 -344h445z" />
    <glyph glyph-name="F" unicode="F" horiz-adv-x="955" 
d="M842 594h-443l-103 -594h-287l252 1456h784l-43 -245h-496l-65 -373h444z" />
    <glyph glyph-name="G" unicode="G" horiz-adv-x="1172" 
d="M1010 165c-54 -60 -124.33 -106.171 -210.997 -138.504s-179.667 -47.833 -279 -46.5c-87.333 0.666992 -163 19.834 -227 57.501s-113.5 92.334 -148.5 164.001s-53.833 154.167 -56.5 247.5c-2 50.667 0.333008 102.334 7 155.001l36 241
c30.667 202.667 96.667 359.334 198 470.001s233.333 164.334 396 161.001c138.667 -2.66699 243.167 -44.5 313.5 -125.5s106.166 -200.833 107.499 -359.5l-279 1l-3 80c-8.66699 104 -59.667 157.667 -153 161c-138 5.33301 -228.667 -85.667 -272 -273l-15 -75l-40 -281
c-8.66699 -64 -12 -118.667 -10 -164c3.33301 -74.667 20.166 -128.834 50.499 -162.501s73.166 -51.167 128.499 -52.5c52 -1.33301 110 15.667 174 51l51 268h-201l39 222h486z" />
    <glyph glyph-name="H" unicode="H" horiz-adv-x="1229" 
d="M1001 0h-286l108 623h-419l-108 -623h-287l252 1456h287l-102 -589h419l103 589h286z" />
    <glyph glyph-name="I" unicode="I" horiz-adv-x="547" 
d="M308 0h-287l253 1456h287z" />
    <glyph glyph-name="J" unicode="J" horiz-adv-x="984" 
d="M732 1456h287l-172 -1008c-19.333 -141.333 -72 -255.5 -158 -342.5s-191.333 -129.167 -316 -126.5c-120.667 2.66699 -212 44.5 -274 125.5s-89.333 189.833 -82 326.5l290 -1l-2 -63c-1.33301 -43.333 6 -78 22 -104s40.333 -39.333 73 -40
c78.667 -2 130.667 62.667 156 194z" />
    <glyph glyph-name="K" unicode="K" horiz-adv-x="1109" 
d="M512 558l-146 -154l-70 -404h-287l252 1456h287l-108 -619l116 154l336 465h367l-527 -653l266 -803h-327z" />
    <glyph glyph-name="L" unicode="L" 
d="M338 244h501l-43 -244h-787l252 1456h287z" />
    <glyph glyph-name="M" unicode="M" horiz-adv-x="1516" 
d="M631 1456l85 -1047l447 1047h378l-253 -1456h-288l70 403l126 575l-446 -978h-195l-110 1011l-83 -627l-66 -384h-287l252 1456h370z" />
    <glyph glyph-name="N" unicode="N" horiz-adv-x="1226" 
d="M998 0h-280l-254 965l-168 -965h-287l252 1456h281l255 -966l168 966h286z" />
    <glyph glyph-name="O" unicode="O" horiz-adv-x="1209" 
d="M512 -20c-128 2.66699 -229.5 44.6699 -304.5 126.003s-115.833 194.333 -122.5 339c-2.66699 50 -0.666992 100.667 6 152l37 242c19.333 129.333 57 244 113 344s125.667 174.333 209 223s177.333 72 282 70c129.333 -2.66699 230.833 -46.834 304.5 -132.501
s113.167 -202.834 118.5 -351.501c1.33301 -56 -1.66699 -109 -9 -159l-33 -223c-30 -200 -97.5 -355.833 -202.5 -467.5s-237.833 -165.834 -398.5 -162.501zM859 843.003c8 68.667 12 121.668 12 159.001c-3.33301 148.667 -57 225 -161 229
c-80 3.33301 -144.5 -26.834 -193.5 -90.501s-83.167 -163.5 -102.5 -299.5l-35 -245c-8 -66 -11 -117.667 -9 -155c3.33301 -140 58.333 -212.333 165 -217c76 -2.66699 138.333 25.333 187 84s82.667 154.667 102 288z" />
    <glyph glyph-name="P" unicode="P" horiz-adv-x="1140" 
d="M385 512l-88.998 -511.999h-287l252 1456l467 -1c127.333 -4 227.166 -49.5 299.499 -136.5s102.833 -199.167 91.5 -336.5c-13.333 -142.667 -67.333 -256.834 -162 -342.501s-215.334 -128.5 -362.001 -128.5zM427.002 757.001l185.002 -2.00098
c71.333 1.33301 126.666 28.833 165.999 82.5s58 125.834 56 216.501c-1.33301 46 -12.333 82.667 -33 110s-49.334 42.333 -86.001 45l-209 2z" />
    <glyph glyph-name="Q" unicode="Q" horiz-adv-x="1209" 
d="M829 86l162.999 -186.998l-197 -159l-215 244c-28 -3.33301 -52.333 -4.33301 -73 -3c-83.333 0.666992 -156.666 20.5 -219.999 59.5s-112.166 95.833 -146.499 170.5s-52.833 158.667 -55.5 252c-2 56 0.666992 108.667 8 158l32 213
c30.667 201.333 98.5 359.5 203.5 474.5s238.833 170.833 401.5 167.5c130 -2.66699 231.833 -46.834 305.5 -132.501s113.167 -202.834 118.5 -351.501c1.33301 -51.333 -1.33398 -102.333 -8.00098 -153l-35 -231c-38 -243.333 -132 -417.333 -282 -522zM858.999 843.002
c8 68.667 12 121.666 12 158.999c-3.33301 148 -57.666 224.333 -162.999 229c-152 6 -248.667 -111 -290 -351l-38 -266c-8 -68.667 -11.667 -121.667 -11 -159c0 -73.333 14 -129.666 42 -168.999s68.333 -60 121 -62c74 -4 135.667 23.5 185 82.5
s84.666 155.167 105.999 288.5z" />
    <glyph glyph-name="R" unicode="R" horiz-adv-x="1110" 
d="M535 532h-145.998l-92 -532h-287l252 1456l440 -1c130 -4 229.667 -44 299 -120s98.666 -179.667 87.999 -311c-16.667 -199.333 -107.334 -338 -272.001 -416l146 -592v-16h-308zM431.002 777l151 -2c69.333 1.33301 124 28.833 164 82.5s59.667 124.834 59 213.501
c-2.66699 87.333 -41 133.666 -115 138.999l-183 1z" />
    <glyph glyph-name="S" unicode="S" horiz-adv-x="1083" 
d="M680 390c6.66699 49.333 -0.499023 90.502 -21.499 123.502s-64.667 65.333 -131 97s-121.833 64.5 -166.5 98.5c-122 92.667 -178 209.667 -168 351c6 81.333 31.5 153.833 76.5 217.5s105.167 113.167 180.5 148.5s156 52 242 50
c124.667 -2.66699 222.167 -45.834 292.5 -129.501s102.833 -190.834 97.5 -321.501l-286 1c7.33301 136.667 -36.334 206 -131.001 208c-48.667 1.33301 -90.5 -14.5 -125.5 -47.5s-56.167 -75.5 -63.5 -127.5c-10 -78 44 -144.667 162 -200s202.667 -117.666 254 -186.999
c57.333 -76.667 81.666 -170 72.999 -280c-10 -126.667 -60 -227.834 -150 -303.501s-202.333 -112.167 -337 -109.5c-135.333 2.66699 -242.333 48.667 -321 138s-114.667 203.666 -108 342.999l288 -1c-5.33301 -86 5.83398 -147.5 33.501 -184.5
s71.167 -55.5 130.5 -55.5c52 0.666992 93 16.834 123 48.501s48.667 72.5 56 122.5z" />
    <glyph glyph-name="T" unicode="T" horiz-adv-x="1089" 
d="M1135 1211h-349l-210 -1211h-288l210 1211h-344l43 245h981z" />
    <glyph glyph-name="U" unicode="U" horiz-adv-x="1145" 
d="M1195 1456l-170 -1000c-20.667 -151.333 -77 -269.333 -169 -354s-212.667 -125.667 -362 -123c-140 2.66699 -246 46.667 -318 132s-99.667 200.333 -83 345l170 1000h288l-168 -1001l-4 -86c0 -93.333 46.333 -141.666 139 -144.999c64 -2 114 15 150 51
s59.667 96 71 180l169 1001h287z" />
    <glyph glyph-name="V" unicode="V" horiz-adv-x="1158" 
d="M539 403l402 1053h327l-635 -1456h-299l-177 1456h311z" />
    <glyph glyph-name="W" unicode="W" horiz-adv-x="1498" 
d="M1020 545l276 911h288l-478 -1456h-288l-30 854l-296 -854h-289l-25 1456h282l-11 -908l307 908h242z" />
    <glyph glyph-name="X" unicode="X" horiz-adv-x="1122" 
d="M607 958l267 498h339l-452 -735l221 -721h-322l-113 507l-272 -507h-343l462 746l-216 710h317z" />
    <glyph glyph-name="Y" unicode="Y" horiz-adv-x="1088" 
d="M570 805l325 651h323l-548 -942l-89 -514h-291l95 543l-216 913h302z" />
    <glyph glyph-name="Z" unicode="Z" horiz-adv-x="1063" 
d="M356 244h575l-43 -244h-917l33 190l746 1021h-575l43 245h912l-32 -186z" />
    <glyph glyph-name="bracketleft" unicode="[" horiz-adv-x="534" 
d="M621 1471h-102l-248 -1587h102l-35 -223h-379l318 2034h379z" />
    <glyph glyph-name="backslash" unicode="\" horiz-adv-x="768" 
d="M162 1456h273l221 -1581h-273z" />
    <glyph glyph-name="bracketright" unicode="]" horiz-adv-x="534" 
d="M204 1695h379l-318 -2034h-380l36 223h102l248 1587h-103z" />
    <glyph glyph-name="asciicircum" unicode="^" horiz-adv-x="786" 
d="M496 1181l-206 -452h-226l371 727h199l117 -727h-207z" />
    <glyph glyph-name="underscore" unicode="_" horiz-adv-x="804" 
d="M630 -228h-754l40 228h754z" />
    <glyph glyph-name="grave" unicode="`" horiz-adv-x="668" 
d="M642 1226h-217l-220 310h293z" />
    <glyph glyph-name="a" unicode="a" horiz-adv-x="945" 
d="M510 0c-5.33301 22.667 -8.00098 50.667 -8.00098 84c-61.333 -70 -131.333 -105 -210 -105c-83.333 1.33301 -150.166 32 -200.499 92s-73.5 134.667 -69.5 224c6 114.667 50.667 204.5 134 269.5s195.333 97.5 336 97.5h81l13 88l3 45c0 58 -23.333 87 -70 87
c-64.667 2 -104 -39.333 -118 -124l-275 -2c6 102.667 48.667 186.5 128 251.5s176 96.833 290 95.5c107.333 -2.66699 189.5 -36.5 246.5 -101.5s80.167 -150.833 69.5 -257.5l-88 -550l-4 -53c-2.66699 -46.667 2 -87.667 14 -123l-1 -18h-271zM367.999 200
c48.667 -1.33301 94.001 20 136.001 64l49 229h-60c-53.333 -2.66699 -96.333 -20.667 -129 -54s-52.334 -75.333 -59.001 -126l-1 -38c0 -21.333 5.5 -39 16.5 -53s26.833 -21.333 47.5 -22z" />
    <glyph glyph-name="b" unicode="b" horiz-adv-x="994" 
d="M495 -21c-92 4 -161.332 47.333 -207.999 130l-35 -109h-257l267 1536h276l-105 -543c62.667 74.667 133.667 111.334 213 110.001c94.667 -1.33301 165.167 -36.666 211.5 -105.999s67.166 -170 62.499 -302c-5.33301 -154 -24.833 -286.833 -58.5 -398.5
s-81.5 -193.334 -143.5 -245.001s-136.333 -75.834 -223 -72.501zM648.001 692c2 62 -5.33398 106 -22.001 132s-43 39.667 -79 41c-51.333 2 -97.666 -24.667 -138.999 -80l-86 -496c20 -48 57.667 -73.333 113 -76c103.333 -5.33301 165 67.667 185 219l9 74z" />
    <glyph glyph-name="c" unicode="c" horiz-adv-x="924" 
d="M419 213c76 -2 123.001 51.666 141.001 160.999l259 1c-11.333 -120 -55.666 -216.667 -132.999 -290s-171.666 -108.666 -282.999 -105.999c-100.667 2.66699 -180.834 32.834 -240.501 90.501s-95.167 138.167 -106.5 241.5c-10 84 -5.16699 185.333 14.5 304
s56.167 217.667 109.5 297c87.333 130.667 211.666 194 372.999 190c109.333 -3.33301 192.666 -42.833 249.999 -118.5s83 -177.834 77 -306.501l-260 1l1 62c-2.66699 82.667 -35.334 125.667 -98.001 129c-98 5.33301 -156.333 -70.667 -175 -228l-19 -181
c-8 -54 -10.667 -99 -8 -135c4.66699 -72.667 37.334 -110 98.001 -112z" />
    <glyph glyph-name="d" unicode="d" horiz-adv-x="995" 
d="M475 1103c79.333 -2.66699 143.666 -39.667 192.999 -111l102 544h278l-266 -1536h-248l15 110c-69.333 -88 -145.666 -132 -228.999 -132c-92.667 1.33301 -162.5 37 -209.5 107s-69.5 170.667 -67.5 302l3 64c15.333 220 58.833 384.5 130.5 493.5
s171.167 161.833 298.5 158.5zM318 391c-3.33301 -58 3.50195 -101.833 20.502 -131.5s43.167 -44.5 78.5 -44.5c47.333 -1.33301 92.666 23.667 135.999 75l87 497c-24.667 50.667 -60.334 77 -107.001 79c-98.667 5.33301 -160.667 -66 -186 -214l-11 -76z" />
    <glyph glyph-name="e" unicode="e" 
d="M441 -20c-87.333 0.666992 -161.497 22.001 -222.497 64.001s-105 100.833 -132 176.5s-35.167 161.834 -24.5 258.501l9 74c22 179.333 76.5 316.5 163.5 411.5s197.833 140.833 332.5 137.5c98.667 -2.66699 176.167 -33.5 232.5 -92.5s89.166 -141.5 98.499 -247.5
c5.33301 -63.333 4 -125.333 -4 -186l-19 -130h-540c-3.33301 -28.667 -4.33301 -56.334 -3 -83.001c4.66699 -96 51.667 -145 141 -147c83.333 -2.66699 164 29 242 95l93 -172c-36.667 -50 -87.834 -89.333 -153.501 -118s-136.834 -42.334 -213.501 -41.001z
M540.003 869.001c-79.333 3.33301 -134.669 -47.333 -166.002 -152l-20 -73l275 -1c6.66699 38.667 10.334 70 11.001 94c2.66699 84.667 -30.666 128.667 -99.999 132z" />
    <glyph glyph-name="f" unicode="f" horiz-adv-x="661" 
d="M58 0l150.999 869h-127l37 213l127 1l12 91c16 122 58.333 217.167 127 285.5s157.334 101.833 266.001 100.5c32.667 0 76.667 -6.66699 132 -20l-23 -228c-24.667 7.33301 -47 11 -67 11c-84.667 0 -136.667 -49.333 -156 -148l-14 -93h164l-37 -213h-164l-151 -869
h-277z" />
    <glyph glyph-name="g" unicode="g" horiz-adv-x="1009" 
d="M488 1102c96 -2.66699 165.999 -42.001 209.999 -118.001l34 99l252 -1l-184 -1082c-19.333 -140.667 -73.166 -248 -161.499 -322s-199.5 -109 -333.5 -105c-58.667 1.33301 -116.667 13.333 -174 36s-105.333 54 -144 94l113 194
c55.333 -62.667 124.333 -95.334 207 -98.001c120 -4.66699 193.333 61.333 220 198l20 90c-64.667 -72 -136 -108 -214 -108c-94.667 1.33301 -166.167 37.833 -214.5 109.5s-71.833 170.834 -70.5 297.501c0 78.667 7.83301 162.834 23.5 252.501s38.167 165.5 67.5 227.5
c76 161.333 192.333 240 349 236zM320.999 388.999c0 -113.333 36.332 -171.001 108.999 -173.001c48.667 -1.33301 94.334 19.334 137.001 62.001l93 520c-25.333 43.333 -62 66.333 -110 69c-117.333 6 -188 -88.667 -212 -284c-11.333 -93.333 -17 -158 -17 -194z" />
    <glyph glyph-name="h" unicode="h" horiz-adv-x="988" 
d="M425 986c68.667 79.333 144.333 118.332 227 116.999c79.333 -1.33301 140 -30.666 182 -87.999s63 -137 63 -239l-5 -95l-114 -681h-277l113 684l5 59c2.66699 81.333 -26.333 122 -87 122c-44 1.33301 -86.667 -22 -128 -70l-139 -795h-277l267 1536h276z" />
    <glyph glyph-name="i" unicode="i" horiz-adv-x="511" 
d="M285 0h-277l188 1082h277zM232 1357c0 46 14.5 83.5 43.5 112.5s64.5 43.5 106.5 43.5c41.333 1.33301 76.5 -12.167 105.5 -40.5s43.5 -63.5 43.5 -105.5c0 -46.667 -14.5 -84.5 -43.5 -113.5s-64.5 -43.5 -106.5 -43.5c-42.667 -1.33301 -78.167 12.167 -106.5 40.5
s-42.5 63.833 -42.5 106.5z" />
    <glyph glyph-name="j" unicode="j" horiz-adv-x="498" 
d="M474 1082l-194.001 -1139c-16 -124 -55.5 -219 -118.5 -285s-145.167 -99 -246.5 -99c-44.667 1.33301 -89 7.33301 -133 18l21 234c31.333 -8.66699 56 -13 74 -13c66.667 0 108.334 48 125.001 144l195 1140h277zM226.999 1357c0 44 14 80.668 42 110.001
s64 44.666 108 45.999c41.333 1.33301 76.5 -12.167 105.5 -40.5s43.5 -63.5 43.5 -105.5c0 -46.667 -14.5 -84.5 -43.5 -113.5s-64.5 -43.5 -106.5 -43.5c-42.667 -1.33301 -78.167 12.167 -106.5 40.5s-42.5 63.833 -42.5 106.5z" />
    <glyph glyph-name="k" unicode="k" 
d="M424 413l-97 -92l-56 -321h-276l267 1536h276l-153 -833l44 54l245 325h345l-394 -459l220 -623h-303z" />
    <glyph glyph-name="l" unicode="l" horiz-adv-x="511" 
d="M285 0h-277l266 1536h278z" />
    <glyph glyph-name="m" unicode="m" horiz-adv-x="1483" 
d="M440 1083l-17.9971 -101.997c74.667 83.333 159.667 123.666 255 120.999c103.333 -2.66699 170.666 -51.334 201.999 -146.001c82 100 173.333 149 274 147c76 -1.33301 134.167 -29.833 174.5 -85.5s60.166 -134.834 59.499 -237.501l-5 -92l-114 -688h-277l115 690
l5 56c5.33301 80 -21.334 120 -80.001 120c-47.333 0 -90.666 -32.333 -129.999 -97l-6 -48l-125 -721h-276l114 688l6 56c5.33301 81.333 -21 122 -79 122c-28 0 -51.833 -7.83301 -71.5 -23.5s-37.834 -34.167 -54.501 -55.5l-137 -787h-276l188 1082z" />
    <glyph glyph-name="n" unicode="n" horiz-adv-x="988" 
d="M434 1083l-20.001 -108.999c76 88.667 160.333 131.667 253 129c76 -1.33301 133.833 -29.833 173.5 -85.5s59.167 -134.834 58.5 -237.501l-6 -92l-115 -688h-277l114 690l5 59c2.66699 78 -26.666 117 -87.999 117c-28.667 0 -53 -7.83301 -73 -23.5
s-38.667 -34.167 -56 -55.5l-137 -787h-278l188 1082z" />
    <glyph glyph-name="o" unicode="o" horiz-adv-x="998" 
d="M565 1102c109.333 -2.66699 194.669 -39.668 256.002 -111.001s95 -167 101 -287v-71c-8.66699 -209.333 -58.834 -371.5 -150.501 -486.5s-211.167 -170.5 -358.5 -166.5c-86 2 -157 25.167 -213 69.5s-96.167 105.833 -120.5 184.5s-31.166 169 -20.499 271l6 54
c19.333 170 73.666 303.833 162.999 401.5s201.666 144.834 336.999 141.501zM331.003 391.999c0 -115.333 35.333 -175.002 106 -179.002c96 -5.33301 158.333 68 187 220l11 72c9.33301 96 14 157.667 14 185c0 114.667 -36.333 174.334 -109 179.001
c-52.667 2.66699 -96 -21.666 -130 -72.999s-55.667 -125.5 -65 -222.5s-14 -157.5 -14 -181.5z" />
    <glyph glyph-name="p" unicode="p" horiz-adv-x="994" 
d="M493 -20c-84.667 2.66699 -150.669 39 -198.002 109l-96 -505h-276l260 1498l252 1l-15 -100c66 81.333 141 121.333 225 120c94.667 -1.33301 165.334 -37.333 212.001 -108s67.667 -172 63 -304c-5.33301 -155.333 -25.333 -287.166 -60 -395.499
s-83.167 -188.833 -145.5 -241.5s-136.166 -77.334 -221.499 -74.001zM645.998 694c0 62.667 -8.16602 106.667 -24.499 132s-41.833 38.666 -76.5 39.999c-49.333 1.33301 -94.333 -23 -135 -73l-90 -510c21.333 -43.333 58.666 -66.333 111.999 -69
c102.667 -5.33301 166 74.334 190 239.001l22 204z" />
    <glyph glyph-name="q" unicode="q" horiz-adv-x="997" 
d="M473 1102c93.333 -2.66699 162.667 -46.002 208 -130.002l43 110h245l-260 -1498h-278l98 501c-62.667 -72 -132.667 -107.333 -210 -106c-92 1.33301 -161.333 36.833 -208 106.5s-69 170.834 -67 303.501l3 65c15.333 218 57.833 381.333 127.5 490
s169.167 161.334 298.5 158.001zM320.001 388.998c-2 -60.667 5.16504 -104.667 21.498 -132s41.833 -41.666 76.5 -42.999c48.667 -1.33301 93 21 133 67l91 518c-21.333 44 -56.666 67 -105.999 69c-101.333 5.33301 -164.666 -69.334 -189.999 -224.001l-10 -71z" />
    <glyph glyph-name="r" unicode="r" horiz-adv-x="669" 
d="M663 810l-87.999 10c-74 1.33301 -133.667 -33.667 -179 -105l-125 -715h-277l188 1082l259 1l-22 -119c32.667 52 64.667 88.5 96 109.5s65 31.5 101 31.5c21.333 0 49.666 -5 84.999 -15z" />
    <glyph glyph-name="s" unicode="s" horiz-adv-x="912" 
d="M516 297c6.66699 46.667 -29.667 88.335 -109 125.002s-138.833 71.167 -178.5 103.5s-68.667 68.166 -87 107.499s-26.5 84 -24.5 134c4.66699 98 44.834 178.833 120.501 242.5s168.167 94.834 277.5 93.501c108 -2.66699 193.167 -34.834 255.5 -96.501
s92.833 -143.167 91.5 -244.5h-276c2 47.333 -4.16699 80.833 -18.5 100.5s-36.833 29.5 -67.5 29.5c-32 0 -59.167 -10.833 -81.5 -32.5s-36.166 -47.834 -41.499 -78.501c-8 -43.333 25.833 -82 101.5 -116s130.167 -62.333 163.5 -85
c99.333 -66 145.666 -156.333 138.999 -271c-4 -67.333 -24.833 -126.166 -62.5 -176.499s-88 -88.833 -151 -115.5s-131.167 -39 -204.5 -37c-105.333 2.66699 -191.333 37 -258 103s-99.334 150.333 -98.001 253l263 -1c-2 -52 6.33301 -89.333 25 -112s47.667 -34 87 -34
c34.667 0 64.167 9.16699 88.5 27.5s39.5 45.166 45.5 80.499z" />
    <glyph glyph-name="t" unicode="t" horiz-adv-x="620" 
d="M550 1348l-45.998 -266h140l-37 -213h-140l-92 -545l-3 -32c-2.66699 -44.667 16 -67.667 56 -69c11.333 -0.666992 34 1 68 5l-25 -222c-41.333 -16.667 -89.333 -25 -144 -25c-80.667 1.33301 -141.334 30.333 -182.001 87s-56.334 134 -47.001 232l93 569h-122l37 213
h121l47 266h276z" />
    <glyph glyph-name="u" unicode="u" horiz-adv-x="988" 
d="M540 99c-68 -81.333 -147.33 -121.331 -237.997 -119.998c-70.667 0.666992 -127.334 24.5 -170.001 71.5s-67.334 111.167 -74.001 192.5c-4 47.333 -3.66699 93.666 1 138.999l117 700h276l-117 -704l-3 -49c-2.66699 -33.333 2.16602 -60.333 14.499 -81
s30.833 -31.334 55.5 -32.001c54.667 -2 104.667 25.667 150 83l136 783h279l-188 -1082h-257z" />
    <glyph glyph-name="v" unicode="v" horiz-adv-x="902" 
d="M411 405l238 677h294l-457 -1082h-263l-121 1082h283z" />
    <glyph glyph-name="w" unicode="w" horiz-adv-x="1267" 
d="M840 477l199 605h270l-405 -1082h-229l-39 622l-256 -622h-231l-30 1082h260l-13 -601l243 601h197z" />
    <glyph glyph-name="x" unicode="x" horiz-adv-x="909" 
d="M471 763l172 319h303l-330 -542l159 -540h-283l-75 337l-181 -337h-305l343 566l-152 516h283z" />
    <glyph glyph-name="y" unicode="y" horiz-adv-x="897" 
d="M411 476l245.002 605.999h302l-558 -1245c-40.667 -97.333 -88 -167.833 -142 -211.5s-116.333 -65.5 -187 -65.5c-28.667 0 -69.334 7 -122.001 21l24 221l30 -2c75.333 -1.33301 130.666 32.334 165.999 101.001l46 103l-112 1078h289z" />
    <glyph glyph-name="z" unicode="z" horiz-adv-x="909" 
d="M349 235h408l-41 -235h-743l33 190l512 656h-389l42 236h727l-32 -184z" />
    <glyph glyph-name="braceleft" unicode="{" horiz-adv-x="602" 
d="M355 -359c-91.333 36.667 -157.834 94.166 -199.501 172.499s-56.5 175.833 -44.5 292.5l29 212l4 60c2.66699 80.667 -30.333 125.334 -99 134.001l23 208c96 6.66699 153.333 76.334 172 209.001l28 204c30.667 240 152.334 395.333 365.001 466l38 -164
c-74.667 -38.667 -123.667 -121 -147 -247l-41 -291c-24 -126 -91.333 -220.333 -202 -283c63.333 -54 98.333 -127.333 105 -220c2 -28 1.66699 -56.333 -1 -85l-36 -274c-4 -34.667 -5 -66.334 -3 -95.001c4.66699 -64 28 -110 70 -138z" />
    <glyph glyph-name="bar" unicode="|" horiz-adv-x="513" 
d="M204 -270h-173l270 1726h173z" />
    <glyph glyph-name="braceright" unicode="}" horiz-adv-x="602" 
d="M-73 -197c74.667 38.667 123.67 121.001 147.003 247.001l41 291c24 126.667 92.667 220.667 206 282c-66.667 52 -103.334 125.333 -110.001 220v68l39 300c3.33301 29.333 4 58.333 2 87c-4.66699 63.333 -28.334 109.333 -71.001 138l65 160
c90 -36 155.5 -93.333 196.5 -172s55.5 -176 43.5 -292l-29 -212l-4 -60c-2.66699 -82 30.666 -127.333 99.999 -136l-23 -208c-97.333 -6.66699 -155 -76.334 -173 -209.001l-33 -235c-37.333 -222 -156 -367.333 -356 -436z" />
    <glyph glyph-name="asciitilde" unicode="~" horiz-adv-x="1117" 
d="M1033 795c-11.333 -128.667 -45.166 -231.331 -101.499 -307.998s-128.833 -114.334 -217.5 -113.001c-78 2 -148.333 44 -211 126l-27 36c-26.667 36.667 -54.334 55 -83.001 55c-59.333 0 -99 -59.667 -119 -179l-201 3c6 78 22.833 149.167 50.5 213.5
s64 114.166 109 149.499s98.167 52.333 159.5 51c81.333 -2.66699 154 -47 218 -133l26 -37c24 -31.333 49.667 -47 77 -47c62 0 103 60.667 123 182z" />
    <glyph glyph-name="uni00A0" unicode="&#xa0;" horiz-adv-x="468" 
 />
    <glyph glyph-name="exclamdown" unicode="&#xa1;" horiz-adv-x="548" 
d="M162 638h229l-142 -1007h-294zM482 952c0 -46 -14.667 -84.167 -44 -114.5s-65 -45.5 -107 -45.5c-42 -1.33301 -77.5 12.5 -106.5 41.5s-43.5 64.833 -43.5 107.5c0 46.667 14.5 85.167 43.5 115.5s64.833 45.5 107.5 45.5c42 1.33301 77.5 -12.5 106.5 -41.5
s43.5 -65.167 43.5 -108.5z" />
    <glyph glyph-name="cent" unicode="&#xa2;" horiz-adv-x="1021" 
d="M443 213c74.667 -2 121.331 51.665 139.998 160.998l258 2c-9.33301 -100.667 -44 -184.667 -104 -252s-137.333 -111.666 -232 -132.999l-47 -236h-187l48 238c-72.667 21.333 -129.667 64.833 -171 130.5s-64.333 146.167 -69 241.5
c-2.66699 54 -0.333984 116.333 6.99902 187c20 152.667 65.167 275.167 135.5 367.5s161.833 149.833 274.5 172.5l46 226h187l-46 -230c74.667 -23.333 131.5 -70.666 170.5 -141.999s55.833 -161 50.5 -269l-260 1c2.66699 66.667 -4.16602 114.667 -20.499 144
s-41.833 45 -76.5 47c-96.667 2.66699 -155.667 -80.333 -177 -249c-17.333 -138 -24.666 -231 -21.999 -279c4.66699 -83.333 36.334 -126 95.001 -128z" />
    <glyph glyph-name="sterling" unicode="&#xa3;" horiz-adv-x="1052" 
d="M510 575l-17.001 -135.999c-10 -76.667 -41.667 -142.667 -95 -198l523 3l-42 -244h-881l37 243l70 -2c42.667 19.333 70.667 62.666 84 129.999l31 204h-124l41 237h118l30 226c16.667 135.333 65.167 243 145.5 323s178.5 118.333 294.5 115
c111.333 -2.66699 197 -41.834 257 -117.501s87 -176.5 81 -302.5l-274 1c2.66699 64.667 -3.66602 110.334 -18.999 137.001s-38.666 40 -69.999 40c-72.667 0 -117.334 -72.667 -134.001 -218l-23 -204h243l-42 -237h-234z" />
    <glyph glyph-name="currency" unicode="&#xa4;" horiz-adv-x="1384" 
d="M968 105c-121.333 -86 -244.332 -127.666 -368.999 -124.999c-130.667 2.66699 -241 44.667 -331 126l-152 -132l-120 156l154 127c-18 56.667 -30.333 113.667 -37 171c-12.667 96.667 -4.83398 192.667 23.499 288s77.5 182 147.5 260l-115 155l150 133l110 -143
c116.667 77.333 234.667 114.666 354 111.999c123.333 -1.33301 230.333 -40 321 -116l169 148l122 -157l-170 -141c41.333 -123.333 55.333 -240.666 42 -351.999c-16.667 -134.667 -69 -254.334 -157 -359.001l112 -149l-152 -134zM294.001 599.001
c-10 -72.667 -3.50195 -142.329 19.498 -208.996s60.167 -119.667 111.5 -159s112 -60.333 182 -63c76 -2.66699 148.5 15.666 217.5 54.999s127.333 94.666 175 165.999s76.834 147.333 87.501 228c9.33301 73.333 2.66602 142.666 -20.001 207.999
s-59.667 117.666 -111 156.999s-111.666 60.333 -180.999 63c-76.667 2.66699 -150.167 -16 -220.5 -56s-128.666 -95 -174.999 -165s-74.833 -145 -85.5 -225z" />
    <glyph glyph-name="yen" unicode="&#xa5;" horiz-adv-x="953" 
d="M530 962l237 494h307l-379 -714h159l-31 -176h-216l-21 -114h218l-31 -175h-217l-48 -277h-287l49 277h-237l31 175h235l21 114h-237l31 176h196l-133 714h290z" />
    <glyph glyph-name="brokenbar" unicode="&#xa6;" horiz-adv-x="511" 
d="M-28 -270l138 795h256l-138 -795h-256zM395 698h-256l132 758h256z" />
    <glyph glyph-name="section" unicode="&#xa7;" horiz-adv-x="1107" 
d="M979 490c-10 -120 -70.666 -213.664 -181.999 -280.997c54 -74.667 76.667 -167.334 68 -278.001c-10 -120 -59.167 -214.5 -147.5 -283.5s-198.833 -102.167 -331.5 -99.5s-234.5 41 -305.5 115s-103.833 175.333 -98.5 304l275 -1c-6 -120 43.333 -180 148 -180
c49.333 0 90.833 12.667 124.5 38s54.167 60.666 61.5 105.999c10 66 -29 118.333 -117 157l-57 24c-131.333 52.667 -221.333 111.667 -270 177s-69.334 144.333 -62.001 237c10 118.667 70.333 213 181 283c-54.667 75.333 -77.667 168 -69 278
c10 119.333 60.5 214.833 151.5 286.5s201.5 106.167 331.5 103.5c126 -2.66699 222.833 -42 290.5 -118s98.834 -179.333 93.501 -310l-275 1c4 125.333 -39 189 -129 191c-49.333 0 -90.833 -13.333 -124.5 -40s-54.5 -64 -62.5 -112
c-10 -68.667 23.667 -120.334 101 -155.001l134 -55l69 -34c147.333 -78.667 214.666 -196.667 201.999 -354zM441.001 697.003c-38 -36.667 -62.333 -83.668 -73 -141.001c-8 -48.667 1.66699 -89.167 29 -121.5s87 -64.833 179 -97.5l43 -17
c44 40.667 70.667 87.667 80 141c8 45.333 -3.5 85.333 -34.5 120s-90.167 67.334 -177.5 98.001z" />
    <glyph glyph-name="dieresis" unicode="&#xa8;" horiz-adv-x="940" 
d="M210 1361c0 35.333 12.832 66 38.499 92s57.834 39.667 96.501 41c38.667 0 71 -12.333 97 -37s39 -54 39 -88c0 -37.333 -13 -68.333 -39 -93s-57.667 -37.667 -95 -39c-38 0 -70.333 12.167 -97 36.5s-40 53.5 -40 87.5zM684.999 1361c0 37.333 13 68.333 39 93
s57.667 37.667 95 39c39.333 0 71.833 -12.167 97.5 -36.5s38.5 -53.5 38.5 -87.5c0 -37.333 -13 -68.333 -39 -93s-57.667 -37.667 -95 -39c-39.333 0 -71.833 12.167 -97.5 36.5s-38.5 53.5 -38.5 87.5z" />
    <glyph glyph-name="copyright" unicode="&#xa9;" horiz-adv-x="1568" 
d="M1090 596c-8 -101.333 -43.001 -179.667 -105.001 -235s-143.333 -81.666 -244 -78.999c-98 2.66699 -174.167 40.334 -228.5 113.001s-77.166 164 -68.499 274l10 101c12.667 125.333 53.667 224.666 123 297.999s156.333 109.333 261 108
c98.667 -2.66699 174 -32 226 -88s76.667 -132 74 -228l-152 1c3.33301 60 -7 104.833 -31 134.5s-63 45.167 -117 46.5c-60 1.33301 -110.333 -20.667 -151 -66s-66.167 -107 -76.5 -185s-15.833 -131 -16.5 -159l1 -48c3.33301 -50 17.333 -89.833 42 -119.5
s59 -45.5 103 -47.5c112 -4.66699 178.333 54.666 199 177.999zM230.999 570.999c12.667 -136 61.833 -247.502 147.5 -334.502s191.167 -131.167 316.5 -132.5c122.667 -2.66699 238.667 32.333 348 105s194.833 171.334 256.5 296.001s86.5 252 74.5 382
c-12.667 134.667 -61 244.834 -145 330.501s-190 130.167 -318 133.5c-123.333 2.66699 -239.833 -32.333 -349.5 -105s-195.167 -171 -256.5 -295s-86 -250.667 -74 -380zM113.998 721.997c14.667 132 59 256.832 133 374.499s169.333 211 286 280
s240.667 102.167 372 99.5c118.667 -1.33301 225.667 -34.833 321 -100.5s167 -156.5 215 -272.5s65 -238.667 51 -368c-15.333 -136 -60.5 -262.667 -135.5 -380s-170.833 -209.833 -287.5 -277.5s-239 -100.167 -367 -97.5c-124 2.66699 -233 37.334 -327 104.001
s-164.5 157.667 -211.5 273s-63.5 237 -49.5 365z" />
    <glyph glyph-name="ordfeminine" unicode="&#xaa;" horiz-adv-x="791" 
d="M532 702l-0.999023 33v33c-48.667 -51.333 -102.334 -77 -161.001 -77c-59.333 0 -105.833 20.667 -139.5 62s-49.167 94 -46.5 158c2 76 30.167 135 84.5 177s128.166 63 221.499 63l78 -1l12 54l5 38c2.66699 56 -15.666 84.667 -54.999 86
c-56 1.33301 -92 -31.667 -108 -99l-165 14c5.33301 70.667 32.833 127.667 82.5 171s112.167 64.333 187.5 63c71.333 -1.33301 126.5 -26.833 165.5 -76.5s55.5 -116.5 49.5 -200.5l-54 -355l-3 -50c-1.33301 -30 0 -60.667 4 -92zM410.001 833
c31.333 0 71.333 18.665 120 55.998l34 146l-66 -1c-44.667 -3.33301 -79.5 -15.666 -104.5 -36.999s-39.833 -48.666 -44.5 -81.999c-7.33301 -52 13 -79.333 61 -82z" />
    <glyph glyph-name="guillemotleft" unicode="&#xab;" horiz-adv-x="902" 
d="M265 509l114 -385h-157l-166 389l1 19l288 391h185zM596 509l114 -385h-157l-166 389l1 19l288 391h185z" />
    <glyph glyph-name="logicalnot" unicode="&#xac;" horiz-adv-x="973" 
d="M772 374h-188l45 260h-502l31 171h689z" />
    <glyph glyph-name="uni00AD" unicode="&#xad;" horiz-adv-x="732" 
d="M578 506h-476l42 236h476z" />
    <glyph glyph-name="registered" unicode="&#xae;" horiz-adv-x="1568" 
d="M114 722c14.667 132 59 256.832 133 374.499s169.333 211 286 280s240.667 102.167 372 99.5c118.667 -1.33301 225.667 -34.833 321 -100.5s167 -156.5 215 -272.5s65 -238.667 51 -368c-15.333 -136 -60.5 -262.667 -135.5 -380s-170.833 -209.833 -287.5 -277.5
s-239 -100.167 -367 -97.5c-124 2.66699 -233 37.334 -327 104.001s-164.5 157.667 -211.5 273s-63.5 237 -49.5 365zM231 570.999c12.667 -134.667 61 -245.332 145 -331.999s190.333 -131.667 319 -135c105.333 -2.66699 207.5 23.833 306.5 79.5
s181.5 133.167 247.5 232.5s106.667 206 122 320c14 106 3.5 206.667 -31.5 302s-89.833 170.666 -164.5 225.999s-162.667 84.333 -264 87c-123.333 2.66699 -239.833 -32.333 -349.5 -105s-195.167 -171 -256.5 -295s-86 -250.667 -74 -380zM653 653.001l-53.002 -337.001
h-148l133 850l259 -1c95.333 -3.33301 168 -28 218 -74s72.667 -106.333 68 -181c-4 -73.333 -49 -135.333 -135 -186c44.667 -32 69 -82 73 -150c0.666992 -20 -1.16602 -50.167 -5.49902 -90.5s-6.16602 -69.833 -5.49902 -88.5l4 -62l-1 -18h-148
c-4 24.667 -5.33301 49 -4 73l13 128c4 42 -1.16699 74.333 -15.5 97s-43.5 35.334 -87.5 38.001zM672.998 787l119.002 -0.998047c54.667 2 99.167 13.667 133.5 35s54.833 50.666 61.5 87.999c7.33301 39.333 1.16602 69.166 -18.501 89.499s-58.834 31.5 -117.501 33.5
l-139 1z" />
    <glyph glyph-name="macron" unicode="&#xaf;" horiz-adv-x="920" 
d="M852 1287h-584l27 168h584z" />
    <glyph glyph-name="degree" unicode="&#xb0;" horiz-adv-x="782" 
d="M229 1191c1.33301 74.667 30 141.331 86 199.998s122.667 87.334 200 86.001c67.333 -1.33301 124.166 -27.833 170.499 -79.5s68.833 -114.5 67.5 -188.5c-2.66699 -79.333 -31.667 -146.666 -87 -201.999s-120 -82.333 -194 -81c-70 1.33301 -128.667 28.333 -176 81
s-69.666 114 -66.999 184zM372 1193c-4 -32 3.5 -59.5 22.5 -82.5s44.167 -34.5 75.5 -34.5c34.667 0 65.667 13.167 93 39.5s43 56.833 47 91.5c4.66699 33.333 -2 62 -20 86s-42 36 -72 36c-34.667 0 -66.667 -13.833 -96 -41.5s-46 -59.167 -50 -94.5z" />
    <glyph glyph-name="plusminus" unicode="&#xb1;" horiz-adv-x="949" 
d="M644 945h252l-38 -243h-252l-57 -364h-242l58 364h-256l39 243h254l54 341h241zM726 1h-711l38 238h711z" />
    <glyph glyph-name="uni00B2" unicode="&#xb2;" horiz-adv-x="676" 
d="M603 667h-519l26 149l265 248l30 32c52.667 56 79 108.667 79 158c0 34.667 -13.333 52 -40 52c-42.667 0 -71 -37.667 -85 -113l-194 -1c5.33301 80 33.333 146.167 84 198.5s113.667 78.5 189 78.5c76 0 136.333 -21.833 181 -65.5s65 -102.5 61 -176.5
c-4 -78.667 -45.333 -154 -124 -226l-97 -84l-83 -85h256z" />
    <glyph glyph-name="uni00B3" unicode="&#xb3;" horiz-adv-x="676" 
d="M329 1138l70.998 -0.000976562c54.667 4 87 35.333 97 94c3.33301 18 1.5 34.167 -5.5 48.5s-20.833 21.5 -41.5 21.5c-32 0 -57 -19.667 -75 -59l-198 -1c6.66699 71.333 34.334 127.333 83.001 168s108.667 60.334 180 59.001c77.333 -1.33301 139 -22.166 185 -62.499
s67.667 -92.833 65 -157.5c-3.33301 -77.333 -49.666 -138.333 -138.999 -183c66.667 -28.667 98.334 -85.334 95.001 -170.001c-2.66699 -72.667 -32.167 -131.167 -88.5 -175.5s-126.5 -65.833 -210.5 -64.5c-72.667 1.33301 -131.167 24.166 -175.5 68.499
s-66.5 104.5 -66.5 180.5l190 -1c3.33301 -54.667 25.666 -82 66.999 -82c26.667 0 48.5 9.33301 65.5 28s27.5 40.334 31.5 65.001c8.66699 54 -11.333 82.333 -60 85h-82z" />
    <glyph glyph-name="acute" unicode="&#xb4;" horiz-adv-x="670" 
d="M427 1536h326l-319 -310h-246z" />
    <glyph glyph-name="uni00B5" unicode="&#xb5;" horiz-adv-x="1101" 
d="M486 1082l-101.003 -622.001l-10 -95c-3.33301 -97.333 25.334 -147 86.001 -149c58.667 -1.33301 110.334 27.334 155.001 86.001l135 780h278l-188 -1082h-246l7 52c-58.667 -49.333 -116 -74 -172 -74c-41.333 0 -81.666 12 -120.999 36l-83 -430h-275l260 1498h275z
" />
    <glyph glyph-name="paragraph" unicode="&#xb6;" horiz-adv-x="875" 
d="M438 0l98 521.999h-54c-75.333 1.33301 -139.333 21.5 -192 60.5s-91.334 93.833 -116.001 164.5s-33 148.334 -25 233.001c8.66699 92 33.834 174.667 75.501 248s96.167 129.833 163.5 169.5s143.333 59.5 228 59.5l282 -1l-253 -1456h-207z" />
    <glyph glyph-name="periodcentered" unicode="&#xb7;" horiz-adv-x="576" 
d="M144 690c0 47.333 14.667 86.332 44 116.999s65.333 46 108 46c42.667 1.33301 78.5 -12.667 107.5 -42s43.5 -65.666 43.5 -108.999c0 -46 -14.5 -84.5 -43.5 -115.5s-65.167 -46.5 -108.5 -46.5c-42.667 -1.33301 -78.5 12.5 -107.5 41.5s-43.5 65.167 -43.5 108.5z
" />
    <glyph glyph-name="cedilla" unicode="&#xb8;" horiz-adv-x="506" 
d="M215 7l-18.001 -61.001c62.667 -18.667 94 -73 94 -163c-2 -76 -31.333 -135.333 -88 -178s-138 -65.667 -244 -69l12 168c51.333 8 81 38 89 90c4.66699 36.667 -12.666 58.334 -51.999 65.001l-40 5l41 142z" />
    <glyph glyph-name="uni00B9" unicode="&#xb9;" horiz-adv-x="676" 
d="M478 667h-193l94 542l-151 -40l30 168l326 116h23z" />
    <glyph glyph-name="ordmasculine" unicode="&#xba;" horiz-adv-x="816" 
d="M533 1477c84.667 -2.66699 149.666 -37.335 194.999 -104.002s64 -150.667 56 -252l-5 -57c-10.667 -116 -46.167 -208.167 -106.5 -276.5s-134.833 -101.166 -223.5 -98.499c-85.333 2.66699 -150.666 37.834 -195.999 105.501s-64 150.834 -56 249.501l6 63
c10.667 112.667 46.167 203.167 106.5 271.5s134.833 101.166 223.5 98.499zM360.999 1042l-1.99805 -61.999c0 -43.333 8.5 -78.333 25.5 -105s40.833 -40.334 71.5 -41.001c41.333 -1.33301 75.666 16.667 102.999 54s45.333 89.333 54 156c6 66.667 9 113.667 9 141
c0 44 -8.33301 78.833 -25 104.5s-40 39.167 -70 40.5c-41.333 1.33301 -75.833 -16.5 -103.5 -53.5s-45.834 -88.833 -54.501 -155.5z" />
    <glyph glyph-name="guillemotright" unicode="&#xbb;" horiz-adv-x="903" 
d="M302 923l166 -388l-2 -20l-287 -391h-187l266 413l-115 386h159zM640 923l166 -388l-2 -20l-287 -391h-187l266 413l-115 386h159z" />
    <glyph glyph-name="onequarter" unicode="&#xbc;" horiz-adv-x="1247" 
d="M442 664h-193l94 542l-151 -40l30 168l326 116h23zM329 120l-128 82l769 1126l129 -82zM1043 326l61 1l-21 -168l-62 1l-31 -160h-193l28 159h-269l13 149l358 480l192 2zM760 327h93l44 204l-12 -16z" />
    <glyph glyph-name="onehalf" unicode="&#xbd;" horiz-adv-x="1326" 
d="M295 120l-128 82l769 1126l129 -82zM430 670h-193l94 542l-151 -40l30 168l326 116h23zM1132 0h-519l26 149l265 248l30 32c52.667 56 79 108.667 79 158c0 34.667 -13.333 52 -40 52c-42.667 0 -71 -37.667 -85 -113l-194 -1c5.33301 80 33.333 146.167 84 198.5
s113.667 78.5 189 78.5c76 0 136.333 -21.833 181 -65.5s65 -102.5 61 -176.5c-4 -78.667 -45.333 -154 -124 -226l-97 -84l-83 -85h256z" />
    <glyph glyph-name="threequarters" unicode="&#xbe;" horiz-adv-x="1410" 
d="M461 120l-128 82l769 1126l129 -82zM1176 326l61 1l-21 -168l-62 1l-31 -160h-193l28 159h-269l13 149l358 480l192 2zM893 327h93l44 204l-12 -16zM367 1138l70.998 -0.000976562c54.667 4 87 35.333 97 94c3.33301 18 1.5 34.167 -5.5 48.5s-20.833 21.5 -41.5 21.5
c-32 0 -57 -19.667 -75 -59l-198 -1c6.66699 71.333 34.334 127.333 83.001 168s108.667 60.334 180 59.001c77.333 -1.33301 139 -22.166 185 -62.499s67.667 -92.833 65 -157.5c-3.33301 -77.333 -49.666 -138.333 -138.999 -183
c66.667 -28.667 98.334 -85.334 95.001 -170.001c-2.66699 -72.667 -32.167 -131.167 -88.5 -175.5s-126.5 -65.833 -210.5 -64.5c-72.667 1.33301 -131.167 24.166 -175.5 68.499s-66.5 104.5 -66.5 180.5l190 -1c3.33301 -54.667 25.666 -82 66.999 -82
c26.667 0 48.5 9.33301 65.5 28s27.5 40.334 31.5 65.001c8.66699 54 -11.333 82.333 -60 85h-82z" />
    <glyph glyph-name="questiondown" unicode="&#xbf;" horiz-adv-x="898" 
d="M589 644c-7.33301 -85.333 -23.333 -156.335 -48 -213.002s-63.334 -112 -116.001 -166l-55 -58c-65.333 -70 -102.333 -139.667 -111 -209l-3 -47c0 -66.667 23.667 -100.667 71 -102c69.333 -2 115 55.667 137 173l276 1c-11.333 -126 -55.666 -226.333 -132.999 -301
s-176.666 -110.667 -297.999 -108c-112 2.66699 -197.833 38.834 -257.5 108.501s-84.834 161.834 -75.501 276.501c8.66699 100 58 198.667 148 296l128 127c53.333 56.667 87 130 101 220zM688 952.998c0 -45.333 -14.332 -83.334 -42.999 -114.001
s-64.334 -46 -107.001 -46c-42 -1.33301 -77.667 12.334 -107 41.001s-44 64.667 -44 108c0 46.667 14.667 85.167 44 115.5s65 45.5 107 45.5c42 1.33301 77.5 -12.5 106.5 -41.5s43.5 -65.167 43.5 -108.5z" />
    <glyph glyph-name="Agrave" unicode="&#xc0;" horiz-adv-x="1196" 
d="M738 298h-387l-127 -298h-312l694 1456h263l191 -1456h-297zM456 543h262l-41 516zM892 1536h-217l-220 310h293z" />
    <glyph glyph-name="Aacute" unicode="&#xc1;" horiz-adv-x="1196" 
d="M738 298h-387l-127 -298h-312l694 1456h263l191 -1456h-297zM456 543h262l-41 516zM855 1846h326l-319 -310h-246z" />
    <glyph glyph-name="Acircumflex" unicode="&#xc2;" horiz-adv-x="1196" 
d="M738 298h-387l-127 -298h-312l694 1456h263l191 -1456h-297zM456 543h262l-41 516zM1101 1569v-18l-210 3l-95 143l-147 -142l-216 -3v20l289 274l155 1z" />
    <glyph glyph-name="Atilde" unicode="&#xc3;" horiz-adv-x="1196" 
d="M738 298h-387l-127 -298h-312l694 1456h263l191 -1456h-297zM456 543h262l-41 516zM1112 1832c-5.33301 -79.333 -27.001 -144.331 -65.001 -194.998s-86 -75.334 -144 -74.001c-22 0 -41.667 5 -59 15l-94 58c-22 12 -43.667 17.333 -65 16
c-37.333 -2 -63.666 -34 -78.999 -96l-157 9c5.33301 79.333 27.5 144.666 66.5 195.999s87.167 76.333 144.5 75c28 -0.666992 64.667 -16.167 110 -46.5s82 -44.5 110 -42.5c32 2 55.667 24 71 66l10 30z" />
    <glyph glyph-name="Adieresis" unicode="&#xc4;" horiz-adv-x="1196" 
d="M738 298h-387l-127 -298h-312l694 1456h263l191 -1456h-297zM456 543h262l-41 516zM407 1671c0 35.333 12.832 66 38.499 92s57.834 39.667 96.501 41c38.667 0 71 -12.333 97 -37s39 -54 39 -88c0 -37.333 -13 -68.333 -39 -93s-57.667 -37.667 -95 -39
c-38 0 -70.333 12.167 -97 36.5s-40 53.5 -40 87.5zM881.999 1671c0 37.333 13 68.333 39 93s57.667 37.667 95 39c39.333 0 71.833 -12.167 97.5 -36.5s38.5 -53.5 38.5 -87.5c0 -37.333 -13 -68.333 -39 -93s-57.667 -37.667 -95 -39c-39.333 0 -71.833 12.167 -97.5 36.5
s-38.5 53.5 -38.5 87.5z" />
    <glyph glyph-name="Aring" unicode="&#xc5;" horiz-adv-x="1196" 
d="M738 298h-387l-127 -298h-312l694 1456h263l191 -1456h-297zM456 543h262l-41 516zM576 1723c0 59.333 22.333 109.668 67 151.001s97.667 62 159 62c56.667 0 105.334 -19 146.001 -57s61 -85.333 61 -142c0 -57.333 -21.833 -106.5 -65.5 -147.5
s-97.167 -61.5 -160.5 -61.5c-56.667 0 -105.334 18.667 -146.001 56s-61 83.666 -61 138.999zM689 1724c-3.33301 -27.333 2.33203 -51 16.999 -71s36.334 -30 65.001 -30c30.667 0 58.167 11 82.5 33s38.5 48.667 42.5 80c4 28.667 -1.83301 53 -17.5 73
s-37.167 30 -64.5 30c-29.333 0 -56.5 -11.167 -81.5 -33.5s-39.5 -49.5 -43.5 -81.5z" />
    <glyph glyph-name="AE" unicode="&#xc6;" horiz-adv-x="1634" 
d="M1451 0h-756l47 333h-317l-186 -333h-335l876 1456h873l-42 -238h-470l-49 -352h393l-42 -238h-384l-55 -390h489zM563 582h214l69 505z" />
    <glyph glyph-name="Ccedilla" unicode="&#xc7;" horiz-adv-x="1143" 
d="M1042 486c-18 -158 -76.167 -282.836 -174.5 -374.503s-222.833 -135.5 -373.5 -131.5c-129.333 2.66699 -229.333 45.334 -300 128.001s-108 197.334 -112 344.001c-1.33301 50 1.33398 100.333 8.00098 151l37 241c31.333 206 99.166 363.667 203.499 473
s233.833 162.333 388.5 159c135.333 -2 239.333 -46.833 312 -134.5s109 -214.834 109 -381.501l-289 1l2 99c-2 112 -54.333 169.667 -157 173c-79.333 2.66699 -142 -26.166 -188 -86.499s-77 -158.166 -93 -293.499l-36 -251c-9.33301 -80 -14.333 -132.333 -15 -157
c-6.66699 -144 44 -218.333 152 -223c67.333 -3.33301 121 14.5 161 53.5s68 108.5 84 208.5zM575 5.99707l-18.001 -61.001c62.667 -18.667 94 -73 94 -163c-2 -76 -31.333 -135.333 -88 -178s-138 -65.667 -244 -69l12 168c51.333 8 81 38 89 90
c4.66699 36.667 -12.666 58.334 -51.999 65.001l-40 5l41 142z" />
    <glyph glyph-name="Egrave" unicode="&#xc8;" horiz-adv-x="985" 
d="M849 630h-444l-67 -386h526l-43 -244h-812l252 1456h811l-43 -245h-523l-60 -344h445zM837 1539h-217l-220 310h293z" />
    <glyph glyph-name="Eacute" unicode="&#xc9;" horiz-adv-x="985" 
d="M849 630h-444l-67 -386h526l-43 -244h-812l252 1456h811l-43 -245h-523l-60 -344h445zM800 1849h326l-319 -310h-246z" />
    <glyph glyph-name="Ecircumflex" unicode="&#xca;" horiz-adv-x="985" 
d="M849 630h-444l-67 -386h526l-43 -244h-812l252 1456h811l-43 -245h-523l-60 -344h445zM1046 1572v-18l-210 3l-95 143l-147 -142l-216 -3v20l289 274l155 1z" />
    <glyph glyph-name="Edieresis" unicode="&#xcb;" horiz-adv-x="985" 
d="M849 630h-444l-67 -386h526l-43 -244h-812l252 1456h811l-43 -245h-523l-60 -344h445zM352 1674c0 35.333 12.832 66 38.499 92s57.834 39.667 96.501 41c38.667 0 71 -12.333 97 -37s39 -54 39 -88c0 -37.333 -13 -68.333 -39 -93s-57.667 -37.667 -95 -39
c-38 0 -70.333 12.167 -97 36.5s-40 53.5 -40 87.5zM826.999 1674c0 37.333 13 68.333 39 93s57.667 37.667 95 39c39.333 0 71.833 -12.167 97.5 -36.5s38.5 -53.5 38.5 -87.5c0 -37.333 -13 -68.333 -39 -93s-57.667 -37.667 -95 -39c-39.333 0 -71.833 12.167 -97.5 36.5
s-38.5 53.5 -38.5 87.5z" />
    <glyph glyph-name="Igrave" unicode="&#xcc;" horiz-adv-x="547" 
d="M308 0h-287l253 1456h287zM565 1539h-217l-220 310h293z" />
    <glyph glyph-name="Iacute" unicode="&#xcd;" horiz-adv-x="547" 
d="M308 0h-287l253 1456h287zM527 1849h326l-319 -310h-246z" />
    <glyph glyph-name="Icircumflex" unicode="&#xce;" horiz-adv-x="547" 
d="M308 0h-287l253 1456h287zM774 1572v-18l-210 3l-95 143l-147 -142l-216 -3v20l289 274l155 1z" />
    <glyph glyph-name="Idieresis" unicode="&#xcf;" horiz-adv-x="547" 
d="M308 0h-287l253 1456h287zM80 1674c0 35.333 12.832 66 38.499 92s57.834 39.667 96.501 41c38.667 0 71 -12.333 97 -37s39 -54 39 -88c0 -37.333 -13 -68.333 -39 -93s-57.667 -37.667 -95 -39c-38 0 -70.333 12.167 -97 36.5s-40 53.5 -40 87.5zM554.999 1674
c0 37.333 13 68.333 39 93s57.667 37.667 95 39c39.333 0 71.833 -12.167 97.5 -36.5s38.5 -53.5 38.5 -87.5c0 -37.333 -13 -68.333 -39 -93s-57.667 -37.667 -95 -39c-39.333 0 -71.833 12.167 -97.5 36.5s-38.5 53.5 -38.5 87.5z" />
    <glyph glyph-name="Eth" unicode="&#xd0;" horiz-adv-x="1162" 
d="M39 0l110.999 641.001h-152l33 183h150l110 632l359 -1c106 -2.66699 195.5 -30.334 268.5 -83.001s125.333 -125.667 157 -219s40.167 -197.666 25.5 -312.999l-32 -213c-29.333 -196 -100.166 -349.333 -212.499 -460s-253.5 -166.334 -423.5 -167.001h-394z
M588.999 641.001h-152.001l-69 -397l71 -2c99.333 0 176.333 28.833 231 86.5s91.334 150.5 110.001 278.5l34 236c9.33301 76.667 13 132.667 11 168c-3.33301 66.667 -20.333 116 -51 148s-76 49 -136 51l-102 1l-67 -387h152z" />
    <glyph glyph-name="Ntilde" unicode="&#xd1;" horiz-adv-x="1226" 
d="M998 0h-280l-254 965l-168 -965h-287l252 1456h281l255 -966l168 966h286zM1128 1832c-5.33301 -79.333 -27.001 -144.331 -65.001 -194.998s-86 -75.334 -144 -74.001c-22 0 -41.667 5 -59 15l-94 58c-22 12 -43.667 17.333 -65 16c-37.333 -2 -63.666 -34 -78.999 -96
l-157 9c5.33301 79.333 27.5 144.666 66.5 195.999s87.167 76.333 144.5 75c28 -0.666992 64.667 -16.167 110 -46.5s82 -44.5 110 -42.5c32 2 55.667 24 71 66l10 30z" />
    <glyph glyph-name="Ograve" unicode="&#xd2;" horiz-adv-x="1209" 
d="M512 -20c-128 2.66699 -229.5 44.6699 -304.5 126.003s-115.833 194.333 -122.5 339c-2.66699 50 -0.666992 100.667 6 152l37 242c19.333 129.333 57 244 113 344s125.667 174.333 209 223s177.333 72 282 70c129.333 -2.66699 230.833 -46.834 304.5 -132.501
s113.167 -202.834 118.5 -351.501c1.33301 -56 -1.66699 -109 -9 -159l-33 -223c-30 -200 -97.5 -355.833 -202.5 -467.5s-237.833 -165.834 -398.5 -162.501zM859 843.003c8 68.667 12 121.668 12 159.001c-3.33301 148.667 -57 225 -161 229
c-80 3.33301 -144.5 -26.834 -193.5 -90.501s-83.167 -163.5 -102.5 -299.5l-35 -245c-8 -66 -11 -117.667 -9 -155c3.33301 -140 58.333 -212.333 165 -217c76 -2.66699 138.333 25.333 187 84s82.667 154.667 102 288zM896 1536h-217l-220 310h293z" />
    <glyph glyph-name="Oacute" unicode="&#xd3;" horiz-adv-x="1209" 
d="M512 -20c-128 2.66699 -229.5 44.6699 -304.5 126.003s-115.833 194.333 -122.5 339c-2.66699 50 -0.666992 100.667 6 152l37 242c19.333 129.333 57 244 113 344s125.667 174.333 209 223s177.333 72 282 70c129.333 -2.66699 230.833 -46.834 304.5 -132.501
s113.167 -202.834 118.5 -351.501c1.33301 -56 -1.66699 -109 -9 -159l-33 -223c-30 -200 -97.5 -355.833 -202.5 -467.5s-237.833 -165.834 -398.5 -162.501zM859 843.003c8 68.667 12 121.668 12 159.001c-3.33301 148.667 -57 225 -161 229
c-80 3.33301 -144.5 -26.834 -193.5 -90.501s-83.167 -163.5 -102.5 -299.5l-35 -245c-8 -66 -11 -117.667 -9 -155c3.33301 -140 58.333 -212.333 165 -217c76 -2.66699 138.333 25.333 187 84s82.667 154.667 102 288zM859 1846h326l-319 -310h-246z" />
    <glyph glyph-name="Ocircumflex" unicode="&#xd4;" horiz-adv-x="1209" 
d="M512 -20c-128 2.66699 -229.5 44.6699 -304.5 126.003s-115.833 194.333 -122.5 339c-2.66699 50 -0.666992 100.667 6 152l37 242c19.333 129.333 57 244 113 344s125.667 174.333 209 223s177.333 72 282 70c129.333 -2.66699 230.833 -46.834 304.5 -132.501
s113.167 -202.834 118.5 -351.501c1.33301 -56 -1.66699 -109 -9 -159l-33 -223c-30 -200 -97.5 -355.833 -202.5 -467.5s-237.833 -165.834 -398.5 -162.501zM859 843.003c8 68.667 12 121.668 12 159.001c-3.33301 148.667 -57 225 -161 229
c-80 3.33301 -144.5 -26.834 -193.5 -90.501s-83.167 -163.5 -102.5 -299.5l-35 -245c-8 -66 -11 -117.667 -9 -155c3.33301 -140 58.333 -212.333 165 -217c76 -2.66699 138.333 25.333 187 84s82.667 154.667 102 288zM1105 1569v-18l-210 3l-95 143l-147 -142l-216 -3v20
l289 274l155 1z" />
    <glyph glyph-name="Otilde" unicode="&#xd5;" horiz-adv-x="1209" 
d="M512 -20c-128 2.66699 -229.5 44.6699 -304.5 126.003s-115.833 194.333 -122.5 339c-2.66699 50 -0.666992 100.667 6 152l37 242c19.333 129.333 57 244 113 344s125.667 174.333 209 223s177.333 72 282 70c129.333 -2.66699 230.833 -46.834 304.5 -132.501
s113.167 -202.834 118.5 -351.501c1.33301 -56 -1.66699 -109 -9 -159l-33 -223c-30 -200 -97.5 -355.833 -202.5 -467.5s-237.833 -165.834 -398.5 -162.501zM859 843.003c8 68.667 12 121.668 12 159.001c-3.33301 148.667 -57 225 -161 229
c-80 3.33301 -144.5 -26.834 -193.5 -90.501s-83.167 -163.5 -102.5 -299.5l-35 -245c-8 -66 -11 -117.667 -9 -155c3.33301 -140 58.333 -212.333 165 -217c76 -2.66699 138.333 25.333 187 84s82.667 154.667 102 288zM1116 1832
c-5.33301 -79.333 -27.001 -144.331 -65.001 -194.998s-86 -75.334 -144 -74.001c-22 0 -41.667 5 -59 15l-94 58c-22 12 -43.667 17.333 -65 16c-37.333 -2 -63.666 -34 -78.999 -96l-157 9c5.33301 79.333 27.5 144.666 66.5 195.999s87.167 76.333 144.5 75
c28 -0.666992 64.667 -16.167 110 -46.5s82 -44.5 110 -42.5c32 2 55.667 24 71 66l10 30z" />
    <glyph glyph-name="Odieresis" unicode="&#xd6;" horiz-adv-x="1209" 
d="M512 -20c-128 2.66699 -229.5 44.6699 -304.5 126.003s-115.833 194.333 -122.5 339c-2.66699 50 -0.666992 100.667 6 152l37 242c19.333 129.333 57 244 113 344s125.667 174.333 209 223s177.333 72 282 70c129.333 -2.66699 230.833 -46.834 304.5 -132.501
s113.167 -202.834 118.5 -351.501c1.33301 -56 -1.66699 -109 -9 -159l-33 -223c-30 -200 -97.5 -355.833 -202.5 -467.5s-237.833 -165.834 -398.5 -162.501zM859 843.003c8 68.667 12 121.668 12 159.001c-3.33301 148.667 -57 225 -161 229
c-80 3.33301 -144.5 -26.834 -193.5 -90.501s-83.167 -163.5 -102.5 -299.5l-35 -245c-8 -66 -11 -117.667 -9 -155c3.33301 -140 58.333 -212.333 165 -217c76 -2.66699 138.333 25.333 187 84s82.667 154.667 102 288zM411 1671c0 35.333 12.832 66 38.499 92
s57.834 39.667 96.501 41c38.667 0 71 -12.333 97 -37s39 -54 39 -88c0 -37.333 -13 -68.333 -39 -93s-57.667 -37.667 -95 -39c-38 0 -70.333 12.167 -97 36.5s-40 53.5 -40 87.5zM885.999 1671c0 37.333 13 68.333 39 93s57.667 37.667 95 39
c39.333 0 71.833 -12.167 97.5 -36.5s38.5 -53.5 38.5 -87.5c0 -37.333 -13 -68.333 -39 -93s-57.667 -37.667 -95 -39c-39.333 0 -71.833 12.167 -97.5 36.5s-38.5 53.5 -38.5 87.5z" />
    <glyph glyph-name="multiply" unicode="&#xd7;" horiz-adv-x="941" 
d="M27 385l303 310l-197 315l179 159l187 -299l291 298l140 -182l-307 -315l194 -308l-179 -160l-184 294l-285 -292z" />
    <glyph glyph-name="Oslash" unicode="&#xd8;" horiz-adv-x="1206" 
d="M517 -21c-84.667 1.33301 -160.671 23.335 -228.004 66.002l-96 -140l-186 1l169 246c-57.333 116 -83.666 250 -78.999 402l2 40c10.667 185.333 45.334 345 104.001 479s134.5 235.5 227.5 304.5s196.167 102.167 309.5 99.5c88 -2.66699 167 -26.667 237 -72l78 113
l188 -1l-156 -224c38 -84.667 61 -172 69 -262c10.667 -118.667 3.33398 -246.334 -21.999 -383.001s-68 -257.334 -128 -362.001s-131.667 -182.5 -215 -233.5s-174.666 -75.5 -273.999 -73.5zM367.996 458.002l464 713c-28.667 36 -66 55.333 -112 58
c-77.333 4 -142.333 -29.333 -195 -100s-91.667 -184.667 -117 -342c-22.667 -139.333 -36 -249 -40 -329zM887.996 977.002l-457 -703.001c26 -30 61.667 -46.333 107 -49c151.333 -5.33301 252 127.334 302 398.001c20 110 36 228 48 354z" />
    <glyph glyph-name="Ugrave" unicode="&#xd9;" horiz-adv-x="1145" 
d="M1195 1456l-170 -1000c-20.667 -151.333 -77 -269.333 -169 -354s-212.667 -125.667 -362 -123c-140 2.66699 -246 46.667 -318 132s-99.667 200.333 -83 345l170 1000h288l-168 -1001l-4 -86c0 -93.333 46.333 -141.666 139 -144.999c64 -2 114 15 150 51
s59.667 96 71 180l169 1001h287zM857 1536h-217l-220 310h293z" />
    <glyph glyph-name="Uacute" unicode="&#xda;" horiz-adv-x="1145" 
d="M1195 1456l-170 -1000c-20.667 -151.333 -77 -269.333 -169 -354s-212.667 -125.667 -362 -123c-140 2.66699 -246 46.667 -318 132s-99.667 200.333 -83 345l170 1000h288l-168 -1001l-4 -86c0 -93.333 46.333 -141.666 139 -144.999c64 -2 114 15 150 51
s59.667 96 71 180l169 1001h287zM820 1846h326l-319 -310h-246z" />
    <glyph glyph-name="Ucircumflex" unicode="&#xdb;" horiz-adv-x="1145" 
d="M1195 1456l-170 -1000c-20.667 -151.333 -77 -269.333 -169 -354s-212.667 -125.667 -362 -123c-140 2.66699 -246 46.667 -318 132s-99.667 200.333 -83 345l170 1000h288l-168 -1001l-4 -86c0 -93.333 46.333 -141.666 139 -144.999c64 -2 114 15 150 51
s59.667 96 71 180l169 1001h287zM1066 1569v-18l-210 3l-95 143l-147 -142l-216 -3v20l289 274l155 1z" />
    <glyph glyph-name="Udieresis" unicode="&#xdc;" horiz-adv-x="1145" 
d="M1195 1456l-170 -1000c-20.667 -151.333 -77 -269.333 -169 -354s-212.667 -125.667 -362 -123c-140 2.66699 -246 46.667 -318 132s-99.667 200.333 -83 345l170 1000h288l-168 -1001l-4 -86c0 -93.333 46.333 -141.666 139 -144.999c64 -2 114 15 150 51
s59.667 96 71 180l169 1001h287zM372 1671c0 35.333 12.832 66 38.499 92s57.834 39.667 96.501 41c38.667 0 71 -12.333 97 -37s39 -54 39 -88c0 -37.333 -13 -68.333 -39 -93s-57.667 -37.667 -95 -39c-38 0 -70.333 12.167 -97 36.5s-40 53.5 -40 87.5zM846.999 1671
c0 37.333 13 68.333 39 93s57.667 37.667 95 39c39.333 0 71.833 -12.167 97.5 -36.5s38.5 -53.5 38.5 -87.5c0 -37.333 -13 -68.333 -39 -93s-57.667 -37.667 -95 -39c-39.333 0 -71.833 12.167 -97.5 36.5s-38.5 53.5 -38.5 87.5z" />
    <glyph glyph-name="Yacute" unicode="&#xdd;" horiz-adv-x="1088" 
d="M570 805l325 651h323l-548 -942l-89 -514h-291l95 543l-216 913h302zM801 1846h326l-319 -310h-246z" />
    <glyph glyph-name="Thorn" unicode="&#xde;" horiz-adv-x="1069" 
d="M541 1456l-46.998 -267l141 -1c129.333 -4 229.166 -46.5 299.499 -127.5s100.166 -185.833 89.499 -314.5c-12 -139.333 -65 -251 -159 -335s-212.667 -126 -356 -126l-171 1l-50 -286h-276l252 1456h277zM463.002 961l-84.9971 -439.999l143 -2
c73.333 1.33301 131.666 30.833 174.999 88.5s61.666 127.5 54.999 209.5c-3.33301 39.333 -15.833 71.166 -37.5 95.499s-51.834 37.833 -90.501 40.5l-156 3z" />
    <glyph glyph-name="germandbls" unicode="&#xdf;" horiz-adv-x="1121" 
d="M296 0l-275.995 0.00195312l188 1101c19.333 145.333 70.833 259 154.5 341s189.5 121.333 317.5 118c103.333 -2.66699 183.833 -37.667 241.5 -105s82.5 -153.666 74.5 -258.999c-2.66699 -28.667 -8.33398 -55.667 -17.001 -81s-26.834 -65 -54.501 -119
s-45 -90.833 -52 -110.5s-12.5 -40.5 -16.5 -62.5c-10 -54.667 11.167 -126.834 63.5 -216.501s80.166 -159.167 83.499 -208.5v-34c-8 -121.333 -50.333 -216.5 -127 -285.5s-175.334 -102.167 -296.001 -99.5c-92 1.33301 -168 21 -228 59l76 229
c51.333 -38 106 -55.667 164 -53c35.333 1.33301 65.333 14.166 90 38.499s41 59.5 49 105.5c4.66699 31.333 1.66699 63.166 -9 95.499s-31.5 72.833 -62.5 121.5s-53 91.334 -66 128.001s-17.833 72 -14.5 106c2.66699 36 12.334 72.667 29.001 110l76 158
c25.333 54.667 36 106.334 32 155.001c-4.66699 61.333 -33 93.666 -85 96.999c-38.667 2 -70.834 -14.833 -96.501 -50.5s-43.834 -95.834 -54.501 -180.501z" />
    <glyph glyph-name="agrave" unicode="&#xe0;" horiz-adv-x="945" 
d="M510 0c-5.33301 22.667 -8.00098 50.667 -8.00098 84c-61.333 -70 -131.333 -105 -210 -105c-83.333 1.33301 -150.166 32 -200.499 92s-73.5 134.667 -69.5 224c6 114.667 50.667 204.5 134 269.5s195.333 97.5 336 97.5h81l13 88l3 45c0 58 -23.333 87 -70 87
c-64.667 2 -104 -39.333 -118 -124l-275 -2c6 102.667 48.667 186.5 128 251.5s176 96.833 290 95.5c107.333 -2.66699 189.5 -36.5 246.5 -101.5s80.167 -150.833 69.5 -257.5l-88 -550l-4 -53c-2.66699 -46.667 2 -87.667 14 -123l-1 -18h-271zM367.999 200
c48.667 -1.33301 94.001 20 136.001 64l49 229h-60c-53.333 -2.66699 -96.333 -20.667 -129 -54s-52.334 -75.333 -59.001 -126l-1 -38c0 -21.333 5.5 -39 16.5 -53s26.833 -21.333 47.5 -22zM707 1226h-217l-220 310h293z" />
    <glyph glyph-name="aacute" unicode="&#xe1;" horiz-adv-x="945" 
d="M510 0c-5.33301 22.667 -8.00098 50.667 -8.00098 84c-61.333 -70 -131.333 -105 -210 -105c-83.333 1.33301 -150.166 32 -200.499 92s-73.5 134.667 -69.5 224c6 114.667 50.667 204.5 134 269.5s195.333 97.5 336 97.5h81l13 88l3 45c0 58 -23.333 87 -70 87
c-64.667 2 -104 -39.333 -118 -124l-275 -2c6 102.667 48.667 186.5 128 251.5s176 96.833 290 95.5c107.333 -2.66699 189.5 -36.5 246.5 -101.5s80.167 -150.833 69.5 -257.5l-88 -550l-4 -53c-2.66699 -46.667 2 -87.667 14 -123l-1 -18h-271zM367.999 200
c48.667 -1.33301 94.001 20 136.001 64l49 229h-60c-53.333 -2.66699 -96.333 -20.667 -129 -54s-52.334 -75.333 -59.001 -126l-1 -38c0 -21.333 5.5 -39 16.5 -53s26.833 -21.333 47.5 -22zM670 1536h326l-319 -310h-246z" />
    <glyph glyph-name="acircumflex" unicode="&#xe2;" horiz-adv-x="945" 
d="M510 0c-5.33301 22.667 -8.00098 50.667 -8.00098 84c-61.333 -70 -131.333 -105 -210 -105c-83.333 1.33301 -150.166 32 -200.499 92s-73.5 134.667 -69.5 224c6 114.667 50.667 204.5 134 269.5s195.333 97.5 336 97.5h81l13 88l3 45c0 58 -23.333 87 -70 87
c-64.667 2 -104 -39.333 -118 -124l-275 -2c6 102.667 48.667 186.5 128 251.5s176 96.833 290 95.5c107.333 -2.66699 189.5 -36.5 246.5 -101.5s80.167 -150.833 69.5 -257.5l-88 -550l-4 -53c-2.66699 -46.667 2 -87.667 14 -123l-1 -18h-271zM367.999 200
c48.667 -1.33301 94.001 20 136.001 64l49 229h-60c-53.333 -2.66699 -96.333 -20.667 -129 -54s-52.334 -75.333 -59.001 -126l-1 -38c0 -21.333 5.5 -39 16.5 -53s26.833 -21.333 47.5 -22zM916 1259v-18l-210 3l-95 143l-147 -142l-216 -3v20l289 274l155 1z" />
    <glyph glyph-name="atilde" unicode="&#xe3;" horiz-adv-x="945" 
d="M510 0c-5.33301 22.667 -8.00098 50.667 -8.00098 84c-61.333 -70 -131.333 -105 -210 -105c-83.333 1.33301 -150.166 32 -200.499 92s-73.5 134.667 -69.5 224c6 114.667 50.667 204.5 134 269.5s195.333 97.5 336 97.5h81l13 88l3 45c0 58 -23.333 87 -70 87
c-64.667 2 -104 -39.333 -118 -124l-275 -2c6 102.667 48.667 186.5 128 251.5s176 96.833 290 95.5c107.333 -2.66699 189.5 -36.5 246.5 -101.5s80.167 -150.833 69.5 -257.5l-88 -550l-4 -53c-2.66699 -46.667 2 -87.667 14 -123l-1 -18h-271zM367.999 200
c48.667 -1.33301 94.001 20 136.001 64l49 229h-60c-53.333 -2.66699 -96.333 -20.667 -129 -54s-52.334 -75.333 -59.001 -126l-1 -38c0 -21.333 5.5 -39 16.5 -53s26.833 -21.333 47.5 -22zM927 1523c-5.33301 -79.333 -27.001 -144.331 -65.001 -194.998
s-86 -75.334 -144 -74.001c-22 0 -41.667 5 -59 15l-94 58c-22 12 -43.667 17.333 -65 16c-37.333 -2 -63.666 -34 -78.999 -96l-157 9c5.33301 79.333 27.5 144.666 66.5 195.999s87.167 76.333 144.5 75c28 -0.666992 64.667 -16.167 110 -46.5s82 -44.5 110 -42.5
c32 2 55.667 24 71 66l10 30z" />
    <glyph glyph-name="adieresis" unicode="&#xe4;" horiz-adv-x="945" 
d="M510 0c-5.33301 22.667 -8.00098 50.667 -8.00098 84c-61.333 -70 -131.333 -105 -210 -105c-83.333 1.33301 -150.166 32 -200.499 92s-73.5 134.667 -69.5 224c6 114.667 50.667 204.5 134 269.5s195.333 97.5 336 97.5h81l13 88l3 45c0 58 -23.333 87 -70 87
c-64.667 2 -104 -39.333 -118 -124l-275 -2c6 102.667 48.667 186.5 128 251.5s176 96.833 290 95.5c107.333 -2.66699 189.5 -36.5 246.5 -101.5s80.167 -150.833 69.5 -257.5l-88 -550l-4 -53c-2.66699 -46.667 2 -87.667 14 -123l-1 -18h-271zM367.999 200
c48.667 -1.33301 94.001 20 136.001 64l49 229h-60c-53.333 -2.66699 -96.333 -20.667 -129 -54s-52.334 -75.333 -59.001 -126l-1 -38c0 -21.333 5.5 -39 16.5 -53s26.833 -21.333 47.5 -22zM222 1361c0 35.333 12.832 66 38.499 92s57.834 39.667 96.501 41
c38.667 0 71 -12.333 97 -37s39 -54 39 -88c0 -37.333 -13 -68.333 -39 -93s-57.667 -37.667 -95 -39c-38 0 -70.333 12.167 -97 36.5s-40 53.5 -40 87.5zM696.999 1361c0 37.333 13 68.333 39 93s57.667 37.667 95 39c39.333 0 71.833 -12.167 97.5 -36.5
s38.5 -53.5 38.5 -87.5c0 -37.333 -13 -68.333 -39 -93s-57.667 -37.667 -95 -39c-39.333 0 -71.833 12.167 -97.5 36.5s-38.5 53.5 -38.5 87.5z" />
    <glyph glyph-name="aring" unicode="&#xe5;" horiz-adv-x="945" 
d="M510 0c-5.33301 22.667 -8.00098 50.667 -8.00098 84c-61.333 -70 -131.333 -105 -210 -105c-83.333 1.33301 -150.166 32 -200.499 92s-73.5 134.667 -69.5 224c6 114.667 50.667 204.5 134 269.5s195.333 97.5 336 97.5h81l13 88l3 45c0 58 -23.333 87 -70 87
c-64.667 2 -104 -39.333 -118 -124l-275 -2c6 102.667 48.667 186.5 128 251.5s176 96.833 290 95.5c107.333 -2.66699 189.5 -36.5 246.5 -101.5s80.167 -150.833 69.5 -257.5l-88 -550l-4 -53c-2.66699 -46.667 2 -87.667 14 -123l-1 -18h-271zM367.999 200
c48.667 -1.33301 94.001 20 136.001 64l49 229h-60c-53.333 -2.66699 -96.333 -20.667 -129 -54s-52.334 -75.333 -59.001 -126l-1 -38c0 -21.333 5.5 -39 16.5 -53s26.833 -21.333 47.5 -22zM391 1413c0 59.333 22.333 109.668 67 151.001s97.667 62 159 62
c56.667 0 105.334 -19 146.001 -57s61 -85.333 61 -142c0 -57.333 -21.833 -106.5 -65.5 -147.5s-97.167 -61.5 -160.5 -61.5c-56.667 0 -105.334 18.667 -146.001 56s-61 83.666 -61 138.999zM504 1414c-3.33301 -27.333 2.33203 -51 16.999 -71s36.334 -30 65.001 -30
c30.667 0 58.167 11 82.5 33s38.5 48.667 42.5 80c4 28.667 -1.83301 53 -17.5 73s-37.167 30 -64.5 30c-29.333 0 -56.5 -11.167 -81.5 -33.5s-39.5 -49.5 -43.5 -81.5z" />
    <glyph glyph-name="ae" unicode="&#xe6;" horiz-adv-x="1456" 
d="M945 -20c-133.333 3.33301 -230.997 48.334 -292.997 135.001c-96.667 -92.667 -207.667 -137.667 -333 -135c-94 1.33301 -168.167 32 -222.5 92s-78.833 139.667 -73.5 239c6.66699 107.333 50.334 190.833 131.001 250.5s190 89.5 328 89.5l119 -1l11 57l4 50
c1.33301 32.667 -4.5 59.167 -17.5 79.5s-32.167 30.833 -57.5 31.5c-30.667 1.33301 -57.834 -8.5 -81.501 -29.5s-40.5 -52.167 -50.5 -93.5l-273 18c7.33301 103.333 51.333 186.166 132 248.499s180 92.833 298 91.5c107.333 -1.33301 190.333 -32.666 249 -93.999
c83.333 64 173 94.667 269 92s171.333 -37.334 226 -104.001s84 -157 88 -271c1.33301 -38.667 -0.333984 -76.667 -5.00098 -114l-25 -163h-518c-2.66699 -27.333 -3 -54.333 -1 -81c3.33301 -46.667 17.166 -83.167 41.499 -109.5s57.833 -40.5 100.5 -42.5
c45.333 -1.33301 87.666 5.5 126.999 20.5s78.333 33.167 117 54.5l53 -193c-38 -38 -87.667 -67.167 -149 -87.5s-126 -30.5 -194 -30.5zM386.003 192.001c42 0 92.6689 22.332 152.002 66.999l38 201l-96 1c-48.667 -2.66699 -88.834 -18.167 -120.501 -46.5
s-50.834 -64.166 -57.501 -107.499c-4.66699 -32 -0.5 -59 12.5 -81s36.833 -33.333 71.5 -34zM1056 869c-76 3.33301 -132.333 -51.333 -169 -164l-18 -61l254 -1l11 88c5.33301 88.667 -20.667 134.667 -78 138z" />
    <glyph glyph-name="ccedilla" unicode="&#xe7;" horiz-adv-x="924" 
d="M419 213c76 -2 123.001 51.666 141.001 160.999l259 1c-11.333 -120 -55.666 -216.667 -132.999 -290s-171.666 -108.666 -282.999 -105.999c-100.667 2.66699 -180.834 32.834 -240.501 90.501s-95.167 138.167 -106.5 241.5c-10 84 -5.16699 185.333 14.5 304
s56.167 217.667 109.5 297c87.333 130.667 211.666 194 372.999 190c109.333 -3.33301 192.666 -42.833 249.999 -118.5s83 -177.834 77 -306.501l-260 1l1 62c-2.66699 82.667 -35.334 125.667 -98.001 129c-98 5.33301 -156.333 -70.667 -175 -228l-19 -181
c-8 -54 -10.667 -99 -8 -135c4.66699 -72.667 37.334 -110 98.001 -112zM479.001 5.99902l-18.001 -61.001c62.667 -18.667 94 -73 94 -163c-2 -76 -31.333 -135.333 -88 -178s-138 -65.667 -244 -69l12 168c51.333 8 81 38 89 90
c4.66699 36.667 -12.666 58.334 -51.999 65.001l-40 5l41 142z" />
    <glyph glyph-name="egrave" unicode="&#xe8;" 
d="M441 -20c-87.333 0.666992 -161.497 22.001 -222.497 64.001s-105 100.833 -132 176.5s-35.167 161.834 -24.5 258.501l9 74c22 179.333 76.5 316.5 163.5 411.5s197.833 140.833 332.5 137.5c98.667 -2.66699 176.167 -33.5 232.5 -92.5s89.166 -141.5 98.499 -247.5
c5.33301 -63.333 4 -125.333 -4 -186l-19 -130h-540c-3.33301 -28.667 -4.33301 -56.334 -3 -83.001c4.66699 -96 51.667 -145 141 -147c83.333 -2.66699 164 29 242 95l93 -172c-36.667 -50 -87.834 -89.333 -153.501 -118s-136.834 -42.334 -213.501 -41.001z
M540.003 869.001c-79.333 3.33301 -134.669 -47.333 -166.002 -152l-20 -73l275 -1c6.66699 38.667 10.334 70 11.001 94c2.66699 84.667 -30.666 128.667 -99.999 132zM690 1226h-217l-220 310h293z" />
    <glyph glyph-name="eacute" unicode="&#xe9;" 
d="M441 -20c-87.333 0.666992 -161.497 22.001 -222.497 64.001s-105 100.833 -132 176.5s-35.167 161.834 -24.5 258.501l9 74c22 179.333 76.5 316.5 163.5 411.5s197.833 140.833 332.5 137.5c98.667 -2.66699 176.167 -33.5 232.5 -92.5s89.166 -141.5 98.499 -247.5
c5.33301 -63.333 4 -125.333 -4 -186l-19 -130h-540c-3.33301 -28.667 -4.33301 -56.334 -3 -83.001c4.66699 -96 51.667 -145 141 -147c83.333 -2.66699 164 29 242 95l93 -172c-36.667 -50 -87.834 -89.333 -153.501 -118s-136.834 -42.334 -213.501 -41.001z
M540.003 869.001c-79.333 3.33301 -134.669 -47.333 -166.002 -152l-20 -73l275 -1c6.66699 38.667 10.334 70 11.001 94c2.66699 84.667 -30.666 128.667 -99.999 132zM653 1536h326l-319 -310h-246z" />
    <glyph glyph-name="ecircumflex" unicode="&#xea;" 
d="M441 -20c-87.333 0.666992 -161.497 22.001 -222.497 64.001s-105 100.833 -132 176.5s-35.167 161.834 -24.5 258.501l9 74c22 179.333 76.5 316.5 163.5 411.5s197.833 140.833 332.5 137.5c98.667 -2.66699 176.167 -33.5 232.5 -92.5s89.166 -141.5 98.499 -247.5
c5.33301 -63.333 4 -125.333 -4 -186l-19 -130h-540c-3.33301 -28.667 -4.33301 -56.334 -3 -83.001c4.66699 -96 51.667 -145 141 -147c83.333 -2.66699 164 29 242 95l93 -172c-36.667 -50 -87.834 -89.333 -153.501 -118s-136.834 -42.334 -213.501 -41.001z
M540.003 869.001c-79.333 3.33301 -134.669 -47.333 -166.002 -152l-20 -73l275 -1c6.66699 38.667 10.334 70 11.001 94c2.66699 84.667 -30.666 128.667 -99.999 132zM899 1259v-18l-210 3l-95 143l-147 -142l-216 -3v20l289 274l155 1z" />
    <glyph glyph-name="edieresis" unicode="&#xeb;" 
d="M441 -20c-87.333 0.666992 -161.497 22.001 -222.497 64.001s-105 100.833 -132 176.5s-35.167 161.834 -24.5 258.501l9 74c22 179.333 76.5 316.5 163.5 411.5s197.833 140.833 332.5 137.5c98.667 -2.66699 176.167 -33.5 232.5 -92.5s89.166 -141.5 98.499 -247.5
c5.33301 -63.333 4 -125.333 -4 -186l-19 -130h-540c-3.33301 -28.667 -4.33301 -56.334 -3 -83.001c4.66699 -96 51.667 -145 141 -147c83.333 -2.66699 164 29 242 95l93 -172c-36.667 -50 -87.834 -89.333 -153.501 -118s-136.834 -42.334 -213.501 -41.001z
M540.003 869.001c-79.333 3.33301 -134.669 -47.333 -166.002 -152l-20 -73l275 -1c6.66699 38.667 10.334 70 11.001 94c2.66699 84.667 -30.666 128.667 -99.999 132zM206 1361c0 35.333 12.832 66 38.499 92s57.834 39.667 96.501 41c38.667 0 71 -12.333 97 -37
s39 -54 39 -88c0 -37.333 -13 -68.333 -39 -93s-57.667 -37.667 -95 -39c-38 0 -70.333 12.167 -97 36.5s-40 53.5 -40 87.5zM680.999 1361c0 37.333 13 68.333 39 93s57.667 37.667 95 39c39.333 0 71.833 -12.167 97.5 -36.5s38.5 -53.5 38.5 -87.5
c0 -37.333 -13 -68.333 -39 -93s-57.667 -37.667 -95 -39c-39.333 0 -71.833 12.167 -97.5 36.5s-38.5 53.5 -38.5 87.5z" />
    <glyph glyph-name="igrave" unicode="&#xec;" horiz-adv-x="531" 
d="M292 0h-276l187 1082h277zM501 1211h-217l-220 310h293z" />
    <glyph glyph-name="iacute" unicode="&#xed;" horiz-adv-x="531" 
d="M292 0h-276l187 1082h277zM463 1521h326l-319 -310h-246z" />
    <glyph glyph-name="icircumflex" unicode="&#xee;" horiz-adv-x="531" 
d="M292 0h-276l187 1082h277zM710 1244v-18l-210 3l-95 143l-147 -142l-216 -3v20l289 274l155 1z" />
    <glyph glyph-name="idieresis" unicode="&#xef;" horiz-adv-x="531" 
d="M292 0h-276l187 1082h277zM16 1346c0 35.333 12.832 66 38.499 92s57.834 39.667 96.501 41c38.667 0 71 -12.333 97 -37s39 -54 39 -88c0 -37.333 -13 -68.333 -39 -93s-57.667 -37.667 -95 -39c-38 0 -70.333 12.167 -97 36.5s-40 53.5 -40 87.5zM490.999 1346
c0 37.333 13 68.333 39 93s57.667 37.667 95 39c39.333 0 71.833 -12.167 97.5 -36.5s38.5 -53.5 38.5 -87.5c0 -37.333 -13 -68.333 -39 -93s-57.667 -37.667 -95 -39c-39.333 0 -71.833 12.167 -97.5 36.5s-38.5 53.5 -38.5 87.5z" />
    <glyph glyph-name="eth" unicode="&#xf0;" horiz-adv-x="1008" 
d="M843 1305c51.333 -104.667 85.1699 -210.668 101.503 -318.001s17.166 -218.666 2.49902 -333.999l-6 -50c-22.667 -184.667 -81.667 -335.667 -177 -453s-212 -174.333 -350 -171c-117.333 3.33301 -208.333 51 -273 143s-91 204.667 -79 338
c10 103.333 35.5 194.5 76.5 273.5s92.667 138 155 177s131.166 57.5 206.499 55.5c65.333 -2.66699 124.666 -23.334 177.999 -62.001c-4 86 -26.333 166.667 -67 242l-168 -116l-56 127l137 88c-42 42 -104.667 79 -188 111l110 223
c124.667 -37.333 226.667 -95.666 306 -174.999l162 107l53 -129zM676.004 674.999c-28 46.667 -70.999 70.6631 -128.999 71.9961c-66 1.33301 -117.833 -32.167 -155.5 -100.5s-55.834 -154.166 -54.501 -257.499c0 -51.333 9.33301 -93.166 28 -125.499
s45 -49.166 79 -50.499c108 -5.33301 179 101.334 213 320.001l17 120z" />
    <glyph glyph-name="ntilde" unicode="&#xf1;" horiz-adv-x="988" 
d="M434 1083l-20.001 -108.999c76 88.667 160.333 131.667 253 129c76 -1.33301 133.833 -29.833 173.5 -85.5s59.167 -134.834 58.5 -237.501l-6 -92l-115 -688h-277l114 690l5 59c2.66699 78 -26.666 117 -87.999 117c-28.667 0 -53 -7.83301 -73 -23.5
s-38.667 -34.167 -56 -55.5l-137 -787h-278l188 1082zM950.999 1523c-5.33301 -79.333 -27.001 -144.331 -65.001 -194.998s-86 -75.334 -144 -74.001c-22 0 -41.667 5 -59 15l-94 58c-22 12 -43.667 17.333 -65 16c-37.333 -2 -63.666 -34 -78.999 -96l-157 9
c5.33301 79.333 27.5 144.666 66.5 195.999s87.167 76.333 144.5 75c28 -0.666992 64.667 -16.167 110 -46.5s82 -44.5 110 -42.5c32 2 55.667 24 71 66l10 30z" />
    <glyph glyph-name="ograve" unicode="&#xf2;" horiz-adv-x="998" 
d="M565 1102c109.333 -2.66699 194.669 -39.668 256.002 -111.001s95 -167 101 -287v-71c-8.66699 -209.333 -58.834 -371.5 -150.501 -486.5s-211.167 -170.5 -358.5 -166.5c-86 2 -157 25.167 -213 69.5s-96.167 105.833 -120.5 184.5s-31.166 169 -20.499 271l6 54
c19.333 170 73.666 303.833 162.999 401.5s201.666 144.834 336.999 141.501zM331.003 391.999c0 -115.333 35.333 -175.002 106 -179.002c96 -5.33301 158.333 68 187 220l11 72c9.33301 96 14 157.667 14 185c0 114.667 -36.333 174.334 -109 179.001
c-52.667 2.66699 -96 -21.666 -130 -72.999s-55.667 -125.5 -65 -222.5s-14 -157.5 -14 -181.5zM721.003 1226h-217l-220 310h293z" />
    <glyph glyph-name="oacute" unicode="&#xf3;" horiz-adv-x="998" 
d="M565 1102c109.333 -2.66699 194.669 -39.668 256.002 -111.001s95 -167 101 -287v-71c-8.66699 -209.333 -58.834 -371.5 -150.501 -486.5s-211.167 -170.5 -358.5 -166.5c-86 2 -157 25.167 -213 69.5s-96.167 105.833 -120.5 184.5s-31.166 169 -20.499 271l6 54
c19.333 170 73.666 303.833 162.999 401.5s201.666 144.834 336.999 141.501zM331.003 391.999c0 -115.333 35.333 -175.002 106 -179.002c96 -5.33301 158.333 68 187 220l11 72c9.33301 96 14 157.667 14 185c0 114.667 -36.333 174.334 -109 179.001
c-52.667 2.66699 -96 -21.666 -130 -72.999s-55.667 -125.5 -65 -222.5s-14 -157.5 -14 -181.5zM684.003 1536h326l-319 -310h-246z" />
    <glyph glyph-name="ocircumflex" unicode="&#xf4;" horiz-adv-x="998" 
d="M565 1102c109.333 -2.66699 194.669 -39.668 256.002 -111.001s95 -167 101 -287v-71c-8.66699 -209.333 -58.834 -371.5 -150.501 -486.5s-211.167 -170.5 -358.5 -166.5c-86 2 -157 25.167 -213 69.5s-96.167 105.833 -120.5 184.5s-31.166 169 -20.499 271l6 54
c19.333 170 73.666 303.833 162.999 401.5s201.666 144.834 336.999 141.501zM331.003 391.999c0 -115.333 35.333 -175.002 106 -179.002c96 -5.33301 158.333 68 187 220l11 72c9.33301 96 14 157.667 14 185c0 114.667 -36.333 174.334 -109 179.001
c-52.667 2.66699 -96 -21.666 -130 -72.999s-55.667 -125.5 -65 -222.5s-14 -157.5 -14 -181.5zM930.003 1259v-18l-210 3l-95 143l-147 -142l-216 -3v20l289 274l155 1z" />
    <glyph glyph-name="otilde" unicode="&#xf5;" horiz-adv-x="998" 
d="M565 1102c109.333 -2.66699 194.669 -39.668 256.002 -111.001s95 -167 101 -287v-71c-8.66699 -209.333 -58.834 -371.5 -150.501 -486.5s-211.167 -170.5 -358.5 -166.5c-86 2 -157 25.167 -213 69.5s-96.167 105.833 -120.5 184.5s-31.166 169 -20.499 271l6 54
c19.333 170 73.666 303.833 162.999 401.5s201.666 144.834 336.999 141.501zM331.003 391.999c0 -115.333 35.333 -175.002 106 -179.002c96 -5.33301 158.333 68 187 220l11 72c9.33301 96 14 157.667 14 185c0 114.667 -36.333 174.334 -109 179.001
c-52.667 2.66699 -96 -21.666 -130 -72.999s-55.667 -125.5 -65 -222.5s-14 -157.5 -14 -181.5zM941.003 1523c-5.33301 -79.333 -27.001 -144.331 -65.001 -194.998s-86 -75.334 -144 -74.001c-22 0 -41.667 5 -59 15l-94 58c-22 12 -43.667 17.333 -65 16
c-37.333 -2 -63.666 -34 -78.999 -96l-157 9c5.33301 79.333 27.5 144.666 66.5 195.999s87.167 76.333 144.5 75c28 -0.666992 64.667 -16.167 110 -46.5s82 -44.5 110 -42.5c32 2 55.667 24 71 66l10 30z" />
    <glyph glyph-name="odieresis" unicode="&#xf6;" horiz-adv-x="998" 
d="M565 1102c109.333 -2.66699 194.669 -39.668 256.002 -111.001s95 -167 101 -287v-71c-8.66699 -209.333 -58.834 -371.5 -150.501 -486.5s-211.167 -170.5 -358.5 -166.5c-86 2 -157 25.167 -213 69.5s-96.167 105.833 -120.5 184.5s-31.166 169 -20.499 271l6 54
c19.333 170 73.666 303.833 162.999 401.5s201.666 144.834 336.999 141.501zM331.003 391.999c0 -115.333 35.333 -175.002 106 -179.002c96 -5.33301 158.333 68 187 220l11 72c9.33301 96 14 157.667 14 185c0 114.667 -36.333 174.334 -109 179.001
c-52.667 2.66699 -96 -21.666 -130 -72.999s-55.667 -125.5 -65 -222.5s-14 -157.5 -14 -181.5zM236.003 1361c0 35.333 12.832 66 38.499 92s57.834 39.667 96.501 41c38.667 0 71 -12.333 97 -37s39 -54 39 -88c0 -37.333 -13 -68.333 -39 -93s-57.667 -37.667 -95 -39
c-38 0 -70.333 12.167 -97 36.5s-40 53.5 -40 87.5zM711.002 1361c0 37.333 13 68.333 39 93s57.667 37.667 95 39c39.333 0 71.833 -12.167 97.5 -36.5s38.5 -53.5 38.5 -87.5c0 -37.333 -13 -68.333 -39 -93s-57.667 -37.667 -95 -39c-39.333 0 -71.833 12.167 -97.5 36.5
s-38.5 53.5 -38.5 87.5z" />
    <glyph glyph-name="divide" unicode="&#xf7;" horiz-adv-x="1002" 
d="M908 570h-845l41 232h845zM423 1084c0 46.667 14.833 84.667 44.5 114s65.5 44 107.5 44c43.333 1.33301 79.5 -12.334 108.5 -41.001s43.5 -64 43.5 -106c0 -46.667 -14.833 -84.667 -44.5 -114s-65.5 -44 -107.5 -44c-41.333 -1.33301 -77 11.834 -107 39.501
s-45 63.5 -45 107.5zM283 272c0 46 14.333 83.668 43 113.001s64.667 44.666 108 45.999c42 1.33301 77.833 -12 107.5 -40s44.5 -64 44.5 -108c0 -46 -14.5 -83.833 -43.5 -113.5s-65.167 -44.5 -108.5 -44.5c-42.667 -1.33301 -78.5 12 -107.5 40s-43.5 63.667 -43.5 107z
" />
    <glyph glyph-name="oslash" unicode="&#xf8;" horiz-adv-x="996" 
d="M60 545c22 168 76.998 303.666 164.998 406.999s200 154 336 152c50.667 -1.33301 99.334 -10.666 146.001 -27.999l86 140l160 -1l-132 -214c64 -88 95.667 -198.333 95 -331c-0.666992 -32.667 -3.66699 -79 -9 -139
c-22.667 -169.333 -79.167 -304.666 -169.5 -405.999s-201.5 -150.333 -333.5 -147c-45.333 1.33301 -91.666 9.66602 -138.999 24.999l-89 -145l-160 1l133 216c-65.333 87.333 -98 198 -98 332c0 39.333 2.33301 78.333 7 117zM309.998 369.999l281.001 488.002
c-16.667 7.33301 -32.334 11.666 -47.001 12.999c-110 5.33301 -180.667 -102.334 -212 -323.001l-18 -125zM655.999 699.001l-278.997 -478.001c13.333 -5.33301 27.666 -8.66602 42.999 -9.99902c103.333 -2.66699 171.666 87 204.999 269l9 51
c13.333 91.333 20.666 147.333 21.999 168z" />
    <glyph glyph-name="ugrave" unicode="&#xf9;" horiz-adv-x="988" 
d="M540 99c-68 -81.333 -147.33 -121.331 -237.997 -119.998c-70.667 0.666992 -127.334 24.5 -170.001 71.5s-67.334 111.167 -74.001 192.5c-4 47.333 -3.66699 93.666 1 138.999l117 700h276l-117 -704l-3 -49c-2.66699 -33.333 2.16602 -60.333 14.499 -81
s30.833 -31.334 55.5 -32.001c54.667 -2 104.667 25.667 150 83l136 783h279l-188 -1082h-257zM727.003 1226h-217l-220 310h293z" />
    <glyph glyph-name="uacute" unicode="&#xfa;" horiz-adv-x="988" 
d="M540 99c-68 -81.333 -147.33 -121.331 -237.997 -119.998c-70.667 0.666992 -127.334 24.5 -170.001 71.5s-67.334 111.167 -74.001 192.5c-4 47.333 -3.66699 93.666 1 138.999l117 700h276l-117 -704l-3 -49c-2.66699 -33.333 2.16602 -60.333 14.499 -81
s30.833 -31.334 55.5 -32.001c54.667 -2 104.667 25.667 150 83l136 783h279l-188 -1082h-257zM690.003 1536h326l-319 -310h-246z" />
    <glyph glyph-name="ucircumflex" unicode="&#xfb;" horiz-adv-x="988" 
d="M540 99c-68 -81.333 -147.33 -121.331 -237.997 -119.998c-70.667 0.666992 -127.334 24.5 -170.001 71.5s-67.334 111.167 -74.001 192.5c-4 47.333 -3.66699 93.666 1 138.999l117 700h276l-117 -704l-3 -49c-2.66699 -33.333 2.16602 -60.333 14.499 -81
s30.833 -31.334 55.5 -32.001c54.667 -2 104.667 25.667 150 83l136 783h279l-188 -1082h-257zM936.003 1259v-18l-210 3l-95 143l-147 -142l-216 -3v20l289 274l155 1z" />
    <glyph glyph-name="udieresis" unicode="&#xfc;" horiz-adv-x="988" 
d="M540 99c-68 -81.333 -147.33 -121.331 -237.997 -119.998c-70.667 0.666992 -127.334 24.5 -170.001 71.5s-67.334 111.167 -74.001 192.5c-4 47.333 -3.66699 93.666 1 138.999l117 700h276l-117 -704l-3 -49c-2.66699 -33.333 2.16602 -60.333 14.499 -81
s30.833 -31.334 55.5 -32.001c54.667 -2 104.667 25.667 150 83l136 783h279l-188 -1082h-257zM242.003 1361c0 35.333 12.832 66 38.499 92s57.834 39.667 96.501 41c38.667 0 71 -12.333 97 -37s39 -54 39 -88c0 -37.333 -13 -68.333 -39 -93s-57.667 -37.667 -95 -39
c-38 0 -70.333 12.167 -97 36.5s-40 53.5 -40 87.5zM717.002 1361c0 37.333 13 68.333 39 93s57.667 37.667 95 39c39.333 0 71.833 -12.167 97.5 -36.5s38.5 -53.5 38.5 -87.5c0 -37.333 -13 -68.333 -39 -93s-57.667 -37.667 -95 -39c-39.333 0 -71.833 12.167 -97.5 36.5
s-38.5 53.5 -38.5 87.5z" />
    <glyph glyph-name="yacute" unicode="&#xfd;" horiz-adv-x="897" 
d="M411 476l245.002 605.999h302l-558 -1245c-40.667 -97.333 -88 -167.833 -142 -211.5s-116.333 -65.5 -187 -65.5c-28.667 0 -69.334 7 -122.001 21l24 221l30 -2c75.333 -1.33301 130.666 32.334 165.999 101.001l46 103l-112 1078h289zM650.002 1536h326l-319 -310
h-246z" />
    <glyph glyph-name="thorn" unicode="&#xfe;" horiz-adv-x="1001" 
d="M909 538c-14.667 -117.333 -41.835 -219.668 -81.502 -307.001s-88.167 -151.666 -145.5 -192.999s-122 -61 -194 -59c-79.333 2 -143.666 33.667 -192.999 95l-94 -490h-276l339 1952h276l-102 -524c61.333 61.333 128.333 91.333 201 90
c88.667 -1.33301 156.834 -36.833 204.501 -106.5s72.5 -169.5 74.5 -299.5v-26c-0.666992 -40 -3 -77 -7 -111zM643.999 672.998c4 126.667 -28.666 190.999 -97.999 192.999c-50.667 1.33301 -96.334 -26.667 -137.001 -84l-84 -488
c18.667 -51.333 54.667 -77.666 108 -78.999c109.333 -2.66699 176 104.333 200 321z" />
    <glyph glyph-name="ydieresis" unicode="&#xff;" horiz-adv-x="897" 
d="M411 476l245.002 605.999h302l-558 -1245c-40.667 -97.333 -88 -167.833 -142 -211.5s-116.333 -65.5 -187 -65.5c-28.667 0 -69.334 7 -122.001 21l24 221l30 -2c75.333 -1.33301 130.666 32.334 165.999 101.001l46 103l-112 1078h289zM203.002 1361
c0 35.333 12.832 66 38.499 92s57.834 39.667 96.501 41c38.667 0 71 -12.333 97 -37s39 -54 39 -88c0 -37.333 -13 -68.333 -39 -93s-57.667 -37.667 -95 -39c-38 0 -70.333 12.167 -97 36.5s-40 53.5 -40 87.5zM678.001 1361c0 37.333 13 68.333 39 93
s57.667 37.667 95 39c39.333 0 71.833 -12.167 97.5 -36.5s38.5 -53.5 38.5 -87.5c0 -37.333 -13 -68.333 -39 -93s-57.667 -37.667 -95 -39c-39.333 0 -71.833 12.167 -97.5 36.5s-38.5 53.5 -38.5 87.5z" />
    <glyph glyph-name="Amacron" unicode="&#x100;" horiz-adv-x="1196" 
d="M738 298h-387l-127 -298h-312l694 1456h263l191 -1456h-297zM456 543h262l-41 516zM1060 1595h-584l27 168h584z" />
    <glyph glyph-name="amacron" unicode="&#x101;" horiz-adv-x="945" 
d="M510 0c-5.33301 22.667 -8.00098 50.667 -8.00098 84c-61.333 -70 -131.333 -105 -210 -105c-83.333 1.33301 -150.166 32 -200.499 92s-73.5 134.667 -69.5 224c6 114.667 50.667 204.5 134 269.5s195.333 97.5 336 97.5h81l13 88l3 45c0 58 -23.333 87 -70 87
c-64.667 2 -104 -39.333 -118 -124l-275 -2c6 102.667 48.667 186.5 128 251.5s176 96.833 290 95.5c107.333 -2.66699 189.5 -36.5 246.5 -101.5s80.167 -150.833 69.5 -257.5l-88 -550l-4 -53c-2.66699 -46.667 2 -87.667 14 -123l-1 -18h-271zM367.999 200
c48.667 -1.33301 94.001 20 136.001 64l49 229h-60c-53.333 -2.66699 -96.333 -20.667 -129 -54s-52.334 -75.333 -59.001 -126l-1 -38c0 -21.333 5.5 -39 16.5 -53s26.833 -21.333 47.5 -22zM875 1286h-584l27 168h584z" />
    <glyph glyph-name="Abreve" unicode="&#x102;" horiz-adv-x="1196" 
d="M738 298h-387l-127 -298h-312l694 1456h263l191 -1456h-297zM456 543h262l-41 516zM1135 1839c-5.33301 -92.667 -41.501 -166.332 -108.501 -220.999s-149.167 -80.667 -246.5 -78c-94.667 1.33301 -170.667 29.166 -228 83.499s-86 125.833 -86 214.5l201 -1
c-2.66699 -86 36 -129.667 116 -131c42.667 -0.666992 76.834 10.833 102.501 34.5s42.5 55.5 50.5 95.5z" />
    <glyph glyph-name="abreve" unicode="&#x103;" horiz-adv-x="945" 
d="M510 0c-5.33301 22.667 -8.00098 50.667 -8.00098 84c-61.333 -70 -131.333 -105 -210 -105c-83.333 1.33301 -150.166 32 -200.499 92s-73.5 134.667 -69.5 224c6 114.667 50.667 204.5 134 269.5s195.333 97.5 336 97.5h81l13 88l3 45c0 58 -23.333 87 -70 87
c-64.667 2 -104 -39.333 -118 -124l-275 -2c6 102.667 48.667 186.5 128 251.5s176 96.833 290 95.5c107.333 -2.66699 189.5 -36.5 246.5 -101.5s80.167 -150.833 69.5 -257.5l-88 -550l-4 -53c-2.66699 -46.667 2 -87.667 14 -123l-1 -18h-271zM367.999 200
c48.667 -1.33301 94.001 20 136.001 64l49 229h-60c-53.333 -2.66699 -96.333 -20.667 -129 -54s-52.334 -75.333 -59.001 -126l-1 -38c0 -21.333 5.5 -39 16.5 -53s26.833 -21.333 47.5 -22zM950 1529c-5.33301 -92.667 -41.501 -166.332 -108.501 -220.999
s-149.167 -80.667 -246.5 -78c-94.667 1.33301 -170.667 29.166 -228 83.499s-86 125.833 -86 214.5l201 -1c-2.66699 -86 36 -129.667 116 -131c42.667 -0.666992 76.834 10.833 102.501 34.5s42.5 55.5 50.5 95.5z" />
    <glyph glyph-name="Aogonek" unicode="&#x104;" horiz-adv-x="1196" 
d="M981 0l-57.9971 -46.001c-54 -45.333 -83 -90.333 -87 -135c-1.33301 -13.333 -0.5 -26 2.5 -38s12.5 -18.333 28.5 -19c12 -0.666992 33 5.33301 63 18l15 -160c-38 -27.333 -83 -41 -135 -41c-54.667 0 -98.834 18.833 -132.501 56.5s-49.834 85.834 -48.501 144.501
c1.33301 92.667 45.666 170.667 132.999 234l-24 284h-387l-127 -298h-312l694 1456h263l191 -1456h-79zM456.003 542.999h262l-41 516z" />
    <glyph glyph-name="aogonek" unicode="&#x105;" horiz-adv-x="945" 
d="M727 0l-57.999 -46.002c-54 -45.333 -83 -90.333 -87 -135c-1.33301 -13.333 -0.5 -26 2.5 -38s12.5 -18.333 28.5 -19c12 -0.666992 33 5.33301 63 18l15 -160c-38 -27.333 -83 -41 -135 -41c-54.667 0 -98.834 18.833 -132.501 56.5s-49.834 85.834 -48.501 144.501
c1.33301 94 45.333 171.667 132 233c-3.33301 18.667 -5 42.334 -5 71.001c-61.333 -70 -131.333 -105 -210 -105c-83.333 1.33301 -150.166 32 -200.499 92s-73.5 134.667 -69.5 224c6 114.667 50.667 204.5 134 269.5s195.333 97.5 336 97.5h81l13 88l3 45
c0 58 -23.333 87 -70 87c-64.667 2 -104 -39.333 -118 -124l-275 -2c6 102.667 48.667 186.5 128 251.5s176 96.833 290 95.5c107.333 -2.66699 189.5 -36.5 246.5 -101.5s80.167 -150.833 69.5 -257.5l-88 -550l-4 -53c-2.66699 -46.667 2 -87.667 14 -123l-1 -18h-54z
M368.001 199.998c48.667 -1.33301 94.001 20 136.001 64l49 229h-60c-53.333 -2.66699 -96.333 -20.667 -129 -54s-52.334 -75.333 -59.001 -126l-1 -38c0 -21.333 5.5 -39 16.5 -53s26.833 -21.333 47.5 -22z" />
    <glyph glyph-name="Cacute" unicode="&#x106;" horiz-adv-x="1143" 
d="M1042 486c-18 -158 -76.167 -282.836 -174.5 -374.503s-222.833 -135.5 -373.5 -131.5c-129.333 2.66699 -229.333 45.334 -300 128.001s-108 197.334 -112 344.001c-1.33301 50 1.33398 100.333 8.00098 151l37 241c31.333 206 99.166 363.667 203.499 473
s233.833 162.333 388.5 159c135.333 -2 239.333 -46.833 312 -134.5s109 -214.834 109 -381.501l-289 1l2 99c-2 112 -54.333 169.667 -157 173c-79.333 2.66699 -142 -26.166 -188 -86.499s-77 -158.166 -93 -293.499l-36 -251c-9.33301 -80 -14.333 -132.333 -15 -157
c-6.66699 -144 44 -218.333 152 -223c67.333 -3.33301 121 14.5 161 53.5s68 108.5 84 208.5zM843 1854h326l-319 -310h-246z" />
    <glyph glyph-name="cacute" unicode="&#x107;" horiz-adv-x="924" 
d="M419 213c76 -2 123.001 51.666 141.001 160.999l259 1c-11.333 -120 -55.666 -216.667 -132.999 -290s-171.666 -108.666 -282.999 -105.999c-100.667 2.66699 -180.834 32.834 -240.501 90.501s-95.167 138.167 -106.5 241.5c-10 84 -5.16699 185.333 14.5 304
s56.167 217.667 109.5 297c87.333 130.667 211.666 194 372.999 190c109.333 -3.33301 192.666 -42.833 249.999 -118.5s83 -177.834 77 -306.501l-260 1l1 62c-2.66699 82.667 -35.334 125.667 -98.001 129c-98 5.33301 -156.333 -70.667 -175 -228l-19 -181
c-8 -54 -10.667 -99 -8 -135c4.66699 -72.667 37.334 -110 98.001 -112zM647.001 1536h326l-319 -310h-246z" />
    <glyph glyph-name="Ccircumflex" unicode="&#x108;" horiz-adv-x="1143" 
d="M1042 486c-18 -158 -76.167 -282.836 -174.5 -374.503s-222.833 -135.5 -373.5 -131.5c-129.333 2.66699 -229.333 45.334 -300 128.001s-108 197.334 -112 344.001c-1.33301 50 1.33398 100.333 8.00098 151l37 241c31.333 206 99.166 363.667 203.499 473
s233.833 162.333 388.5 159c135.333 -2 239.333 -46.833 312 -134.5s109 -214.834 109 -381.501l-289 1l2 99c-2 112 -54.333 169.667 -157 173c-79.333 2.66699 -142 -26.166 -188 -86.499s-77 -158.166 -93 -293.499l-36 -251c-9.33301 -80 -14.333 -132.333 -15 -157
c-6.66699 -144 44 -218.333 152 -223c67.333 -3.33301 121 14.5 161 53.5s68 108.5 84 208.5zM1089 1577v-18l-210 3l-95 143l-147 -142l-216 -3v20l289 274l155 1z" />
    <glyph glyph-name="ccircumflex" unicode="&#x109;" horiz-adv-x="924" 
d="M419 213c76 -2 123.001 51.666 141.001 160.999l259 1c-11.333 -120 -55.666 -216.667 -132.999 -290s-171.666 -108.666 -282.999 -105.999c-100.667 2.66699 -180.834 32.834 -240.501 90.501s-95.167 138.167 -106.5 241.5c-10 84 -5.16699 185.333 14.5 304
s56.167 217.667 109.5 297c87.333 130.667 211.666 194 372.999 190c109.333 -3.33301 192.666 -42.833 249.999 -118.5s83 -177.834 77 -306.501l-260 1l1 62c-2.66699 82.667 -35.334 125.667 -98.001 129c-98 5.33301 -156.333 -70.667 -175 -228l-19 -181
c-8 -54 -10.667 -99 -8 -135c4.66699 -72.667 37.334 -110 98.001 -112zM894.001 1259v-18l-210 3l-95 143l-147 -142l-216 -3v20l289 274l155 1z" />
    <glyph glyph-name="Cdotaccent" unicode="&#x10a;" horiz-adv-x="1143" 
d="M1042 486c-18 -158 -76.167 -282.836 -174.5 -374.503s-222.833 -135.5 -373.5 -131.5c-129.333 2.66699 -229.333 45.334 -300 128.001s-108 197.334 -112 344.001c-1.33301 50 1.33398 100.333 8.00098 151l37 241c31.333 206 99.166 363.667 203.499 473
s233.833 162.333 388.5 159c135.333 -2 239.333 -46.833 312 -134.5s109 -214.834 109 -381.501l-289 1l2 99c-2 112 -54.333 169.667 -157 173c-79.333 2.66699 -142 -26.166 -188 -86.499s-77 -158.166 -93 -293.499l-36 -251c-9.33301 -80 -14.333 -132.333 -15 -157
c-6.66699 -144 44 -218.333 152 -223c67.333 -3.33301 121 14.5 161 53.5s68 108.5 84 208.5zM631 1705c-1.33301 40.667 12.001 74.834 40.001 102.501s62.667 41.5 104 41.5c40.667 1.33301 75 -11 103 -37s42 -58.333 42 -97c1.33301 -40 -11.834 -73.667 -39.501 -101
s-62.5 -41 -104.5 -41c-42.667 0 -77.5 12.667 -104.5 38s-40.5 56.666 -40.5 93.999z" />
    <glyph glyph-name="cdotaccent" unicode="&#x10b;" horiz-adv-x="924" 
d="M419 213c76 -2 123.001 51.666 141.001 160.999l259 1c-11.333 -120 -55.666 -216.667 -132.999 -290s-171.666 -108.666 -282.999 -105.999c-100.667 2.66699 -180.834 32.834 -240.501 90.501s-95.167 138.167 -106.5 241.5c-10 84 -5.16699 185.333 14.5 304
s56.167 217.667 109.5 297c87.333 130.667 211.666 194 372.999 190c109.333 -3.33301 192.666 -42.833 249.999 -118.5s83 -177.834 77 -306.501l-260 1l1 62c-2.66699 82.667 -35.334 125.667 -98.001 129c-98 5.33301 -156.333 -70.667 -175 -228l-19 -181
c-8 -54 -10.667 -99 -8 -135c4.66699 -72.667 37.334 -110 98.001 -112zM435.001 1387c-1.33301 40.667 12.001 74.834 40.001 102.501s62.667 41.5 104 41.5c40.667 1.33301 75 -11 103 -37s42 -58.333 42 -97c1.33301 -40 -11.834 -73.667 -39.501 -101
s-62.5 -41 -104.5 -41c-42.667 0 -77.5 12.667 -104.5 38s-40.5 56.666 -40.5 93.999z" />
    <glyph glyph-name="Ccaron" unicode="&#x10c;" horiz-adv-x="1143" 
d="M1042 486c-18 -158 -76.167 -282.836 -174.5 -374.503s-222.833 -135.5 -373.5 -131.5c-129.333 2.66699 -229.333 45.334 -300 128.001s-108 197.334 -112 344.001c-1.33301 50 1.33398 100.333 8.00098 151l37 241c31.333 206 99.166 363.667 203.499 473
s233.833 162.333 388.5 159c135.333 -2 239.333 -46.833 312 -134.5s109 -214.834 109 -381.501l-289 1l2 99c-2 112 -54.333 169.667 -157 173c-79.333 2.66699 -142 -26.166 -188 -86.499s-77 -158.166 -93 -293.499l-36 -251c-9.33301 -80 -14.333 -132.333 -15 -157
c-6.66699 -144 44 -218.333 152 -223c67.333 -3.33301 121 14.5 161 53.5s68 108.5 84 208.5zM766 1715l137 139l239 4l1 -17l-298 -278h-171l-223 280v16l228 -4z" />
    <glyph glyph-name="ccaron" unicode="&#x10d;" horiz-adv-x="924" 
d="M419 213c76 -2 123.001 51.666 141.001 160.999l259 1c-11.333 -120 -55.666 -216.667 -132.999 -290s-171.666 -108.666 -282.999 -105.999c-100.667 2.66699 -180.834 32.834 -240.501 90.501s-95.167 138.167 -106.5 241.5c-10 84 -5.16699 185.333 14.5 304
s56.167 217.667 109.5 297c87.333 130.667 211.666 194 372.999 190c109.333 -3.33301 192.666 -42.833 249.999 -118.5s83 -177.834 77 -306.501l-260 1l1 62c-2.66699 82.667 -35.334 125.667 -98.001 129c-98 5.33301 -156.333 -70.667 -175 -228l-19 -181
c-8 -54 -10.667 -99 -8 -135c4.66699 -72.667 37.334 -110 98.001 -112zM570.001 1397l137 139l239 4l1 -17l-298 -278h-171l-223 280v16l228 -4z" />
    <glyph glyph-name="Dcaron" unicode="&#x10e;" horiz-adv-x="1132" 
d="M9 0l251.999 1456l359 -1c106 -2.66699 195.5 -30.334 268.5 -83.001s125.333 -125.667 157 -219s40.167 -197.666 25.5 -312.999l-32 -213c-29.333 -196 -100.166 -349.333 -212.499 -460s-253.5 -166.334 -423.5 -167.001h-394zM505.999 1211l-168.001 -967l71 -2
c99.333 0 176.333 28.833 231 86.5s91.334 150.5 110.001 278.5l34 236c9.33301 76.667 13 132.667 11 168c-3.33301 66.667 -20.333 116 -51 148s-76 49 -136 51zM619.998 1710l137 139l239 4l1 -17l-298 -278h-171l-223 280v16l228 -4z" />
    <glyph glyph-name="dcaron" unicode="&#x10f;" horiz-adv-x="1145" 
d="M475 1103c79.333 -2.66699 143.666 -39.667 192.999 -111l102 544h278l-266 -1536h-248l15 110c-69.333 -88 -145.666 -132 -228.999 -132c-92.667 1.33301 -162.5 37 -209.5 107s-69.5 170.667 -67.5 302l3 64c15.333 220 58.833 384.5 130.5 493.5
s171.167 161.833 298.5 158.5zM318 391c-3.33301 -58 3.50195 -101.833 20.502 -131.5s43.167 -44.5 78.5 -44.5c47.333 -1.33301 92.666 23.667 135.999 75l87 497c-24.667 50.667 -60.334 77 -107.001 79c-98.667 5.33301 -160.667 -66 -186 -214l-11 -76zM1176 1112
l-132 80.999c52 84.667 85.667 163.334 101 236.001l20 108h192l-5 -53c-14 -142 -72.667 -266 -176 -372z" />
    <glyph glyph-name="Dcroat" unicode="&#x110;" horiz-adv-x="1162" 
d="M39 0l110.999 641.001h-152l33 183h150l110 632l359 -1c106 -2.66699 195.5 -30.334 268.5 -83.001s125.333 -125.667 157 -219s40.167 -197.666 25.5 -312.999l-32 -213c-29.333 -196 -100.166 -349.333 -212.499 -460s-253.5 -166.334 -423.5 -167.001h-394z
M588.999 641.001h-152.001l-69 -397l71 -2c99.333 0 176.333 28.833 231 86.5s91.334 150.5 110.001 278.5l34 236c9.33301 76.667 13 132.667 11 168c-3.33301 66.667 -20.333 116 -51 148s-76 49 -136 51l-102 1l-67 -387h152z" />
    <glyph glyph-name="dcroat" unicode="&#x111;" horiz-adv-x="1128" 
d="M1117 1218l-127 0.00292969l-211 -1218h-246l12 96c-68 -79.333 -142 -118.333 -222 -117c-84 1.33301 -149.5 34.666 -196.5 99.999s-74.167 159.333 -81.5 282l-1 56c0 116.667 18.833 232.167 56.5 346.5s88.5 200.166 152.5 257.499s139 84.666 225 81.999
c74.667 -2.66699 137.667 -35 189 -97l45 212h-186l32 183h185l24 135h278l-24 -135h128zM318 408.003c-4 -126.667 28.333 -190.999 97 -192.999c48.667 -2 94.667 27 138 87l81 471c-9.33301 25.333 -21.833 46.666 -37.5 63.999s-38.5 26.666 -68.5 27.999
c-112 2.66699 -178.667 -111.666 -200 -342.999z" />
    <glyph glyph-name="Emacron" unicode="&#x112;" horiz-adv-x="985" 
d="M849 630h-444l-67 -386h526l-43 -244h-812l252 1456h811l-43 -245h-523l-60 -344h445zM1005 1598h-584l27 168h584z" />
    <glyph glyph-name="emacron" unicode="&#x113;" 
d="M441 -20c-87.333 0.666992 -161.497 22.001 -222.497 64.001s-105 100.833 -132 176.5s-35.167 161.834 -24.5 258.501l9 74c22 179.333 76.5 316.5 163.5 411.5s197.833 140.833 332.5 137.5c98.667 -2.66699 176.167 -33.5 232.5 -92.5s89.166 -141.5 98.499 -247.5
c5.33301 -63.333 4 -125.333 -4 -186l-19 -130h-540c-3.33301 -28.667 -4.33301 -56.334 -3 -83.001c4.66699 -96 51.667 -145 141 -147c83.333 -2.66699 164 29 242 95l93 -172c-36.667 -50 -87.834 -89.333 -153.501 -118s-136.834 -42.334 -213.501 -41.001z
M540.003 869.001c-79.333 3.33301 -134.669 -47.333 -166.002 -152l-20 -73l275 -1c6.66699 38.667 10.334 70 11.001 94c2.66699 84.667 -30.666 128.667 -99.999 132zM858 1286h-584l27 168h584z" />
    <glyph glyph-name="Ebreve" unicode="&#x114;" horiz-adv-x="985" 
d="M849 630h-444l-67 -386h526l-43 -244h-812l252 1456h811l-43 -245h-523l-60 -344h445zM1080 1842c-5.33301 -92.667 -41.501 -166.332 -108.501 -220.999s-149.167 -80.667 -246.5 -78c-94.667 1.33301 -170.667 29.166 -228 83.499s-86 125.833 -86 214.5l201 -1
c-2.66699 -86 36 -129.667 116 -131c42.667 -0.666992 76.834 10.833 102.501 34.5s42.5 55.5 50.5 95.5z" />
    <glyph glyph-name="ebreve" unicode="&#x115;" 
d="M441 -20c-87.333 0.666992 -161.497 22.001 -222.497 64.001s-105 100.833 -132 176.5s-35.167 161.834 -24.5 258.501l9 74c22 179.333 76.5 316.5 163.5 411.5s197.833 140.833 332.5 137.5c98.667 -2.66699 176.167 -33.5 232.5 -92.5s89.166 -141.5 98.499 -247.5
c5.33301 -63.333 4 -125.333 -4 -186l-19 -130h-540c-3.33301 -28.667 -4.33301 -56.334 -3 -83.001c4.66699 -96 51.667 -145 141 -147c83.333 -2.66699 164 29 242 95l93 -172c-36.667 -50 -87.834 -89.333 -153.501 -118s-136.834 -42.334 -213.501 -41.001z
M540.003 869.001c-79.333 3.33301 -134.669 -47.333 -166.002 -152l-20 -73l275 -1c6.66699 38.667 10.334 70 11.001 94c2.66699 84.667 -30.666 128.667 -99.999 132zM933 1529c-5.33301 -92.667 -41.501 -166.332 -108.501 -220.999s-149.167 -80.667 -246.5 -78
c-94.667 1.33301 -170.667 29.166 -228 83.499s-86 125.833 -86 214.5l201 -1c-2.66699 -86 36 -129.667 116 -131c42.667 -0.666992 76.834 10.833 102.501 34.5s42.5 55.5 50.5 95.5z" />
    <glyph glyph-name="Edotaccent" unicode="&#x116;" horiz-adv-x="985" 
d="M849 630h-444l-67 -386h526l-43 -244h-812l252 1456h811l-43 -245h-523l-60 -344h445zM588 1700c-1.33301 40.667 12.001 74.834 40.001 102.501s62.667 41.5 104 41.5c40.667 1.33301 75 -11 103 -37s42 -58.333 42 -97c1.33301 -40 -11.834 -73.667 -39.501 -101
s-62.5 -41 -104.5 -41c-42.667 0 -77.5 12.667 -104.5 38s-40.5 56.666 -40.5 93.999z" />
    <glyph glyph-name="edotaccent" unicode="&#x117;" 
d="M441 -20c-87.333 0.666992 -161.497 22.001 -222.497 64.001s-105 100.833 -132 176.5s-35.167 161.834 -24.5 258.501l9 74c22 179.333 76.5 316.5 163.5 411.5s197.833 140.833 332.5 137.5c98.667 -2.66699 176.167 -33.5 232.5 -92.5s89.166 -141.5 98.499 -247.5
c5.33301 -63.333 4 -125.333 -4 -186l-19 -130h-540c-3.33301 -28.667 -4.33301 -56.334 -3 -83.001c4.66699 -96 51.667 -145 141 -147c83.333 -2.66699 164 29 242 95l93 -172c-36.667 -50 -87.834 -89.333 -153.501 -118s-136.834 -42.334 -213.501 -41.001z
M540.003 869.001c-79.333 3.33301 -134.669 -47.333 -166.002 -152l-20 -73l275 -1c6.66699 38.667 10.334 70 11.001 94c2.66699 84.667 -30.666 128.667 -99.999 132zM441 1387c-1.33301 40.667 12.001 74.834 40.001 102.501s62.667 41.5 104 41.5
c40.667 1.33301 75 -11 103 -37s42 -58.333 42 -97c1.33301 -40 -11.834 -73.667 -39.501 -101s-62.5 -41 -104.5 -41c-42.667 0 -77.5 12.667 -104.5 38s-40.5 56.666 -40.5 93.999z" />
    <glyph glyph-name="Eogonek" unicode="&#x118;" horiz-adv-x="985" 
d="M849 630l-443.998 -0.000976562l-67 -386h526l-43 -244h-141l-58 -46c-54 -45.333 -83 -90.333 -87 -135c-1.33301 -13.333 -0.5 -26 2.5 -38s12.5 -18.333 28.5 -19c12 -0.666992 33 5.33301 63 18l15 -160c-38 -27.333 -83 -41 -135 -41
c-54.667 0 -98.834 18.833 -132.501 56.5s-49.834 85.834 -48.501 144.501c1.33301 88 39.333 161.333 114 220h-433l252 1456h811l-43 -245h-523l-60 -344h445z" />
    <glyph glyph-name="eogonek" unicode="&#x119;" 
d="M814 139c-48 -65.333 -117.665 -111.332 -208.998 -137.999l-33 -27c-43.333 -36.667 -67.666 -77.667 -72.999 -123c-1.33301 -13.333 -0.5 -26 2.5 -38s12.5 -18.333 28.5 -19c12 -0.666992 33 5.33301 63 18l15 -160c-38 -27.333 -83 -41 -135 -41
c-54.667 0 -98.834 18.833 -132.501 56.5s-49.834 85.834 -48.501 144.501c1.33301 68 24 127 68 177c-104 19.333 -182 73.166 -234 161.499s-71.333 197.833 -58 328.5l9 74c22 179.333 76.5 316.5 163.5 411.5s197.833 140.833 332.5 137.5
c98.667 -2.66699 176.167 -33.5 232.5 -92.5s89.166 -141.5 98.499 -247.5c5.33301 -63.333 4 -125.333 -4 -186l-19 -130h-540c-3.33301 -28.667 -4.33301 -56.334 -3 -83.001c4.66699 -96 51.667 -145 141 -147c83.333 -2.66699 164 29 242 95zM546.002 869.001
c-79.333 3.33301 -134.669 -47.333 -166.002 -152l-20 -73l275 -1c6.66699 38.667 10.334 70 11.001 94c2.66699 84.667 -30.666 128.667 -99.999 132z" />
    <glyph glyph-name="Ecaron" unicode="&#x11a;" horiz-adv-x="985" 
d="M849 630h-444l-67 -386h526l-43 -244h-812l252 1456h811l-43 -245h-523l-60 -344h445zM723 1710l137 139l239 4l1 -17l-298 -278h-171l-223 280v16l228 -4z" />
    <glyph glyph-name="ecaron" unicode="&#x11b;" 
d="M441 -20c-87.333 0.666992 -161.497 22.001 -222.497 64.001s-105 100.833 -132 176.5s-35.167 161.834 -24.5 258.501l9 74c22 179.333 76.5 316.5 163.5 411.5s197.833 140.833 332.5 137.5c98.667 -2.66699 176.167 -33.5 232.5 -92.5s89.166 -141.5 98.499 -247.5
c5.33301 -63.333 4 -125.333 -4 -186l-19 -130h-540c-3.33301 -28.667 -4.33301 -56.334 -3 -83.001c4.66699 -96 51.667 -145 141 -147c83.333 -2.66699 164 29 242 95l93 -172c-36.667 -50 -87.834 -89.333 -153.501 -118s-136.834 -42.334 -213.501 -41.001z
M540.003 869.001c-79.333 3.33301 -134.669 -47.333 -166.002 -152l-20 -73l275 -1c6.66699 38.667 10.334 70 11.001 94c2.66699 84.667 -30.666 128.667 -99.999 132zM576 1397l137 139l239 4l1 -17l-298 -278h-171l-223 280v16l228 -4z" />
    <glyph glyph-name="Gcircumflex" unicode="&#x11c;" horiz-adv-x="1172" 
d="M1010 165c-54 -60 -124.33 -106.171 -210.997 -138.504s-179.667 -47.833 -279 -46.5c-87.333 0.666992 -163 19.834 -227 57.501s-113.5 92.334 -148.5 164.001s-53.833 154.167 -56.5 247.5c-2 50.667 0.333008 102.334 7 155.001l36 241
c30.667 202.667 96.667 359.334 198 470.001s233.333 164.334 396 161.001c138.667 -2.66699 243.167 -44.5 313.5 -125.5s106.166 -200.833 107.499 -359.5l-279 1l-3 80c-8.66699 104 -59.667 157.667 -153 161c-138 5.33301 -228.667 -85.667 -272 -273l-15 -75l-40 -281
c-8.66699 -64 -12 -118.667 -10 -164c3.33301 -74.667 20.166 -128.834 50.499 -162.501s73.166 -51.167 128.499 -52.5c52 -1.33301 110 15.667 174 51l51 268h-201l39 222h486zM1092 1577v-18l-210 3l-95 143l-147 -142l-216 -3v20l289 274l155 1z" />
    <glyph glyph-name="gcircumflex" unicode="&#x11d;" horiz-adv-x="1009" 
d="M488 1102c96 -2.66699 165.999 -42.001 209.999 -118.001l34 99l252 -1l-184 -1082c-19.333 -140.667 -73.166 -248 -161.499 -322s-199.5 -109 -333.5 -105c-58.667 1.33301 -116.667 13.333 -174 36s-105.333 54 -144 94l113 194
c55.333 -62.667 124.333 -95.334 207 -98.001c120 -4.66699 193.333 61.333 220 198l20 90c-64.667 -72 -136 -108 -214 -108c-94.667 1.33301 -166.167 37.833 -214.5 109.5s-71.833 170.834 -70.5 297.501c0 78.667 7.83301 162.834 23.5 252.501s38.167 165.5 67.5 227.5
c76 161.333 192.333 240 349 236zM320.999 388.999c0 -113.333 36.332 -171.001 108.999 -173.001c48.667 -1.33301 94.334 19.334 137.001 62.001l93 520c-25.333 43.333 -62 66.333 -110 69c-117.333 6 -188 -88.667 -212 -284c-11.333 -93.333 -17 -158 -17 -194z
M920.998 1259v-18l-210 3l-95 143l-147 -142l-216 -3v20l289 274l155 1z" />
    <glyph glyph-name="Gbreve" unicode="&#x11e;" horiz-adv-x="1172" 
d="M1010 165c-54 -60 -124.33 -106.171 -210.997 -138.504s-179.667 -47.833 -279 -46.5c-87.333 0.666992 -163 19.834 -227 57.501s-113.5 92.334 -148.5 164.001s-53.833 154.167 -56.5 247.5c-2 50.667 0.333008 102.334 7 155.001l36 241
c30.667 202.667 96.667 359.334 198 470.001s233.333 164.334 396 161.001c138.667 -2.66699 243.167 -44.5 313.5 -125.5s106.166 -200.833 107.499 -359.5l-279 1l-3 80c-8.66699 104 -59.667 157.667 -153 161c-138 5.33301 -228.667 -85.667 -272 -273l-15 -75l-40 -281
c-8.66699 -64 -12 -118.667 -10 -164c3.33301 -74.667 20.166 -128.834 50.499 -162.501s73.166 -51.167 128.499 -52.5c52 -1.33301 110 15.667 174 51l51 268h-201l39 222h486zM1126 1847c-5.33301 -92.667 -41.501 -166.332 -108.501 -220.999
s-149.167 -80.667 -246.5 -78c-94.667 1.33301 -170.667 29.166 -228 83.499s-86 125.833 -86 214.5l201 -1c-2.66699 -86 36 -129.667 116 -131c42.667 -0.666992 76.834 10.833 102.501 34.5s42.5 55.5 50.5 95.5z" />
    <glyph glyph-name="gbreve" unicode="&#x11f;" horiz-adv-x="1009" 
d="M488 1102c96 -2.66699 165.999 -42.001 209.999 -118.001l34 99l252 -1l-184 -1082c-19.333 -140.667 -73.166 -248 -161.499 -322s-199.5 -109 -333.5 -105c-58.667 1.33301 -116.667 13.333 -174 36s-105.333 54 -144 94l113 194
c55.333 -62.667 124.333 -95.334 207 -98.001c120 -4.66699 193.333 61.333 220 198l20 90c-64.667 -72 -136 -108 -214 -108c-94.667 1.33301 -166.167 37.833 -214.5 109.5s-71.833 170.834 -70.5 297.501c0 78.667 7.83301 162.834 23.5 252.501s38.167 165.5 67.5 227.5
c76 161.333 192.333 240 349 236zM320.999 388.999c0 -113.333 36.332 -171.001 108.999 -173.001c48.667 -1.33301 94.334 19.334 137.001 62.001l93 520c-25.333 43.333 -62 66.333 -110 69c-117.333 6 -188 -88.667 -212 -284c-11.333 -93.333 -17 -158 -17 -194z
M954.998 1529c-5.33301 -92.667 -41.501 -166.332 -108.501 -220.999s-149.167 -80.667 -246.5 -78c-94.667 1.33301 -170.667 29.166 -228 83.499s-86 125.833 -86 214.5l201 -1c-2.66699 -86 36 -129.667 116 -131c42.667 -0.666992 76.834 10.833 102.501 34.5
s42.5 55.5 50.5 95.5z" />
    <glyph glyph-name="Gdotaccent" unicode="&#x120;" horiz-adv-x="1172" 
d="M1010 165c-54 -60 -124.33 -106.171 -210.997 -138.504s-179.667 -47.833 -279 -46.5c-87.333 0.666992 -163 19.834 -227 57.501s-113.5 92.334 -148.5 164.001s-53.833 154.167 -56.5 247.5c-2 50.667 0.333008 102.334 7 155.001l36 241
c30.667 202.667 96.667 359.334 198 470.001s233.333 164.334 396 161.001c138.667 -2.66699 243.167 -44.5 313.5 -125.5s106.166 -200.833 107.499 -359.5l-279 1l-3 80c-8.66699 104 -59.667 157.667 -153 161c-138 5.33301 -228.667 -85.667 -272 -273l-15 -75l-40 -281
c-8.66699 -64 -12 -118.667 -10 -164c3.33301 -74.667 20.166 -128.834 50.499 -162.501s73.166 -51.167 128.499 -52.5c52 -1.33301 110 15.667 174 51l51 268h-201l39 222h486zM634.003 1705c-1.33301 40.667 12.001 74.834 40.001 102.501s62.667 41.5 104 41.5
c40.667 1.33301 75 -11 103 -37s42 -58.333 42 -97c1.33301 -40 -11.834 -73.667 -39.501 -101s-62.5 -41 -104.5 -41c-42.667 0 -77.5 12.667 -104.5 38s-40.5 56.666 -40.5 93.999z" />
    <glyph glyph-name="gdotaccent" unicode="&#x121;" horiz-adv-x="1009" 
d="M488 1102c96 -2.66699 165.999 -42.001 209.999 -118.001l34 99l252 -1l-184 -1082c-19.333 -140.667 -73.166 -248 -161.499 -322s-199.5 -109 -333.5 -105c-58.667 1.33301 -116.667 13.333 -174 36s-105.333 54 -144 94l113 194
c55.333 -62.667 124.333 -95.334 207 -98.001c120 -4.66699 193.333 61.333 220 198l20 90c-64.667 -72 -136 -108 -214 -108c-94.667 1.33301 -166.167 37.833 -214.5 109.5s-71.833 170.834 -70.5 297.501c0 78.667 7.83301 162.834 23.5 252.501s38.167 165.5 67.5 227.5
c76 161.333 192.333 240 349 236zM320.999 388.999c0 -113.333 36.332 -171.001 108.999 -173.001c48.667 -1.33301 94.334 19.334 137.001 62.001l93 520c-25.333 43.333 -62 66.333 -110 69c-117.333 6 -188 -88.667 -212 -284c-11.333 -93.333 -17 -158 -17 -194z
M462.998 1387c-1.33301 40.667 12.001 74.834 40.001 102.501s62.667 41.5 104 41.5c40.667 1.33301 75 -11 103 -37s42 -58.333 42 -97c1.33301 -40 -11.834 -73.667 -39.501 -101s-62.5 -41 -104.5 -41c-42.667 0 -77.5 12.667 -104.5 38s-40.5 56.666 -40.5 93.999z" />
    <glyph glyph-name="Gcommaaccent" unicode="&#x122;" horiz-adv-x="1172" 
d="M1010 165c-54 -60 -124.33 -106.171 -210.997 -138.504s-179.667 -47.833 -279 -46.5c-87.333 0.666992 -163 19.834 -227 57.501s-113.5 92.334 -148.5 164.001s-53.833 154.167 -56.5 247.5c-2 50.667 0.333008 102.334 7 155.001l36 241
c30.667 202.667 96.667 359.334 198 470.001s233.333 164.334 396 161.001c138.667 -2.66699 243.167 -44.5 313.5 -125.5s106.166 -200.833 107.499 -359.5l-279 1l-3 80c-8.66699 104 -59.667 157.667 -153 161c-138 5.33301 -228.667 -85.667 -272 -273l-15 -75l-40 -281
c-8.66699 -64 -12 -118.667 -10 -164c3.33301 -74.667 20.166 -128.834 50.499 -162.501s73.166 -51.167 128.499 -52.5c52 -1.33301 110 15.667 174 51l51 268h-201l39 222h486zM404.003 -519.004l-132 80.999c52 84.667 85.667 163.334 101 236.001l20 108h192l-5 -53
c-14 -142 -72.667 -266 -176 -372z" />
    <glyph glyph-name="gcommaaccent" unicode="&#x123;" horiz-adv-x="1009" 
d="M488 1102c96 -2.66699 165.999 -42.001 209.999 -118.001l34 99l252 -1l-184 -1082c-19.333 -140.667 -73.166 -248 -161.499 -322s-199.5 -109 -333.5 -105c-58.667 1.33301 -116.667 13.333 -174 36s-105.333 54 -144 94l113 194
c55.333 -62.667 124.333 -95.334 207 -98.001c120 -4.66699 193.333 61.333 220 198l20 90c-64.667 -72 -136 -108 -214 -108c-94.667 1.33301 -166.167 37.833 -214.5 109.5s-71.833 170.834 -70.5 297.501c0 78.667 7.83301 162.834 23.5 252.501s38.167 165.5 67.5 227.5
c76 161.333 192.333 240 349 236zM320.999 388.999c0 -113.333 36.332 -171.001 108.999 -173.001c48.667 -1.33301 94.334 19.334 137.001 62.001l93 520c-25.333 43.333 -62 66.333 -110 69c-117.333 6 -188 -88.667 -212 -284c-11.333 -93.333 -17 -158 -17 -194z
M665.998 1722l140.999 -80c-49.333 -87.333 -81.666 -166.333 -96.999 -237l-27 -146h-211l20 136c22.667 150 80.667 259 174 327z" />
    <glyph glyph-name="Hcircumflex" unicode="&#x124;" horiz-adv-x="1229" 
d="M1001 0h-286l108 623h-419l-108 -623h-287l252 1456h287l-102 -589h419l103 589h286zM1114 1572v-18l-210 3l-95 143l-147 -142l-216 -3v20l289 274l155 1z" />
    <glyph glyph-name="hcircumflex" unicode="&#x125;" horiz-adv-x="988" 
d="M425 986c68.667 79.333 144.333 118.332 227 116.999c79.333 -1.33301 140 -30.666 182 -87.999s63 -137 63 -239l-5 -95l-114 -681h-277l113 684l5 59c2.66699 81.333 -26.333 122 -87 122c-44 1.33301 -86.667 -22 -128 -70l-139 -795h-277l267 1536h276zM972.999 1641
v-18l-210 3l-95 143l-147 -142l-216 -3v20l289 274l155 1z" />
    <glyph glyph-name="Hbar" unicode="&#x126;" horiz-adv-x="1264" 
d="M1228 1223l104 2l-33 -174h-95l-182 -1051h-286l109 623h-419l-108 -623h-287l182 1051h-88l30 174h88l41 231h287l-41 -231h418l41 231l279 1zM468 867h418l33 184h-418z" />
    <glyph glyph-name="hbar" unicode="&#x127;" horiz-adv-x="1018" 
d="M661 1215l-162.001 -0.000976562l-44 -229c68.667 79.333 144.334 118.333 227.001 117c79.333 -1.33301 140 -30.666 182 -87.999s63 -137 63 -239l-5 -95l-114 -681h-277l113 684l5 59c2.66699 81.333 -26.333 122 -87 122c-44 1.33301 -86.667 -22 -128 -70l-139 -795
h-277l211 1215h-159l33 183h158l24 138h276l-27 -138h159z" />
    <glyph glyph-name="Itilde" unicode="&#x128;" horiz-adv-x="547" 
d="M308 0h-287l253 1456h287zM785 1835c-5.33301 -79.333 -27.001 -144.331 -65.001 -194.998s-86 -75.334 -144 -74.001c-22 0 -41.667 5 -59 15l-94 58c-22 12 -43.667 17.333 -65 16c-37.333 -2 -63.666 -34 -78.999 -96l-157 9
c5.33301 79.333 27.5 144.666 66.5 195.999s87.167 76.333 144.5 75c28 -0.666992 64.667 -16.167 110 -46.5s82 -44.5 110 -42.5c32 2 55.667 24 71 66l10 30z" />
    <glyph glyph-name="itilde" unicode="&#x129;" horiz-adv-x="531" 
d="M292 0h-276l187 1082h277zM721 1507c-5.33301 -79.333 -27.001 -144.331 -65.001 -194.998s-86 -75.334 -144 -74.001c-22 0 -41.667 5 -59 15l-94 58c-22 12 -43.667 17.333 -65 16c-37.333 -2 -63.666 -34 -78.999 -96l-157 9
c5.33301 79.333 27.5 144.666 66.5 195.999s87.167 76.333 144.5 75c28 -0.666992 64.667 -16.167 110 -46.5s82 -44.5 110 -42.5c32 2 55.667 24 71 66l10 30z" />
    <glyph glyph-name="Imacron" unicode="&#x12a;" horiz-adv-x="547" 
d="M308 0h-287l253 1456h287zM733 1598h-584l27 168h584z" />
    <glyph glyph-name="imacron" unicode="&#x12b;" horiz-adv-x="531" 
d="M292 0h-276l187 1082h277zM669 1270h-584l27 168h584z" />
    <glyph glyph-name="Ibreve" unicode="&#x12c;" horiz-adv-x="547" 
d="M308 0h-287l253 1456h287zM808 1842c-5.33301 -92.667 -41.501 -166.332 -108.501 -220.999s-149.167 -80.667 -246.5 -78c-94.667 1.33301 -170.667 29.166 -228 83.499s-86 125.833 -86 214.5l201 -1c-2.66699 -86 36 -129.667 116 -131
c42.667 -0.666992 76.834 10.833 102.501 34.5s42.5 55.5 50.5 95.5z" />
    <glyph glyph-name="ibreve" unicode="&#x12d;" horiz-adv-x="531" 
d="M292 0h-276l187 1082h277zM744 1514c-5.33301 -92.667 -41.501 -166.332 -108.501 -220.999s-149.167 -80.667 -246.5 -78c-94.667 1.33301 -170.667 29.166 -228 83.499s-86 125.833 -86 214.5l201 -1c-2.66699 -86 36 -129.667 116 -131
c42.667 -0.666992 76.834 10.833 102.501 34.5s42.5 55.5 50.5 95.5z" />
    <glyph glyph-name="Iogonek" unicode="&#x12e;" horiz-adv-x="547" 
d="M308 0h-287l253 1456h287zM255 2l-57.998 -46.001c-54 -45.333 -83 -90.333 -87 -135c-1.33301 -13.333 -0.5 -26 2.5 -38s12.5 -18.333 28.5 -19c12 -0.666992 33 5.33301 63 18l15 -160c-38 -27.333 -83 -41 -135 -41c-54.667 0 -98.834 18.833 -132.501 56.5
s-49.834 85.834 -48.501 144.501c2 118 72 211.333 210 280z" />
    <glyph glyph-name="iogonek" unicode="&#x12f;" horiz-adv-x="511" 
d="M285 0h-277l188 1082h277zM232 1357c0 46 14.5 83.5 43.5 112.5s64.5 43.5 106.5 43.5c41.333 1.33301 76.5 -12.167 105.5 -40.5s43.5 -63.5 43.5 -105.5c0 -46.667 -14.5 -84.5 -43.5 -113.5s-64.5 -43.5 -106.5 -43.5c-42.667 -1.33301 -78.167 12.167 -106.5 40.5
s-42.5 63.833 -42.5 106.5zM245 0l-57.998 -46.001c-54 -45.333 -83 -90.333 -87 -135c-1.33301 -13.333 -0.5 -26 2.5 -38s12.5 -18.333 28.5 -19c12 -0.666992 33 5.33301 63 18l15 -160c-38 -27.333 -83 -41 -135 -41c-54.667 0 -98.834 18.833 -132.501 56.5
s-49.834 85.834 -48.501 144.501c2 118 72 211.333 210 280z" />
    <glyph glyph-name="Idotaccent" unicode="&#x130;" horiz-adv-x="547" 
d="M308 0h-287l253 1456h287zM315 1700c-1.33301 40.667 12.001 74.834 40.001 102.501s62.667 41.5 104 41.5c40.667 1.33301 75 -11 103 -37s42 -58.333 42 -97c1.33301 -40 -11.834 -73.667 -39.501 -101s-62.5 -41 -104.5 -41c-42.667 0 -77.5 12.667 -104.5 38
s-40.5 56.666 -40.5 93.999z" />
    <glyph glyph-name="dotlessi" unicode="&#x131;" horiz-adv-x="531" 
d="M292 0h-276l187 1082h277z" />
    <glyph glyph-name="IJ" unicode="&#x132;" horiz-adv-x="1531" 
d="M308 0h-287l253 1456h287zM1279 1456h287l-172 -1008c-19.333 -141.333 -72 -255.5 -158 -342.5s-191.333 -129.167 -316 -126.5c-120.667 2.66699 -212 44.5 -274 125.5s-89.333 189.833 -82 326.5l290 -1l-2 -63c-1.33301 -43.333 6 -78 22 -104s40.333 -39.333 73 -40
c78.667 -2 130.667 62.667 156 194z" />
    <glyph glyph-name="ij" unicode="&#x133;" horiz-adv-x="1009" 
d="M285 0h-277l188 1082h277zM232 1357c0 46 14.5 83.5 43.5 112.5s64.5 43.5 106.5 43.5c41.333 1.33301 76.5 -12.167 105.5 -40.5s43.5 -63.5 43.5 -105.5c0 -46.667 -14.5 -84.5 -43.5 -113.5s-64.5 -43.5 -106.5 -43.5c-42.667 -1.33301 -78.167 12.167 -106.5 40.5
s-42.5 63.833 -42.5 106.5zM985 1082l-194.001 -1139c-16 -124 -55.5 -219 -118.5 -285s-145.167 -99 -246.5 -99c-44.667 1.33301 -89 7.33301 -133 18l21 234c31.333 -8.66699 56 -13 74 -13c66.667 0 108.334 48 125.001 144l195 1140h277zM737.999 1357
c0 44 14 80.668 42 110.001s64 44.666 108 45.999c41.333 1.33301 76.5 -12.167 105.5 -40.5s43.5 -63.5 43.5 -105.5c0 -46.667 -14.5 -84.5 -43.5 -113.5s-64.5 -43.5 -106.5 -43.5c-42.667 -1.33301 -78.167 12.167 -106.5 40.5s-42.5 63.833 -42.5 106.5z" />
    <glyph glyph-name="Jcircumflex" unicode="&#x134;" horiz-adv-x="984" 
d="M732 1456h287l-172 -1008c-19.333 -141.333 -72 -255.5 -158 -342.5s-191.333 -129.167 -316 -126.5c-120.667 2.66699 -212 44.5 -274 125.5s-89.333 189.833 -82 326.5l290 -1l-2 -63c-1.33301 -43.333 6 -78 22 -104s40.333 -39.333 73 -40
c78.667 -2 130.667 62.667 156 194zM1215 1569v-18l-210 3l-95 143l-147 -142l-216 -3v20l289 274l155 1z" />
    <glyph glyph-name="jcircumflex" unicode="&#x135;" horiz-adv-x="544" 
d="M495 1082l-189.999 -1114c-18 -132.667 -60.5 -234.167 -127.5 -304.5s-151.833 -104.833 -254.5 -103.5c-44 1.33301 -88 8 -132 20l38 230c38 -11.333 65.333 -16.666 82 -15.999c55.333 2 92.666 48.667 111.999 140l196 1148h276zM702.001 1234v-18l-210 3l-95 143
l-147 -142l-216 -3v20l289 274l155 1z" />
    <glyph glyph-name="Kcommaaccent" unicode="&#x136;" horiz-adv-x="1109" 
d="M512 558l-146 -154l-70 -404h-287l252 1456h287l-108 -619l116 154l336 465h367l-527 -653l266 -803h-327zM359 -456l-132 80.999c52 84.667 85.667 163.334 101 236.001l20 108h192l-5 -53c-14 -142 -72.667 -266 -176 -372z" />
    <glyph glyph-name="kcommaaccent" unicode="&#x137;" 
d="M424 413l-97 -92l-56 -321h-276l267 1536h276l-153 -833l44 54l245 325h345l-394 -459l220 -623h-303zM286 -477l-132 80.999c52 84.667 85.667 163.334 101 236.001l20 108h192l-5 -53c-14 -142 -72.667 -266 -176 -372z" />
    <glyph glyph-name="kgreenlandic" unicode="&#x138;" horiz-adv-x="1055" 
d="M446 397h-88l-68 -397h-276l187 1082h277l-77 -408h52l268 408h362l-393 -519l197 -563h-335z" />
    <glyph glyph-name="Lacute" unicode="&#x139;" 
d="M338 244h501l-43 -244h-787l252 1456h287zM522 1846h326l-319 -310h-246z" />
    <glyph glyph-name="lacute" unicode="&#x13a;" horiz-adv-x="511" 
d="M285 0h-277l266 1536h278zM523 1928h326l-319 -310h-246z" />
    <glyph glyph-name="Lcommaaccent" unicode="&#x13b;" 
d="M338 244h501l-43 -244h-787l252 1456h287zM300 -507l-132 80.999c52 84.667 85.667 163.334 101 236.001l20 108h192l-5 -53c-14 -142 -72.667 -266 -176 -372z" />
    <glyph glyph-name="lcommaaccent" unicode="&#x13c;" horiz-adv-x="511" 
d="M285 0h-277l266 1536h278zM45 -507l-132 80.999c52 84.667 85.667 163.334 101 236.001l20 108h192l-5 -53c-14 -142 -72.667 -266 -176 -372z" />
    <glyph glyph-name="Lcaron" unicode="&#x13d;" 
d="M338 244h501l-43 -244h-787l252 1456h287zM760 1031l-132 80.999c52 84.667 85.667 163.334 101 236.001l20 108h192l-5 -53c-14 -142 -72.667 -266 -176 -372z" />
    <glyph glyph-name="lcaron" unicode="&#x13e;" horiz-adv-x="661" 
d="M285 0h-277l266 1536h278zM676 1112l-132 80.999c52 84.667 85.667 163.334 101 236.001l20 108h192l-5 -53c-14 -142 -72.667 -266 -176 -372z" />
    <glyph glyph-name="Ldot" unicode="&#x13f;" 
d="M338 244h501l-43 -244h-787l252 1456h287zM543 824c-1.33301 40.667 12.001 74.834 40.001 102.501s62.667 41.5 104 41.5c40.667 1.33301 75 -11 103 -37s42 -58.333 42 -97c1.33301 -40 -11.834 -73.667 -39.501 -101s-62.5 -41 -104.5 -41
c-42.667 0 -77.5 12.667 -104.5 38s-40.5 56.666 -40.5 93.999z" />
    <glyph glyph-name="ldot" unicode="&#x140;" horiz-adv-x="731" 
d="M285 0h-277l266 1536h278zM488 767c-1.33301 40.667 12.001 74.834 40.001 102.501s62.667 41.5 104 41.5c40.667 1.33301 75 -11 103 -37s42 -58.333 42 -97c1.33301 -40 -11.834 -73.667 -39.501 -101s-62.5 -41 -104.5 -41c-42.667 0 -77.5 12.667 -104.5 38
s-40.5 56.666 -40.5 93.999z" />
    <glyph glyph-name="Lslash" unicode="&#x141;" horiz-adv-x="993" 
d="M487 910l163 52l-31 -176l-162 -53l-85 -489h501l-43 -244h-787l110 633l-108 -34l31 176l107 35l112 646h287z" />
    <glyph glyph-name="lslash" unicode="&#x142;" horiz-adv-x="579" 
d="M472 921l113 41l-31 -177l-113 -42l-129 -743h-277l110 634l-101 -36l31 177l101 37l125 724h278z" />
    <glyph glyph-name="Nacute" unicode="&#x143;" horiz-adv-x="1226" 
d="M998 0h-280l-254 965l-168 -965h-287l252 1456h281l255 -966l168 966h286zM871 1846h326l-319 -310h-246z" />
    <glyph glyph-name="nacute" unicode="&#x144;" horiz-adv-x="988" 
d="M434 1083l-20.001 -108.999c76 88.667 160.333 131.667 253 129c76 -1.33301 133.833 -29.833 173.5 -85.5s59.167 -134.834 58.5 -237.501l-6 -92l-115 -688h-277l114 690l5 59c2.66699 78 -26.666 117 -87.999 117c-28.667 0 -53 -7.83301 -73 -23.5
s-38.667 -34.167 -56 -55.5l-137 -787h-278l188 1082zM693.999 1536h326l-319 -310h-246z" />
    <glyph glyph-name="Ncommaaccent" unicode="&#x145;" horiz-adv-x="1226" 
d="M998 0h-280l-254 965l-168 -965h-287l252 1456h281l255 -966l168 966h286zM403 -515l-132 80.999c52 84.667 85.667 163.334 101 236.001l20 108h192l-5 -53c-14 -142 -72.667 -266 -176 -372z" />
    <glyph glyph-name="ncommaaccent" unicode="&#x146;" horiz-adv-x="988" 
d="M434 1083l-20.001 -108.999c76 88.667 160.333 131.667 253 129c76 -1.33301 133.833 -29.833 173.5 -85.5s59.167 -134.834 58.5 -237.501l-6 -92l-115 -688h-277l114 690l5 59c2.66699 78 -26.666 117 -87.999 117c-28.667 0 -53 -7.83301 -73 -23.5
s-38.667 -34.167 -56 -55.5l-137 -787h-278l188 1082zM280.999 -506.999l-132 80.999c52 84.667 85.667 163.334 101 236.001l20 108h192l-5 -53c-14 -142 -72.667 -266 -176 -372z" />
    <glyph glyph-name="Ncaron" unicode="&#x147;" horiz-adv-x="1226" 
d="M998 0h-280l-254 965l-168 -965h-287l252 1456h281l255 -966l168 966h286zM794 1707l137 139l239 4l1 -17l-298 -278h-171l-223 280v16l228 -4z" />
    <glyph glyph-name="ncaron" unicode="&#x148;" horiz-adv-x="988" 
d="M434 1083l-20.001 -108.999c76 88.667 160.333 131.667 253 129c76 -1.33301 133.833 -29.833 173.5 -85.5s59.167 -134.834 58.5 -237.501l-6 -92l-115 -688h-277l114 690l5 59c2.66699 78 -26.666 117 -87.999 117c-28.667 0 -53 -7.83301 -73 -23.5
s-38.667 -34.167 -56 -55.5l-137 -787h-278l188 1082zM616.999 1397l137 139l239 4l1 -17l-298 -278h-171l-223 280v16l228 -4z" />
    <glyph glyph-name="napostrophe" unicode="&#x149;" horiz-adv-x="988" 
d="M434 1083l-20.001 -108.999c76 88.667 160.333 131.667 253 129c76 -1.33301 133.833 -29.833 173.5 -85.5s59.167 -134.834 58.5 -237.501l-6 -92l-115 -688h-277l114 690l5 59c2.66699 78 -26.666 117 -87.999 117c-28.667 0 -53 -7.83301 -73 -23.5
s-38.667 -34.167 -56 -55.5l-137 -787h-278l188 1082zM150.999 1111l-132 80.999c52 84.667 85.667 163.334 101 236.001l20 108h192l-5 -53c-14 -142 -72.667 -266 -176 -372z" />
    <glyph glyph-name="Eng" unicode="&#x14a;" horiz-adv-x="1221" 
d="M1250 1456l-253.001 -1481c-17.333 -132 -59.5 -234.333 -126.5 -307s-154.5 -109 -262.5 -109c-40 0 -84.667 6 -134 18l34 243c32 -11.333 59.667 -16.333 83 -15c52.667 2 89.334 44 110.001 126l10 44l4 25l-262 912l-158 -912h-287l252 1456h281l262 -909l159 909
h288z" />
    <glyph glyph-name="eng" unicode="&#x14b;" horiz-adv-x="996" 
d="M436 1083l-22.999 -145.003l28 38c68.667 86.667 144.667 129 228 127c78.667 -1.33301 137.5 -32.666 176.5 -93.999s57.5 -147 55.5 -257l-6 -93l-112 -692c-18 -131.333 -59.833 -232.166 -125.5 -302.499s-150.834 -105.5 -255.501 -105.5
c-42 1.33301 -84.333 7.33301 -127 18l34 236c33.333 -11.333 60 -16.666 80 -15.999c55.333 2 92 47.667 110 137l118 726l7 59c8 96 -17 144.667 -75 146c-45.333 2 -92.333 -21.333 -141 -70l-140 -795h-276l188 1082z" />
    <glyph glyph-name="Omacron" unicode="&#x14c;" horiz-adv-x="1209" 
d="M512 -20c-128 2.66699 -229.5 44.6699 -304.5 126.003s-115.833 194.333 -122.5 339c-2.66699 50 -0.666992 100.667 6 152l37 242c19.333 129.333 57 244 113 344s125.667 174.333 209 223s177.333 72 282 70c129.333 -2.66699 230.833 -46.834 304.5 -132.501
s113.167 -202.834 118.5 -351.501c1.33301 -56 -1.66699 -109 -9 -159l-33 -223c-30 -200 -97.5 -355.833 -202.5 -467.5s-237.833 -165.834 -398.5 -162.501zM859 843.003c8 68.667 12 121.668 12 159.001c-3.33301 148.667 -57 225 -161 229
c-80 3.33301 -144.5 -26.834 -193.5 -90.501s-83.167 -163.5 -102.5 -299.5l-35 -245c-8 -66 -11 -117.667 -9 -155c3.33301 -140 58.333 -212.333 165 -217c76 -2.66699 138.333 25.333 187 84s82.667 154.667 102 288zM1064 1595h-584l27 168h584z" />
    <glyph glyph-name="omacron" unicode="&#x14d;" horiz-adv-x="998" 
d="M565 1102c109.333 -2.66699 194.669 -39.668 256.002 -111.001s95 -167 101 -287v-71c-8.66699 -209.333 -58.834 -371.5 -150.501 -486.5s-211.167 -170.5 -358.5 -166.5c-86 2 -157 25.167 -213 69.5s-96.167 105.833 -120.5 184.5s-31.166 169 -20.499 271l6 54
c19.333 170 73.666 303.833 162.999 401.5s201.666 144.834 336.999 141.501zM331.003 391.999c0 -115.333 35.333 -175.002 106 -179.002c96 -5.33301 158.333 68 187 220l11 72c9.33301 96 14 157.667 14 185c0 114.667 -36.333 174.334 -109 179.001
c-52.667 2.66699 -96 -21.666 -130 -72.999s-55.667 -125.5 -65 -222.5s-14 -157.5 -14 -181.5zM889.003 1286h-584l27 168h584z" />
    <glyph glyph-name="Obreve" unicode="&#x14e;" horiz-adv-x="1209" 
d="M512 -20c-128 2.66699 -229.5 44.6699 -304.5 126.003s-115.833 194.333 -122.5 339c-2.66699 50 -0.666992 100.667 6 152l37 242c19.333 129.333 57 244 113 344s125.667 174.333 209 223s177.333 72 282 70c129.333 -2.66699 230.833 -46.834 304.5 -132.501
s113.167 -202.834 118.5 -351.501c1.33301 -56 -1.66699 -109 -9 -159l-33 -223c-30 -200 -97.5 -355.833 -202.5 -467.5s-237.833 -165.834 -398.5 -162.501zM859 843.003c8 68.667 12 121.668 12 159.001c-3.33301 148.667 -57 225 -161 229
c-80 3.33301 -144.5 -26.834 -193.5 -90.501s-83.167 -163.5 -102.5 -299.5l-35 -245c-8 -66 -11 -117.667 -9 -155c3.33301 -140 58.333 -212.333 165 -217c76 -2.66699 138.333 25.333 187 84s82.667 154.667 102 288zM1139 1839
c-5.33301 -92.667 -41.501 -166.332 -108.501 -220.999s-149.167 -80.667 -246.5 -78c-94.667 1.33301 -170.667 29.166 -228 83.499s-86 125.833 -86 214.5l201 -1c-2.66699 -86 36 -129.667 116 -131c42.667 -0.666992 76.834 10.833 102.501 34.5s42.5 55.5 50.5 95.5z
" />
    <glyph glyph-name="obreve" unicode="&#x14f;" horiz-adv-x="998" 
d="M565 1102c109.333 -2.66699 194.669 -39.668 256.002 -111.001s95 -167 101 -287v-71c-8.66699 -209.333 -58.834 -371.5 -150.501 -486.5s-211.167 -170.5 -358.5 -166.5c-86 2 -157 25.167 -213 69.5s-96.167 105.833 -120.5 184.5s-31.166 169 -20.499 271l6 54
c19.333 170 73.666 303.833 162.999 401.5s201.666 144.834 336.999 141.501zM331.003 391.999c0 -115.333 35.333 -175.002 106 -179.002c96 -5.33301 158.333 68 187 220l11 72c9.33301 96 14 157.667 14 185c0 114.667 -36.333 174.334 -109 179.001
c-52.667 2.66699 -96 -21.666 -130 -72.999s-55.667 -125.5 -65 -222.5s-14 -157.5 -14 -181.5zM964.003 1529c-5.33301 -92.667 -41.501 -166.332 -108.501 -220.999s-149.167 -80.667 -246.5 -78c-94.667 1.33301 -170.667 29.166 -228 83.499s-86 125.833 -86 214.5
l201 -1c-2.66699 -86 36 -129.667 116 -131c42.667 -0.666992 76.834 10.833 102.501 34.5s42.5 55.5 50.5 95.5z" />
    <glyph glyph-name="Ohungarumlaut" unicode="&#x150;" horiz-adv-x="1209" 
d="M512 -20c-128 2.66699 -229.5 44.6699 -304.5 126.003s-115.833 194.333 -122.5 339c-2.66699 50 -0.666992 100.667 6 152l37 242c19.333 129.333 57 244 113 344s125.667 174.333 209 223s177.333 72 282 70c129.333 -2.66699 230.833 -46.834 304.5 -132.501
s113.167 -202.834 118.5 -351.501c1.33301 -56 -1.66699 -109 -9 -159l-33 -223c-30 -200 -97.5 -355.833 -202.5 -467.5s-237.833 -165.834 -398.5 -162.501zM859 843.003c8 68.667 12 121.668 12 159.001c-3.33301 148.667 -57 225 -161 229
c-80 3.33301 -144.5 -26.834 -193.5 -90.501s-83.167 -163.5 -102.5 -299.5l-35 -245c-8 -66 -11 -117.667 -9 -155c3.33301 -140 58.333 -212.333 165 -217c76 -2.66699 138.333 25.333 187 84s82.667 154.667 102 288zM1020 1845h257l-266 -301h-219zM684 1845h253
l-238 -301h-212z" />
    <glyph glyph-name="ohungarumlaut" unicode="&#x151;" horiz-adv-x="998" 
d="M565 1102c109.333 -2.66699 194.669 -39.668 256.002 -111.001s95 -167 101 -287v-71c-8.66699 -209.333 -58.834 -371.5 -150.501 -486.5s-211.167 -170.5 -358.5 -166.5c-86 2 -157 25.167 -213 69.5s-96.167 105.833 -120.5 184.5s-31.166 169 -20.499 271l6 54
c19.333 170 73.666 303.833 162.999 401.5s201.666 144.834 336.999 141.501zM331.003 391.999c0 -115.333 35.333 -175.002 106 -179.002c96 -5.33301 158.333 68 187 220l11 72c9.33301 96 14 157.667 14 185c0 114.667 -36.333 174.334 -109 179.001
c-52.667 2.66699 -96 -21.666 -130 -72.999s-55.667 -125.5 -65 -222.5s-14 -157.5 -14 -181.5zM845.003 1535h257l-266 -301h-219zM509.003 1535h253l-238 -301h-212z" />
    <glyph glyph-name="OE" unicode="&#x152;" horiz-adv-x="1681" 
d="M1460 0h-717.001l-173 -17l-58 -1c-122 3.33301 -220.667 45.833 -296 127.5s-117.666 189.5 -126.999 323.5c-3.33301 47.333 -2 95 4 143l46 292c30 190 98.5 339.167 205.5 447.5s237.167 162.5 390.5 162.5l51 -2l179 -20h745l-43 -245h-523l-60 -344h444l-42 -237
h-443l-67 -386h526zM527.999 217c43.333 -2 93.998 0.666992 151.998 8l184 1006c-56 9.33301 -104 14 -144 14c-77.333 1.33301 -142.166 -28.167 -194.499 -88.5s-87.833 -147.5 -106.5 -261.5l-49 -320c-7.33301 -58 -9.33301 -108 -6 -150
c6.66699 -134 61.334 -203.333 164.001 -208z" />
    <glyph glyph-name="oe" unicode="&#x153;" horiz-adv-x="1542" 
d="M77 545c16 133.333 56.0049 249.335 120.005 348.002c92.667 142 218.667 212 378 210c117.333 -3.33301 207.333 -45 270 -125c89.333 85.333 185.666 126.666 288.999 123.999c90 -2 162.667 -31.333 218 -88s88.333 -132.667 99 -228c6 -57.333 5.66699 -115 -1 -173
l-26 -164h-503l-1 -76c2.66699 -47.333 15 -85 37 -113s52 -42.667 90 -44c46 -2 89.167 4.66699 129.5 20s80.166 33.666 119.499 54.999l56 -190c-41.333 -40 -93 -70.5 -155 -91.5s-127.333 -30.833 -196 -29.5c-120.667 3.33301 -212.334 45 -275.001 125
c-94.667 -86 -197 -127.667 -307 -125c-104.667 1.33301 -187.834 38.833 -249.501 112.5s-94.834 175.5 -99.501 305.5c-2 42.667 -0.666992 84.667 4 126zM341.005 407.002c-4 -128 30.667 -193 104 -195c110 -6 175.667 104 197 330l10 130
c4 128.667 -30.667 194 -104 196c-110.667 6 -176.667 -108 -198 -342zM1107 870.002c-60 1.33301 -106.667 -45.332 -140 -139.999l-26 -83l239 -1l12 88c2.66699 41.333 -3.33301 74.166 -18 98.499s-37 36.833 -67 37.5z" />
    <glyph glyph-name="Racute" unicode="&#x154;" horiz-adv-x="1110" 
d="M535 532h-145.998l-92 -532h-287l252 1456l440 -1c130 -4 229.667 -44 299 -120s98.666 -179.667 87.999 -311c-16.667 -199.333 -107.334 -338 -272.001 -416l146 -592v-16h-308zM431.002 777l151 -2c69.333 1.33301 124 28.833 164 82.5s59.667 124.834 59 213.501
c-2.66699 87.333 -41 133.666 -115 138.999l-183 1zM765.002 1846h326l-319 -310h-246z" />
    <glyph glyph-name="racute" unicode="&#x155;" horiz-adv-x="669" 
d="M663 810l-87.999 10c-74 1.33301 -133.667 -33.667 -179 -105l-125 -715h-277l188 1082l259 1l-22 -119c32.667 52 64.667 88.5 96 109.5s65 31.5 101 31.5c21.333 0 49.666 -5 84.999 -15zM559.001 1536h326l-319 -310h-246z" />
    <glyph glyph-name="Rcommaaccent" unicode="&#x156;" horiz-adv-x="1110" 
d="M535 532h-145.998l-92 -532h-287l252 1456l440 -1c130 -4 229.667 -44 299 -120s98.666 -179.667 87.999 -311c-16.667 -199.333 -107.334 -338 -272.001 -416l146 -592v-16h-308zM431.002 777l151 -2c69.333 1.33301 124 28.833 164 82.5s59.667 124.834 59 213.501
c-2.66699 87.333 -41 133.666 -115 138.999l-183 1zM314.002 -507l-132 80.999c52 84.667 85.667 163.334 101 236.001l20 108h192l-5 -53c-14 -142 -72.667 -266 -176 -372z" />
    <glyph glyph-name="rcommaaccent" unicode="&#x157;" horiz-adv-x="669" 
d="M663 810l-87.999 10c-74 1.33301 -133.667 -33.667 -179 -105l-125 -715h-277l188 1082l259 1l-22 -119c32.667 52 64.667 88.5 96 109.5s65 31.5 101 31.5c21.333 0 49.666 -5 84.999 -15zM37.001 -507l-132 80.999c52 84.667 85.667 163.334 101 236.001l20 108h192
l-5 -53c-14 -142 -72.667 -266 -176 -372z" />
    <glyph glyph-name="Rcaron" unicode="&#x158;" horiz-adv-x="1110" 
d="M535 532h-145.998l-92 -532h-287l252 1456l440 -1c130 -4 229.667 -44 299 -120s98.666 -179.667 87.999 -311c-16.667 -199.333 -107.334 -338 -272.001 -416l146 -592v-16h-308zM431.002 777l151 -2c69.333 1.33301 124 28.833 164 82.5s59.667 124.834 59 213.501
c-2.66699 87.333 -41 133.666 -115 138.999l-183 1zM688.002 1707l137 139l239 4l1 -17l-298 -278h-171l-223 280v16l228 -4z" />
    <glyph glyph-name="rcaron" unicode="&#x159;" horiz-adv-x="669" 
d="M663 810l-87.999 10c-74 1.33301 -133.667 -33.667 -179 -105l-125 -715h-277l188 1082l259 1l-22 -119c32.667 52 64.667 88.5 96 109.5s65 31.5 101 31.5c21.333 0 49.666 -5 84.999 -15zM483.001 1397l137 139l239 4l1 -17l-298 -278h-171l-223 280v16l228 -4z" />
    <glyph glyph-name="Sacute" unicode="&#x15a;" horiz-adv-x="1083" 
d="M680 390c6.66699 49.333 -0.499023 90.502 -21.499 123.502s-64.667 65.333 -131 97s-121.833 64.5 -166.5 98.5c-122 92.667 -178 209.667 -168 351c6 81.333 31.5 153.833 76.5 217.5s105.167 113.167 180.5 148.5s156 52 242 50
c124.667 -2.66699 222.167 -45.834 292.5 -129.501s102.833 -190.834 97.5 -321.501l-286 1c7.33301 136.667 -36.334 206 -131.001 208c-48.667 1.33301 -90.5 -14.5 -125.5 -47.5s-56.167 -75.5 -63.5 -127.5c-10 -78 44 -144.667 162 -200s202.667 -117.666 254 -186.999
c57.333 -76.667 81.666 -170 72.999 -280c-10 -126.667 -60 -227.834 -150 -303.501s-202.333 -112.167 -337 -109.5c-135.333 2.66699 -242.333 48.667 -321 138s-114.667 203.666 -108 342.999l288 -1c-5.33301 -86 5.83398 -147.5 33.501 -184.5
s71.167 -55.5 130.5 -55.5c52 0.666992 93 16.834 123 48.501s48.667 72.5 56 122.5zM810.001 1846h326l-319 -310h-246z" />
    <glyph glyph-name="sacute" unicode="&#x15b;" horiz-adv-x="912" 
d="M516 297c6.66699 46.667 -29.667 88.335 -109 125.002s-138.833 71.167 -178.5 103.5s-68.667 68.166 -87 107.499s-26.5 84 -24.5 134c4.66699 98 44.834 178.833 120.501 242.5s168.167 94.834 277.5 93.501c108 -2.66699 193.167 -34.834 255.5 -96.501
s92.833 -143.167 91.5 -244.5h-276c2 47.333 -4.16699 80.833 -18.5 100.5s-36.833 29.5 -67.5 29.5c-32 0 -59.167 -10.833 -81.5 -32.5s-36.166 -47.834 -41.499 -78.501c-8 -43.333 25.833 -82 101.5 -116s130.167 -62.333 163.5 -85
c99.333 -66 145.666 -156.333 138.999 -271c-4 -67.333 -24.833 -126.166 -62.5 -176.499s-88 -88.833 -151 -115.5s-131.167 -39 -204.5 -37c-105.333 2.66699 -191.333 37 -258 103s-99.334 150.333 -98.001 253l263 -1c-2 -52 6.33301 -89.333 25 -112s47.667 -34 87 -34
c34.667 0 64.167 9.16699 88.5 27.5s39.5 45.166 45.5 80.499zM646.999 1536h326l-319 -310h-246z" />
    <glyph glyph-name="Scircumflex" unicode="&#x15c;" horiz-adv-x="1083" 
d="M680 390c6.66699 49.333 -0.499023 90.502 -21.499 123.502s-64.667 65.333 -131 97s-121.833 64.5 -166.5 98.5c-122 92.667 -178 209.667 -168 351c6 81.333 31.5 153.833 76.5 217.5s105.167 113.167 180.5 148.5s156 52 242 50
c124.667 -2.66699 222.167 -45.834 292.5 -129.501s102.833 -190.834 97.5 -321.501l-286 1c7.33301 136.667 -36.334 206 -131.001 208c-48.667 1.33301 -90.5 -14.5 -125.5 -47.5s-56.167 -75.5 -63.5 -127.5c-10 -78 44 -144.667 162 -200s202.667 -117.666 254 -186.999
c57.333 -76.667 81.666 -170 72.999 -280c-10 -126.667 -60 -227.834 -150 -303.501s-202.333 -112.167 -337 -109.5c-135.333 2.66699 -242.333 48.667 -321 138s-114.667 203.666 -108 342.999l288 -1c-5.33301 -86 5.83398 -147.5 33.501 -184.5
s71.167 -55.5 130.5 -55.5c52 0.666992 93 16.834 123 48.501s48.667 72.5 56 122.5zM1056 1569v-18l-210 3l-95 143l-147 -142l-216 -3v20l289 274l155 1z" />
    <glyph glyph-name="scircumflex" unicode="&#x15d;" horiz-adv-x="912" 
d="M516 297c6.66699 46.667 -29.667 88.335 -109 125.002s-138.833 71.167 -178.5 103.5s-68.667 68.166 -87 107.499s-26.5 84 -24.5 134c4.66699 98 44.834 178.833 120.501 242.5s168.167 94.834 277.5 93.501c108 -2.66699 193.167 -34.834 255.5 -96.501
s92.833 -143.167 91.5 -244.5h-276c2 47.333 -4.16699 80.833 -18.5 100.5s-36.833 29.5 -67.5 29.5c-32 0 -59.167 -10.833 -81.5 -32.5s-36.166 -47.834 -41.499 -78.501c-8 -43.333 25.833 -82 101.5 -116s130.167 -62.333 163.5 -85
c99.333 -66 145.666 -156.333 138.999 -271c-4 -67.333 -24.833 -126.166 -62.5 -176.499s-88 -88.833 -151 -115.5s-131.167 -39 -204.5 -37c-105.333 2.66699 -191.333 37 -258 103s-99.334 150.333 -98.001 253l263 -1c-2 -52 6.33301 -89.333 25 -112s47.667 -34 87 -34
c34.667 0 64.167 9.16699 88.5 27.5s39.5 45.166 45.5 80.499zM893.999 1259v-18l-210 3l-95 143l-147 -142l-216 -3v20l289 274l155 1z" />
    <glyph glyph-name="Scedilla" unicode="&#x15e;" horiz-adv-x="1083" 
d="M680 390c6.66699 49.333 -0.499023 90.502 -21.499 123.502s-64.667 65.333 -131 97s-121.833 64.5 -166.5 98.5c-122 92.667 -178 209.667 -168 351c6 81.333 31.5 153.833 76.5 217.5s105.167 113.167 180.5 148.5s156 52 242 50
c124.667 -2.66699 222.167 -45.834 292.5 -129.501s102.833 -190.834 97.5 -321.501l-286 1c7.33301 136.667 -36.334 206 -131.001 208c-48.667 1.33301 -90.5 -14.5 -125.5 -47.5s-56.167 -75.5 -63.5 -127.5c-10 -78 44 -144.667 162 -200s202.667 -117.666 254 -186.999
c57.333 -76.667 81.666 -170 72.999 -280c-10 -126.667 -60 -227.834 -150 -303.501s-202.333 -112.167 -337 -109.5c-135.333 2.66699 -242.333 48.667 -321 138s-114.667 203.666 -108 342.999l288 -1c-5.33301 -86 5.83398 -147.5 33.501 -184.5
s71.167 -55.5 130.5 -55.5c52 0.666992 93 16.834 123 48.501s48.667 72.5 56 122.5zM548.001 7.00195l-18.001 -61.001c62.667 -18.667 94 -73 94 -163c-2 -76 -31.333 -135.333 -88 -178s-138 -65.667 -244 -69l12 168c51.333 8 81 38 89 90
c4.66699 36.667 -12.666 58.334 -51.999 65.001l-40 5l41 142z" />
    <glyph glyph-name="scedilla" unicode="&#x15f;" horiz-adv-x="912" 
d="M516 297c6.66699 46.667 -29.667 88.335 -109 125.002s-138.833 71.167 -178.5 103.5s-68.667 68.166 -87 107.499s-26.5 84 -24.5 134c4.66699 98 44.834 178.833 120.501 242.5s168.167 94.834 277.5 93.501c108 -2.66699 193.167 -34.834 255.5 -96.501
s92.833 -143.167 91.5 -244.5h-276c2 47.333 -4.16699 80.833 -18.5 100.5s-36.833 29.5 -67.5 29.5c-32 0 -59.167 -10.833 -81.5 -32.5s-36.166 -47.834 -41.499 -78.501c-8 -43.333 25.833 -82 101.5 -116s130.167 -62.333 163.5 -85
c99.333 -66 145.666 -156.333 138.999 -271c-4 -67.333 -24.833 -126.166 -62.5 -176.499s-88 -88.833 -151 -115.5s-131.167 -39 -204.5 -37c-105.333 2.66699 -191.333 37 -258 103s-99.334 150.333 -98.001 253l263 -1c-2 -52 6.33301 -89.333 25 -112s47.667 -34 87 -34
c34.667 0 64.167 9.16699 88.5 27.5s39.5 45.166 45.5 80.499zM456.999 -1.99902l-18.001 -61.001c62.667 -18.667 94 -73 94 -163c-2 -76 -31.333 -135.333 -88 -178s-138 -65.667 -244 -69l12 168c51.333 8 81 38 89 90c4.66699 36.667 -12.666 58.334 -51.999 65.001
l-40 5l41 142z" />
    <glyph glyph-name="Scaron" unicode="&#x160;" horiz-adv-x="1083" 
d="M680 390c6.66699 49.333 -0.499023 90.502 -21.499 123.502s-64.667 65.333 -131 97s-121.833 64.5 -166.5 98.5c-122 92.667 -178 209.667 -168 351c6 81.333 31.5 153.833 76.5 217.5s105.167 113.167 180.5 148.5s156 52 242 50
c124.667 -2.66699 222.167 -45.834 292.5 -129.501s102.833 -190.834 97.5 -321.501l-286 1c7.33301 136.667 -36.334 206 -131.001 208c-48.667 1.33301 -90.5 -14.5 -125.5 -47.5s-56.167 -75.5 -63.5 -127.5c-10 -78 44 -144.667 162 -200s202.667 -117.666 254 -186.999
c57.333 -76.667 81.666 -170 72.999 -280c-10 -126.667 -60 -227.834 -150 -303.501s-202.333 -112.167 -337 -109.5c-135.333 2.66699 -242.333 48.667 -321 138s-114.667 203.666 -108 342.999l288 -1c-5.33301 -86 5.83398 -147.5 33.501 -184.5
s71.167 -55.5 130.5 -55.5c52 0.666992 93 16.834 123 48.501s48.667 72.5 56 122.5zM733.001 1707l137 139l239 4l1 -17l-298 -278h-171l-223 280v16l228 -4z" />
    <glyph glyph-name="scaron" unicode="&#x161;" horiz-adv-x="912" 
d="M516 297c6.66699 46.667 -29.667 88.335 -109 125.002s-138.833 71.167 -178.5 103.5s-68.667 68.166 -87 107.499s-26.5 84 -24.5 134c4.66699 98 44.834 178.833 120.501 242.5s168.167 94.834 277.5 93.501c108 -2.66699 193.167 -34.834 255.5 -96.501
s92.833 -143.167 91.5 -244.5h-276c2 47.333 -4.16699 80.833 -18.5 100.5s-36.833 29.5 -67.5 29.5c-32 0 -59.167 -10.833 -81.5 -32.5s-36.166 -47.834 -41.499 -78.501c-8 -43.333 25.833 -82 101.5 -116s130.167 -62.333 163.5 -85
c99.333 -66 145.666 -156.333 138.999 -271c-4 -67.333 -24.833 -126.166 -62.5 -176.499s-88 -88.833 -151 -115.5s-131.167 -39 -204.5 -37c-105.333 2.66699 -191.333 37 -258 103s-99.334 150.333 -98.001 253l263 -1c-2 -52 6.33301 -89.333 25 -112s47.667 -34 87 -34
c34.667 0 64.167 9.16699 88.5 27.5s39.5 45.166 45.5 80.499zM569.999 1397l137 139l239 4l1 -17l-298 -278h-171l-223 280v16l228 -4z" />
    <glyph glyph-name="Tcommaaccent" unicode="&#x162;" horiz-adv-x="1089" 
d="M1135 1211h-349l-210 -1211h-288l210 1211h-344l43 245h981zM532 14l-18.001 -61.001c62.667 -18.667 94 -73 94 -163c-2 -76 -31.333 -135.333 -88 -178s-138 -65.667 -244 -69l12 168c51.333 8 81 38 89 90c4.66699 36.667 -12.666 58.334 -51.999 65.001l-40 5l41 142
z" />
    <glyph glyph-name="tcommaaccent" unicode="&#x163;" horiz-adv-x="620" 
d="M550 1348l-45.998 -266h140l-37 -213h-140l-92 -545l-3 -32c-2.66699 -44.667 16 -67.667 56 -69c11.333 -0.666992 34 1 68 5l-25 -222c-41.333 -16.667 -89.333 -25 -144 -25c-80.667 1.33301 -141.334 30.333 -182.001 87s-56.334 134 -47.001 232l93 569h-122l37 213
h121l47 266h276zM372.002 7l-18.001 -61.001c62.667 -18.667 94 -73 94 -163c-2 -76 -31.333 -135.333 -88 -178s-138 -65.667 -244 -69l12 168c51.333 8 81 38 89 90c4.66699 36.667 -12.666 58.334 -51.999 65.001l-40 5l41 142z" />
    <glyph glyph-name="Tcaron" unicode="&#x164;" horiz-adv-x="1089" 
d="M1135 1211h-349l-210 -1211h-288l210 1211h-344l43 245h981zM717 1707l137 139l239 4l1 -17l-298 -278h-171l-223 280v16l228 -4z" />
    <glyph glyph-name="tcaron" unicode="&#x165;" horiz-adv-x="660" 
d="M550 1348l-45.998 -266h140l-37 -213h-140l-92 -545l-3 -32c-2.66699 -44.667 16 -67.667 56 -69c11.333 -0.666992 34 1 68 5l-25 -222c-41.333 -16.667 -89.333 -25 -144 -25c-80.667 1.33301 -141.334 30.333 -182.001 87s-56.334 134 -47.001 232l93 569h-122l37 213
h121l47 266h276zM754.002 1243l-132 80.999c52 84.667 85.667 163.334 101 236.001l20 108h192l-5 -53c-14 -142 -72.667 -266 -176 -372z" />
    <glyph glyph-name="Tbar" unicode="&#x166;" horiz-adv-x="1089" 
d="M845 746h-140l-129 -746h-288l129 746h-163l33 183h162l49 282h-344l43 245h981l-43 -245h-349l-49 -282h140z" />
    <glyph glyph-name="tbar" unicode="&#x167;" horiz-adv-x="620" 
d="M563 529h-153.998c-24 -144 -36.333 -223 -37 -237c-2.66699 -44.667 16 -67.667 56 -69c11.333 -0.666992 34 1 68 5l-25 -222c-41.333 -16.667 -89.333 -25 -144 -25c-80.667 1.33301 -141.334 30.333 -182.001 87s-56.334 134 -47.001 232l37 229h-163l33 183h160
l26 157h-122l37 213h121l47 266h276l-46 -266h140l-37 -213h-140l-27 -157h155z" />
    <glyph glyph-name="Utilde" unicode="&#x168;" horiz-adv-x="1145" 
d="M1195 1456l-170 -1000c-20.667 -151.333 -77 -269.333 -169 -354s-212.667 -125.667 -362 -123c-140 2.66699 -246 46.667 -318 132s-99.667 200.333 -83 345l170 1000h288l-168 -1001l-4 -86c0 -93.333 46.333 -141.666 139 -144.999c64 -2 114 15 150 51
s59.667 96 71 180l169 1001h287zM1077 1832c-5.33301 -79.333 -27.001 -144.331 -65.001 -194.998s-86 -75.334 -144 -74.001c-22 0 -41.667 5 -59 15l-94 58c-22 12 -43.667 17.333 -65 16c-37.333 -2 -63.666 -34 -78.999 -96l-157 9
c5.33301 79.333 27.5 144.666 66.5 195.999s87.167 76.333 144.5 75c28 -0.666992 64.667 -16.167 110 -46.5s82 -44.5 110 -42.5c32 2 55.667 24 71 66l10 30z" />
    <glyph glyph-name="utilde" unicode="&#x169;" horiz-adv-x="988" 
d="M540 99c-68 -81.333 -147.33 -121.331 -237.997 -119.998c-70.667 0.666992 -127.334 24.5 -170.001 71.5s-67.334 111.167 -74.001 192.5c-4 47.333 -3.66699 93.666 1 138.999l117 700h276l-117 -704l-3 -49c-2.66699 -33.333 2.16602 -60.333 14.499 -81
s30.833 -31.334 55.5 -32.001c54.667 -2 104.667 25.667 150 83l136 783h279l-188 -1082h-257zM947.003 1523c-5.33301 -79.333 -27.001 -144.331 -65.001 -194.998s-86 -75.334 -144 -74.001c-22 0 -41.667 5 -59 15l-94 58c-22 12 -43.667 17.333 -65 16
c-37.333 -2 -63.666 -34 -78.999 -96l-157 9c5.33301 79.333 27.5 144.666 66.5 195.999s87.167 76.333 144.5 75c28 -0.666992 64.667 -16.167 110 -46.5s82 -44.5 110 -42.5c32 2 55.667 24 71 66l10 30z" />
    <glyph glyph-name="Umacron" unicode="&#x16a;" horiz-adv-x="1145" 
d="M1195 1456l-170 -1000c-20.667 -151.333 -77 -269.333 -169 -354s-212.667 -125.667 -362 -123c-140 2.66699 -246 46.667 -318 132s-99.667 200.333 -83 345l170 1000h288l-168 -1001l-4 -86c0 -93.333 46.333 -141.666 139 -144.999c64 -2 114 15 150 51
s59.667 96 71 180l169 1001h287zM1025 1595h-584l27 168h584z" />
    <glyph glyph-name="umacron" unicode="&#x16b;" horiz-adv-x="988" 
d="M540 99c-68 -81.333 -147.33 -121.331 -237.997 -119.998c-70.667 0.666992 -127.334 24.5 -170.001 71.5s-67.334 111.167 -74.001 192.5c-4 47.333 -3.66699 93.666 1 138.999l117 700h276l-117 -704l-3 -49c-2.66699 -33.333 2.16602 -60.333 14.499 -81
s30.833 -31.334 55.5 -32.001c54.667 -2 104.667 25.667 150 83l136 783h279l-188 -1082h-257zM895.003 1286h-584l27 168h584z" />
    <glyph glyph-name="Ubreve" unicode="&#x16c;" horiz-adv-x="1145" 
d="M1195 1456l-170 -1000c-20.667 -151.333 -77 -269.333 -169 -354s-212.667 -125.667 -362 -123c-140 2.66699 -246 46.667 -318 132s-99.667 200.333 -83 345l170 1000h288l-168 -1001l-4 -86c0 -93.333 46.333 -141.666 139 -144.999c64 -2 114 15 150 51
s59.667 96 71 180l169 1001h287zM1100 1839c-5.33301 -92.667 -41.501 -166.332 -108.501 -220.999s-149.167 -80.667 -246.5 -78c-94.667 1.33301 -170.667 29.166 -228 83.499s-86 125.833 -86 214.5l201 -1c-2.66699 -86 36 -129.667 116 -131
c42.667 -0.666992 76.834 10.833 102.501 34.5s42.5 55.5 50.5 95.5z" />
    <glyph glyph-name="ubreve" unicode="&#x16d;" horiz-adv-x="988" 
d="M540 99c-68 -81.333 -147.33 -121.331 -237.997 -119.998c-70.667 0.666992 -127.334 24.5 -170.001 71.5s-67.334 111.167 -74.001 192.5c-4 47.333 -3.66699 93.666 1 138.999l117 700h276l-117 -704l-3 -49c-2.66699 -33.333 2.16602 -60.333 14.499 -81
s30.833 -31.334 55.5 -32.001c54.667 -2 104.667 25.667 150 83l136 783h279l-188 -1082h-257zM970.003 1529c-5.33301 -92.667 -41.501 -166.332 -108.501 -220.999s-149.167 -80.667 -246.5 -78c-94.667 1.33301 -170.667 29.166 -228 83.499s-86 125.833 -86 214.5
l201 -1c-2.66699 -86 36 -129.667 116 -131c42.667 -0.666992 76.834 10.833 102.501 34.5s42.5 55.5 50.5 95.5z" />
    <glyph glyph-name="Uring" unicode="&#x16e;" horiz-adv-x="1145" 
d="M1195 1456l-170 -1000c-20.667 -151.333 -77 -269.333 -169 -354s-212.667 -125.667 -362 -123c-140 2.66699 -246 46.667 -318 132s-99.667 200.333 -83 345l170 1000h288l-168 -1001l-4 -86c0 -93.333 46.333 -141.666 139 -144.999c64 -2 114 15 150 51
s59.667 96 71 180l169 1001h287zM541 1723c0 59.333 22.333 109.668 67 151.001s97.667 62 159 62c56.667 0 105.334 -19 146.001 -57s61 -85.333 61 -142c0 -57.333 -21.833 -106.5 -65.5 -147.5s-97.167 -61.5 -160.5 -61.5c-56.667 0 -105.334 18.667 -146.001 56
s-61 83.666 -61 138.999zM654 1724c-3.33301 -27.333 2.33203 -51 16.999 -71s36.334 -30 65.001 -30c30.667 0 58.167 11 82.5 33s38.5 48.667 42.5 80c4 28.667 -1.83301 53 -17.5 73s-37.167 30 -64.5 30c-29.333 0 -56.5 -11.167 -81.5 -33.5s-39.5 -49.5 -43.5 -81.5z
" />
    <glyph glyph-name="uring" unicode="&#x16f;" horiz-adv-x="988" 
d="M540 99c-68 -81.333 -147.33 -121.331 -237.997 -119.998c-70.667 0.666992 -127.334 24.5 -170.001 71.5s-67.334 111.167 -74.001 192.5c-4 47.333 -3.66699 93.666 1 138.999l117 700h276l-117 -704l-3 -49c-2.66699 -33.333 2.16602 -60.333 14.499 -81
s30.833 -31.334 55.5 -32.001c54.667 -2 104.667 25.667 150 83l136 783h279l-188 -1082h-257zM411.003 1413c0 59.333 22.333 109.668 67 151.001s97.667 62 159 62c56.667 0 105.334 -19 146.001 -57s61 -85.333 61 -142c0 -57.333 -21.833 -106.5 -65.5 -147.5
s-97.167 -61.5 -160.5 -61.5c-56.667 0 -105.334 18.667 -146.001 56s-61 83.666 -61 138.999zM524.003 1414c-3.33301 -27.333 2.33203 -51 16.999 -71s36.334 -30 65.001 -30c30.667 0 58.167 11 82.5 33s38.5 48.667 42.5 80c4 28.667 -1.83301 53 -17.5 73
s-37.167 30 -64.5 30c-29.333 0 -56.5 -11.167 -81.5 -33.5s-39.5 -49.5 -43.5 -81.5z" />
    <glyph glyph-name="Uhungarumlaut" unicode="&#x170;" horiz-adv-x="1145" 
d="M1195 1456l-170 -1000c-20.667 -151.333 -77 -269.333 -169 -354s-212.667 -125.667 -362 -123c-140 2.66699 -246 46.667 -318 132s-99.667 200.333 -83 345l170 1000h288l-168 -1001l-4 -86c0 -93.333 46.333 -141.666 139 -144.999c64 -2 114 15 150 51
s59.667 96 71 180l169 1001h287zM981 1845h257l-266 -301h-219zM645 1845h253l-238 -301h-212z" />
    <glyph glyph-name="uhungarumlaut" unicode="&#x171;" horiz-adv-x="988" 
d="M540 99c-68 -81.333 -147.33 -121.331 -237.997 -119.998c-70.667 0.666992 -127.334 24.5 -170.001 71.5s-67.334 111.167 -74.001 192.5c-4 47.333 -3.66699 93.666 1 138.999l117 700h276l-117 -704l-3 -49c-2.66699 -33.333 2.16602 -60.333 14.499 -81
s30.833 -31.334 55.5 -32.001c54.667 -2 104.667 25.667 150 83l136 783h279l-188 -1082h-257zM851.003 1535h257l-266 -301h-219zM515.003 1535h253l-238 -301h-212z" />
    <glyph glyph-name="Uogonek" unicode="&#x172;" horiz-adv-x="1145" 
d="M1194 1456l-170 -1000c-15.333 -109.333 -49.166 -202 -101.499 -278s-123.166 -130.667 -212.499 -164c-46 -41.333 -71.667 -83.666 -77 -126.999c-1.33301 -13.333 -0.5 -26 2.5 -38s12.5 -18.333 28.5 -19c12 -0.666992 33 5.33301 63 18l15 -160
c-38 -27.333 -83 -41 -135 -41c-54.667 0 -98.834 18.833 -132.501 56.5s-49.834 85.834 -48.501 144.501c0 48 12 92.333 36 133c-133.333 9.33301 -232.333 56.833 -297 142.5s-89 196.5 -73 332.5l170 1000h288l-168 -1001l-4 -86
c0 -93.333 46.333 -141.666 139 -144.999c64 -2 114 15 150 51s59.667 96 71 180l169 1001h287z" />
    <glyph glyph-name="uogonek" unicode="&#x173;" horiz-adv-x="988" 
d="M747 0l-57.9951 -45.999c-54 -45.333 -83 -90.333 -87 -135c-1.33301 -13.333 -0.5 -26 2.5 -38s12.5 -18.333 28.5 -19c12 -0.666992 33 5.33301 63 18l15 -160c-38 -27.333 -83 -41 -135 -41c-54.667 0 -98.834 18.833 -132.501 56.5s-49.834 85.834 -48.501 144.501
c1.33301 92.667 44.333 169.667 129 231l16 88c-68 -81.333 -147.333 -121.333 -238 -120c-70.667 0.666992 -127.334 24.5 -170.001 71.5s-67.334 111.167 -74.001 192.5c-4 47.333 -3.66699 93.666 1 138.999l117 700h276l-117 -704l-3 -49
c-2.66699 -33.333 2.16602 -60.333 14.499 -81s30.833 -31.334 55.5 -32.001c54.667 -2 104.667 25.667 150 83l136 783h279l-188 -1082h-32z" />
    <glyph glyph-name="Wcircumflex" unicode="&#x174;" horiz-adv-x="1498" 
d="M1020 545l276 911h288l-478 -1456h-288l-30 854l-296 -854h-289l-25 1456h282l-11 -908l307 908h242zM1241 1569v-18l-210 3l-95 143l-147 -142l-216 -3v20l289 274l155 1z" />
    <glyph glyph-name="wcircumflex" unicode="&#x175;" horiz-adv-x="1267" 
d="M840 477l199 605h270l-405 -1082h-229l-39 622l-256 -622h-231l-30 1082h260l-13 -601l243 601h197zM1079 1259v-18l-210 3l-95 143l-147 -142l-216 -3v20l289 274l155 1z" />
    <glyph glyph-name="Ycircumflex" unicode="&#x176;" horiz-adv-x="1088" 
d="M570 805l325 651h323l-548 -942l-89 -514h-291l95 543l-216 913h302zM1047 1569v-18l-210 3l-95 143l-147 -142l-216 -3v20l289 274l155 1z" />
    <glyph glyph-name="ycircumflex" unicode="&#x177;" horiz-adv-x="897" 
d="M411 476l245.002 605.999h302l-558 -1245c-40.667 -97.333 -88 -167.833 -142 -211.5s-116.333 -65.5 -187 -65.5c-28.667 0 -69.334 7 -122.001 21l24 221l30 -2c75.333 -1.33301 130.666 32.334 165.999 101.001l46 103l-112 1078h289zM897.002 1259v-18l-210 3
l-95 143l-147 -142l-216 -3v20l289 274l155 1z" />
    <glyph glyph-name="Ydieresis" unicode="&#x178;" horiz-adv-x="1088" 
d="M570 805l325 651h323l-548 -942l-89 -514h-291l95 543l-216 913h302zM353 1671c0 35.333 12.832 66 38.499 92s57.834 39.667 96.501 41c38.667 0 71 -12.333 97 -37s39 -54 39 -88c0 -37.333 -13 -68.333 -39 -93s-57.667 -37.667 -95 -39
c-38 0 -70.333 12.167 -97 36.5s-40 53.5 -40 87.5zM827.999 1671c0 37.333 13 68.333 39 93s57.667 37.667 95 39c39.333 0 71.833 -12.167 97.5 -36.5s38.5 -53.5 38.5 -87.5c0 -37.333 -13 -68.333 -39 -93s-57.667 -37.667 -95 -39c-39.333 0 -71.833 12.167 -97.5 36.5
s-38.5 53.5 -38.5 87.5z" />
    <glyph glyph-name="Zacute" unicode="&#x179;" horiz-adv-x="1063" 
d="M356 244h575l-43 -244h-917l33 190l746 1021h-575l43 245h912l-32 -186zM795 1846h326l-319 -310h-246z" />
    <glyph glyph-name="zacute" unicode="&#x17a;" horiz-adv-x="909" 
d="M349 235h408l-41 -235h-743l33 190l512 656h-389l42 236h727l-32 -184zM652 1536h326l-319 -310h-246z" />
    <glyph glyph-name="Zdotaccent" unicode="&#x17b;" horiz-adv-x="1063" 
d="M356 244h575l-43 -244h-917l33 190l746 1021h-575l43 245h912l-32 -186zM583 1697c-1.33301 40.667 12.001 74.834 40.001 102.501s62.667 41.5 104 41.5c40.667 1.33301 75 -11 103 -37s42 -58.333 42 -97c1.33301 -40 -11.834 -73.667 -39.501 -101
s-62.5 -41 -104.5 -41c-42.667 0 -77.5 12.667 -104.5 38s-40.5 56.666 -40.5 93.999z" />
    <glyph glyph-name="zdotaccent" unicode="&#x17c;" horiz-adv-x="909" 
d="M349 235h408l-41 -235h-743l33 190l512 656h-389l42 236h727l-32 -184zM440 1387c-1.33301 40.667 12.001 74.834 40.001 102.501s62.667 41.5 104 41.5c40.667 1.33301 75 -11 103 -37s42 -58.333 42 -97c1.33301 -40 -11.834 -73.667 -39.501 -101
s-62.5 -41 -104.5 -41c-42.667 0 -77.5 12.667 -104.5 38s-40.5 56.666 -40.5 93.999z" />
    <glyph glyph-name="Zcaron" unicode="&#x17d;" horiz-adv-x="1063" 
d="M356 244h575l-43 -244h-917l33 190l746 1021h-575l43 245h912l-32 -186zM718 1707l137 139l239 4l1 -17l-298 -278h-171l-223 280v16l228 -4z" />
    <glyph glyph-name="zcaron" unicode="&#x17e;" horiz-adv-x="909" 
d="M349 235h408l-41 -235h-743l33 190l512 656h-389l42 236h727l-32 -184zM575 1397l137 139l239 4l1 -17l-298 -278h-171l-223 280v16l228 -4z" />
    <glyph glyph-name="longs" unicode="&#x17f;" horiz-adv-x="499" 
d="M0 0l199.999 1174c14.667 120 56.334 214.667 125.001 284s158.667 103.333 270 102c32.667 0 80.667 -7 144 -21l-44 -227c-35.333 9.33301 -61 14 -77 14c-76 0 -123 -52.333 -141 -157l-201 -1169h-276z" />
    <glyph glyph-name="uni018F" unicode="&#x18f;" horiz-adv-x="1204" 
d="M495 -20c-134 2.66699 -238.167 49.499 -312.5 140.499s-111.833 219.167 -112.5 384.5c-0.666992 53.333 2.66602 106.333 9.99902 159l27 164h741c6.66699 44.667 9 89.334 7 134.001c-4.66699 76 -27 135.667 -67 179s-95 66 -165 68
c-96 2.66699 -201.333 -18 -316 -62l-17 252c62.667 50.667 185.667 76 369 76c93.333 -0.666992 175.5 -21.5 246.5 -62.5s127 -100.833 168 -179.5s63.833 -167 68.5 -265c2.66699 -55.333 0.333984 -111.333 -6.99902 -168l-23 -150
c-20 -129.333 -60.5 -247.333 -121.5 -354s-134.167 -186.5 -219.5 -239.5s-177.333 -78.5 -276 -76.5zM521 241.999c66.667 -1.33301 124.501 25.833 173.501 81.5s89.833 142.167 122.5 259.5h-460c-10 -56.667 -14.667 -103.334 -14 -140.001
c1.33301 -61.333 17.166 -109.666 47.499 -144.999s73.833 -54 130.5 -56z" />
    <glyph glyph-name="florin" unicode="&#x192;" horiz-adv-x="667" 
d="M633 869h-155.999l-141 -917c-14.667 -125.333 -53.5 -222.333 -116.5 -291s-144.167 -102.334 -243.5 -101.001c-44.667 1.33301 -88.334 8 -131.001 20l34 231c29.333 -11.333 54.666 -17 75.999 -17c52 0 84.667 39 98 117l6 41l141 917h-127l33 213h127l8 76
c14 130 55.5 229.833 124.5 299.5s158.5 103.834 268.5 102.501c35.333 -0.666992 83 -8 143 -22l-42 -227c-32 8 -58.333 12 -79 12c-75.333 0 -120.666 -53.667 -135.999 -161l-11 -80h157z" />
    <glyph glyph-name="Ohorn" unicode="&#x1a0;" horiz-adv-x="1218" 
d="M502 -20c-124.667 2.66699 -223.333 49.1689 -296 139.502s-113.334 214.166 -122.001 371.499l-1 45c-1.33301 121.333 13.167 241.5 43.5 360.5s74.833 223.333 133.5 313s127.167 157 205.5 202s164.166 66.5 257.499 64.5c70.667 -2 135.834 -18.833 195.501 -50.5
s109.5 -76.834 149.5 -135.501c62.667 32.667 102.667 100.334 120 203.001l11 73l180 1c-10.667 -117.333 -36.167 -209.333 -76.5 -276s-96.5 -114.667 -168.5 -144c8.66699 -65.333 13.334 -130 14.001 -194c0 -82.667 -9.33301 -178.667 -28 -288s-48 -208 -88 -296
c-58.667 -129.333 -133.5 -227.333 -224.5 -294s-192.833 -98.334 -305.5 -95.001zM857.001 937.002c3.33301 186.667 -49.333 283.333 -158 290c-79.333 4 -145.333 -32.167 -198 -108.5s-89.334 -190.5 -110.001 -342.5c-14.667 -109.333 -22.667 -195 -24 -257
c-2 -94 10.667 -165.667 38 -215s67.333 -75 120 -77c75.333 -4 138.333 28.333 189 97s87.334 169 110.001 301l11 70c14 115.333 21.333 196 22 242z" />
    <glyph glyph-name="ohorn" unicode="&#x1a1;" horiz-adv-x="1029" 
d="M59 545l12 72.9961c31.333 152.667 90.166 272.5 176.499 359.5s190.166 128.833 311.499 125.5c58.667 -1.33301 113.167 -14.166 163.5 -38.499s91.833 -61.166 124.5 -110.499c24.667 22.667 44.834 50.834 60.501 84.501s28.167 81.834 37.5 144.501h162
c-8 -91.333 -28.333 -164.833 -61 -220.5s-78.334 -98.834 -137.001 -129.501c18.667 -146.667 8.83398 -289.5 -29.499 -428.5s-99.166 -245.333 -182.499 -319s-180.333 -109.167 -291 -106.5c-106.667 2.66699 -190.667 41 -252 115s-95 174.667 -101 302
c-2 36.667 0 86.334 6 149.001zM324 405.996c-2 -62 6.33301 -109.332 25 -141.999s46 -49.667 82 -51c59.333 -3.33301 106.5 28.334 141.5 95.001s56.833 175.667 65.5 327l2 37c0 128.667 -35.667 194 -107 196c-60 3.33301 -107.333 -28.334 -142 -95.001
s-56.667 -176.334 -66 -329.001z" />
    <glyph glyph-name="Uhorn" unicode="&#x1af;" horiz-adv-x="1254" 
d="M1196 1456l-46.999 -231c106 16.667 170 86 192 208l16 104h177c-14.667 -156 -54.667 -271.167 -120 -345.5s-158.333 -114.833 -279 -121.5l-103 -574c-14 -103.333 -45.167 -194.833 -93.5 -274.5s-110.5 -140.5 -186.5 -182.5s-162 -61.667 -258 -59
c-138 2.66699 -242.5 52 -313.5 148s-97.833 218.667 -80.5 368l164 960h288l-161 -961l-6 -88c-1.33301 -55.333 9.66699 -99.5 33 -132.5s57.333 -50.167 102 -51.5c123.333 -6.66699 198.666 84 225.999 272l163 961h287z" />
    <glyph glyph-name="uhorn" unicode="&#x1b0;" horiz-adv-x="1084" 
d="M1223 1178c-9.33301 -118.667 -38.3291 -207.5 -86.9961 -266.5s-119.334 -94.833 -212.001 -107.5l-145 -804h-257l18 99c-68.667 -82 -148.334 -122.333 -239.001 -121c-78.667 1.33301 -138.834 29.5 -180.501 84.5s-63.5 130.833 -65.5 227.5
c-0.666992 31.333 0.666016 62 3.99902 92l117 700h276l-117 -704l-3 -49c-2 -32.667 3 -59.667 15 -81s30.667 -32.333 56 -33c54 -2 103.667 26 149 84l136 783h278l-31 -140c62 26 101.333 78 118 156l14 79z" />
    <glyph glyph-name="uni01F0" unicode="&#x1f0;" horiz-adv-x="544" 
d="M495 1082l-189.999 -1114c-18 -132.667 -60.5 -234.167 -127.5 -304.5s-151.833 -104.833 -254.5 -103.5c-44 1.33301 -88 8 -132 20l38 230c38 -11.333 65.333 -16.666 82 -15.999c55.333 2 92.666 48.667 111.999 140l196 1148h276zM379.001 1372l137 139l239 4l1 -17
l-298 -278h-171l-223 280v16l228 -4z" />
    <glyph glyph-name="Aringacute" unicode="&#x1fa;" horiz-adv-x="1196" 
d="M738 298h-387l-127 -298h-312l694 1456h263l191 -1456h-297zM456 543h262l-41 516zM917 2000l265 -1l-270 -206h-187zM587 1559c0 52.667 17.6699 98.334 53.0029 137.001s77.666 58 126.999 58s89.666 -18.333 120.999 -55s47 -78.667 47 -126
c0 -52.667 -17 -97.834 -51 -135.501s-76 -56.5 -126 -56.5c-48.667 0 -89.334 17.167 -122.001 51.5s-49 76.5 -49 126.5zM689.003 1561l-0.000976562 -29c4.66699 -36.667 23 -55 55 -55c21.333 0 40.5 9.5 57.5 28.5s27.167 40.833 30.5 65.5l1 28
c-1.33301 17.333 -6.66602 31.333 -15.999 42s-21 16 -35 16c-22.667 0 -42.5 -9 -59.5 -27s-28.167 -41 -33.5 -69z" />
    <glyph glyph-name="aringacute" unicode="&#x1fb;" horiz-adv-x="945" 
d="M510 0c-5.33301 22.667 -8.00098 50.667 -8.00098 84c-61.333 -70 -131.333 -105 -210 -105c-83.333 1.33301 -150.166 32 -200.499 92s-73.5 134.667 -69.5 224c6 114.667 50.667 204.5 134 269.5s195.333 97.5 336 97.5h81l13 88l3 45c0 58 -23.333 87 -70 87
c-64.667 2 -104 -39.333 -118 -124l-275 -2c6 102.667 48.667 186.5 128 251.5s176 96.833 290 95.5c107.333 -2.66699 189.5 -36.5 246.5 -101.5s80.167 -150.833 69.5 -257.5l-88 -550l-4 -53c-2.66699 -46.667 2 -87.667 14 -123l-1 -18h-271zM367.999 200
c48.667 -1.33301 94.001 20 136.001 64l49 229h-60c-53.333 -2.66699 -96.333 -20.667 -129 -54s-52.334 -75.333 -59.001 -126l-1 -38c0 -21.333 5.5 -39 16.5 -53s26.833 -21.333 47.5 -22zM732 1691l265 -1l-270 -206h-187zM402 1250
c0 52.667 17.6699 98.334 53.0029 137.001s77.666 58 126.999 58s89.666 -18.333 120.999 -55s47 -78.667 47 -126c0 -52.667 -17 -97.834 -51 -135.501s-76 -56.5 -126 -56.5c-48.667 0 -89.334 17.167 -122.001 51.5s-49 76.5 -49 126.5zM504.003 1252l-0.000976562 -29
c4.66699 -36.667 23 -55 55 -55c21.333 0 40.5 9.5 57.5 28.5s27.167 40.833 30.5 65.5l1 28c-1.33301 17.333 -6.66602 31.333 -15.999 42s-21 16 -35 16c-22.667 0 -42.5 -9 -59.5 -27s-28.167 -41 -33.5 -69z" />
    <glyph glyph-name="AEacute" unicode="&#x1fc;" horiz-adv-x="1634" 
d="M1451 0h-756l47 333h-317l-186 -333h-335l876 1456h873l-42 -238h-470l-49 -352h393l-42 -238h-384l-55 -390h489zM563 582h214l69 505zM1037 1858h326l-319 -310h-246z" />
    <glyph glyph-name="aeacute" unicode="&#x1fd;" horiz-adv-x="1456" 
d="M945 -20c-133.333 3.33301 -230.997 48.334 -292.997 135.001c-96.667 -92.667 -207.667 -137.667 -333 -135c-94 1.33301 -168.167 32 -222.5 92s-78.833 139.667 -73.5 239c6.66699 107.333 50.334 190.833 131.001 250.5s190 89.5 328 89.5l119 -1l11 57l4 50
c1.33301 32.667 -4.5 59.167 -17.5 79.5s-32.167 30.833 -57.5 31.5c-30.667 1.33301 -57.834 -8.5 -81.501 -29.5s-40.5 -52.167 -50.5 -93.5l-273 18c7.33301 103.333 51.333 186.166 132 248.499s180 92.833 298 91.5c107.333 -1.33301 190.333 -32.666 249 -93.999
c83.333 64 173 94.667 269 92s171.333 -37.334 226 -104.001s84 -157 88 -271c1.33301 -38.667 -0.333984 -76.667 -5.00098 -114l-25 -163h-518c-2.66699 -27.333 -3 -54.333 -1 -81c3.33301 -46.667 17.166 -83.167 41.499 -109.5s57.833 -40.5 100.5 -42.5
c45.333 -1.33301 87.666 5.5 126.999 20.5s78.333 33.167 117 54.5l53 -193c-38 -38 -87.667 -67.167 -149 -87.5s-126 -30.5 -194 -30.5zM386.003 192.001c42 0 92.6689 22.332 152.002 66.999l38 201l-96 1c-48.667 -2.66699 -88.834 -18.167 -120.501 -46.5
s-50.834 -64.166 -57.501 -107.499c-4.66699 -32 -0.5 -59 12.5 -81s36.833 -33.333 71.5 -34zM1056 869c-76 3.33301 -132.333 -51.333 -169 -164l-18 -61l254 -1l11 88c5.33301 88.667 -20.667 134.667 -78 138zM929.005 1537h326l-319 -310h-246z" />
    <glyph glyph-name="Oslashacute" unicode="&#x1fe;" horiz-adv-x="1206" 
d="M517 -21c-84.667 1.33301 -160.671 23.335 -228.004 66.002l-96 -140l-186 1l169 246c-57.333 116 -83.666 250 -78.999 402l2 40c10.667 185.333 45.334 345 104.001 479s134.5 235.5 227.5 304.5s196.167 102.167 309.5 99.5c88 -2.66699 167 -26.667 237 -72l78 113
l188 -1l-156 -224c38 -84.667 61 -172 69 -262c10.667 -118.667 3.33398 -246.334 -21.999 -383.001s-68 -257.334 -128 -362.001s-131.667 -182.5 -215 -233.5s-174.666 -75.5 -273.999 -73.5zM367.996 458.002l464 713c-28.667 36 -66 55.333 -112 58
c-77.333 4 -142.333 -29.333 -195 -100s-91.667 -184.667 -117 -342c-22.667 -139.333 -36 -249 -40 -329zM887.996 977.002l-457 -703.001c26 -30 61.667 -46.333 107 -49c151.333 -5.33301 252 127.334 302 398.001c20 110 36 228 48 354zM874.996 1920h326l-319 -310
h-246z" />
    <glyph glyph-name="oslashacute" unicode="&#x1ff;" horiz-adv-x="996" 
d="M60 545c22 168 76.998 303.666 164.998 406.999s200 154 336 152c50.667 -1.33301 99.334 -10.666 146.001 -27.999l86 140l160 -1l-132 -214c64 -88 95.667 -198.333 95 -331c-0.666992 -32.667 -3.66699 -79 -9 -139
c-22.667 -169.333 -79.167 -304.666 -169.5 -405.999s-201.5 -150.333 -333.5 -147c-45.333 1.33301 -91.666 9.66602 -138.999 24.999l-89 -145l-160 1l133 216c-65.333 87.333 -98 198 -98 332c0 39.333 2.33301 78.333 7 117zM309.998 369.999l281.001 488.002
c-16.667 7.33301 -32.334 11.666 -47.001 12.999c-110 5.33301 -180.667 -102.334 -212 -323.001l-18 -125zM655.999 699.001l-278.997 -478.001c13.333 -5.33301 27.666 -8.66602 42.999 -9.99902c103.333 -2.66699 171.666 87 204.999 269l9 51
c13.333 91.333 20.666 147.333 21.999 168zM668.002 1532h326l-319 -310h-246z" />
    <glyph glyph-name="Scommaaccent" unicode="&#x218;" horiz-adv-x="1083" 
d="M680 390c6.66699 49.333 -0.499023 90.502 -21.499 123.502s-64.667 65.333 -131 97s-121.833 64.5 -166.5 98.5c-122 92.667 -178 209.667 -168 351c6 81.333 31.5 153.833 76.5 217.5s105.167 113.167 180.5 148.5s156 52 242 50
c124.667 -2.66699 222.167 -45.834 292.5 -129.501s102.833 -190.834 97.5 -321.501l-286 1c7.33301 136.667 -36.334 206 -131.001 208c-48.667 1.33301 -90.5 -14.5 -125.5 -47.5s-56.167 -75.5 -63.5 -127.5c-10 -78 44 -144.667 162 -200s202.667 -117.666 254 -186.999
c57.333 -76.667 81.666 -170 72.999 -280c-10 -126.667 -60 -227.834 -150 -303.501s-202.333 -112.167 -337 -109.5c-135.333 2.66699 -242.333 48.667 -321 138s-114.667 203.666 -108 342.999l288 -1c-5.33301 -86 5.83398 -147.5 33.501 -184.5
s71.167 -55.5 130.5 -55.5c52 0.666992 93 16.834 123 48.501s48.667 72.5 56 122.5zM345.001 -516.998l-132 80.999c52 84.667 85.667 163.334 101 236.001l20 108h192l-5 -53c-14 -142 -72.667 -266 -176 -372z" />
    <glyph glyph-name="scommaaccent" unicode="&#x219;" horiz-adv-x="912" 
d="M516 297c6.66699 46.667 -29.667 88.335 -109 125.002s-138.833 71.167 -178.5 103.5s-68.667 68.166 -87 107.499s-26.5 84 -24.5 134c4.66699 98 44.834 178.833 120.501 242.5s168.167 94.834 277.5 93.501c108 -2.66699 193.167 -34.834 255.5 -96.501
s92.833 -143.167 91.5 -244.5h-276c2 47.333 -4.16699 80.833 -18.5 100.5s-36.833 29.5 -67.5 29.5c-32 0 -59.167 -10.833 -81.5 -32.5s-36.166 -47.834 -41.499 -78.501c-8 -43.333 25.833 -82 101.5 -116s130.167 -62.333 163.5 -85
c99.333 -66 145.666 -156.333 138.999 -271c-4 -67.333 -24.833 -126.166 -62.5 -176.499s-88 -88.833 -151 -115.5s-131.167 -39 -204.5 -37c-105.333 2.66699 -191.333 37 -258 103s-99.334 150.333 -98.001 253l263 -1c-2 -52 6.33301 -89.333 25 -112s47.667 -34 87 -34
c34.667 0 64.167 9.16699 88.5 27.5s39.5 45.166 45.5 80.499zM253.999 -526.999l-132 80.999c52 84.667 85.667 163.334 101 236.001l20 108h192l-5 -53c-14 -142 -72.667 -266 -176 -372z" />
    <glyph glyph-name="uni021A" unicode="&#x21a;" horiz-adv-x="1089" 
d="M1135 1211h-349l-210 -1211h-288l210 1211h-344l43 245h981zM329 -510l-132 80.999c52 84.667 85.667 163.334 101 236.001l20 108h192l-5 -53c-14 -142 -72.667 -266 -176 -372z" />
    <glyph glyph-name="uni021B" unicode="&#x21b;" horiz-adv-x="620" 
d="M550 1348l-45.998 -266h140l-37 -213h-140l-92 -545l-3 -32c-2.66699 -44.667 16 -67.667 56 -69c11.333 -0.666992 34 1 68 5l-25 -222c-41.333 -16.667 -89.333 -25 -144 -25c-80.667 1.33301 -141.334 30.333 -182.001 87s-56.334 134 -47.001 232l93 569h-122l37 213
h121l47 266h276zM169.002 -517l-132 80.999c52 84.667 85.667 163.334 101 236.001l20 108h192l-5 -53c-14 -142 -72.667 -266 -176 -372z" />
    <glyph glyph-name="uni0237" unicode="&#x237;" horiz-adv-x="544" 
d="M495 1082l-189.999 -1114c-18 -132.667 -60.5 -234.167 -127.5 -304.5s-151.833 -104.833 -254.5 -103.5c-44 1.33301 -88 8 -132 20l38 230c38 -11.333 65.333 -16.666 82 -15.999c55.333 2 92.666 48.667 111.999 140l196 1148h276z" />
    <glyph glyph-name="uni0259" unicode="&#x259;" horiz-adv-x="940" 
d="M507 1102c113.333 -2 202.33 -46.002 266.997 -132.002s94.667 -201.333 90 -346l-3 -48l-4 -33c-21.333 -172.667 -74.666 -310.5 -159.999 -413.5s-191.666 -152.833 -318.999 -149.5c-90 2.66699 -162.667 32 -218 88s-88.666 132.333 -99.999 229
c-7.33301 57.333 -7.33301 115 0 173l26 164h503c2 24 2.33301 49.333 1 76l-2 18c-12.667 88 -55 133.667 -127 137c-45.333 2.66699 -88 -3.66602 -128 -18.999s-79.333 -33.666 -118 -54.999l-56 190c38 38 88 68 150 90s128 32.333 198 31zM402.997 212.998
c63.333 -1.33301 111.333 49 144 151l22 71l-239 1l-5 -28l-6 -59c-3.33301 -40 2.16699 -72.5 16.5 -97.5s36.833 -37.833 67.5 -38.5z" />
    <glyph glyph-name="afii57929" unicode="&#x2bc;" horiz-adv-x="456" 
d="M285 1007l-133.001 83c61.333 104 100 193.667 116 269l31 177h216l-22 -143c-23.333 -149.333 -92.666 -278 -207.999 -386z" />
    <glyph glyph-name="circumflex" unicode="&#x2c6;" horiz-adv-x="911" 
d="M897 1259v-18l-210 3l-95 143l-147 -142l-216 -3v20l289 274l155 1z" />
    <glyph glyph-name="caron" unicode="&#x2c7;" horiz-adv-x="867" 
d="M552 1397l137 139l239 4l1 -17l-298 -278h-171l-223 280v16l228 -4z" />
    <glyph glyph-name="uni02C9" unicode="&#x2c9;" horiz-adv-x="920" 
d="M852 1287h-584l27 168h584z" />
    <glyph glyph-name="breve" unicode="&#x2d8;" horiz-adv-x="893" 
d="M913 1529c-5.33301 -92.667 -41.501 -166.332 -108.501 -220.999s-149.167 -80.667 -246.5 -78c-94.667 1.33301 -170.667 29.166 -228 83.499s-86 125.833 -86 214.5l201 -1c-2.66699 -86 36 -129.667 116 -131c42.667 -0.666992 76.834 10.833 102.501 34.5
s42.5 55.5 50.5 95.5z" />
    <glyph glyph-name="dotaccent" unicode="&#x2d9;" horiz-adv-x="538" 
d="M250 1369c-1.33301 40.667 12.001 74.834 40.001 102.501s62.667 41.5 104 41.5c40.667 1.33301 75 -11 103 -37s42 -58.333 42 -97c1.33301 -40 -11.834 -73.667 -39.501 -101s-62.5 -41 -104.5 -41c-42.667 0 -77.5 12.667 -104.5 38s-40.5 56.666 -40.5 93.999z" />
    <glyph glyph-name="ring" unicode="&#x2da;" horiz-adv-x="672" 
d="M241 1316c0 59.333 22.333 109.668 67 151.001s97.667 62 159 62c56.667 0 105.334 -19 146.001 -57s61 -85.333 61 -142c0 -57.333 -21.833 -106.5 -65.5 -147.5s-97.167 -61.5 -160.5 -61.5c-56.667 0 -105.334 18.667 -146.001 56s-61 83.666 -61 138.999zM354 1317
c-3.33301 -27.333 2.33203 -51 16.999 -71s36.334 -30 65.001 -30c30.667 0 58.167 11 82.5 33s38.5 48.667 42.5 80c4 28.667 -1.83301 53 -17.5 73s-37.167 30 -64.5 30c-29.333 0 -56.5 -11.167 -81.5 -33.5s-39.5 -49.5 -43.5 -81.5z" />
    <glyph glyph-name="ogonek" unicode="&#x2db;" horiz-adv-x="576" 
d="M271 0l-57.998 -46.001c-54 -45.333 -83 -90.333 -87 -135c-1.33301 -13.333 -0.5 -26 2.5 -38s12.5 -18.333 28.5 -19c12 -0.666992 33 5.33301 63 18l15 -160c-38 -27.333 -83 -41 -135 -41c-54.667 0 -98.834 18.833 -132.501 56.5s-49.834 85.834 -48.501 144.501
c2 118 72 211.333 210 280z" />
    <glyph glyph-name="tilde" unicode="&#x2dc;" horiz-adv-x="878" 
d="M888 1525c-5.33301 -79.333 -27.001 -144.331 -65.001 -194.998s-86 -75.334 -144 -74.001c-22 0 -41.667 5 -59 15l-94 58c-22 12 -43.667 17.333 -65 16c-37.333 -2 -63.666 -34 -78.999 -96l-157 9c5.33301 79.333 27.5 144.666 66.5 195.999s87.167 76.333 144.5 75
c28 -0.666992 64.667 -16.167 110 -46.5s82 -44.5 110 -42.5c32 2 55.667 24 71 66l10 30z" />
    <glyph glyph-name="hungarumlaut" unicode="&#x2dd;" horiz-adv-x="745" 
d="M687 1535h257l-266 -301h-219zM351 1535h253l-238 -301h-212z" />
    <glyph glyph-name="uni02F3" unicode="&#x2f3;" horiz-adv-x="575" 
d="M-14 -236c0 50 16 92.5 48 127.5s70.333 52.5 115 52.5s82 -16.5 112 -49.5s45 -72.5 45 -118.5c0 -50 -16 -91.833 -48 -125.5s-70 -50.5 -114 -50.5c-46 0 -83.833 16.167 -113.5 48.5s-44.5 70.833 -44.5 115.5zM85 -235c-2 -14.667 0.500977 -29.499 7.50098 -44.499
s19.167 -22.833 36.5 -23.5c16.667 0 32.667 7.66699 48 23s24.666 33.666 27.999 54.999l1 22c-2.66699 33.333 -16.667 50 -42 50c-17.333 0 -34 -8.5 -50 -25.5s-25.667 -35.833 -29 -56.5z" />
    <glyph glyph-name="gravecomb" unicode="&#x300;" horiz-adv-x="0" 
d="M-172 1226h-207l-185 310h283z" />
    <glyph glyph-name="acutecomb" unicode="&#x301;" horiz-adv-x="0" 
d="M-237 1536h315l-293 -310h-237z" />
    <glyph glyph-name="tildecomb" unicode="&#x303;" horiz-adv-x="0" 
d="M16 1525c-5.33301 -79.333 -27.001 -144.331 -65.001 -194.998s-86 -75.334 -144 -74.001c-22 0 -41.667 5 -59 15l-94 58c-22 12 -43.667 17.333 -65 16c-37.333 -2 -63.666 -34 -78.999 -96l-157 9c5.33301 79.333 27.5 144.666 66.5 195.999s87.167 76.333 144.5 75
c28 -0.666992 64.667 -16.167 110 -46.5s82 -44.5 110 -42.5c32 2 55.667 24 71 66l10 30z" />
    <glyph glyph-name="hookabovecomb" unicode="&#x309;" horiz-adv-x="0" 
d="M-469 1266l2 135.001l35 5c53.333 9.33301 82.333 31.666 87 66.999c4.66699 33.333 -12.333 52.333 -51 57l-37 3l18 138c202.667 -9.33301 302 -72 298 -188c-2.66699 -80 -46 -130.333 -130 -151l-9 -66h-213z" />
    <glyph glyph-name="uni030F" unicode="&#x30f;" horiz-adv-x="0" 
d="M-261 1252h-239l-190 266h282zM35 1252h-234l-153 266h278z" />
    <glyph glyph-name="dotbelowcomb" unicode="&#x323;" horiz-adv-x="0" 
d="M-885 -239c0 42.667 15.667 77.499 47 104.499s68.666 40.5 111.999 40.5c46 0 84 -13 114 -39s45 -58 45 -96c1.33301 -42 -14 -76.667 -46 -104s-69.667 -41 -113 -41c-44 0 -81.167 12.333 -111.5 37s-46.166 57.334 -47.499 98.001z" />
    <glyph glyph-name="tonos" unicode="&#x384;" horiz-adv-x="684" 
d="M454 1601h268l-221 -345h-179z" />
    <glyph glyph-name="dieresistonos" unicode="&#x385;" horiz-adv-x="996" 
d="M636 1753h252l-203 -333h-144zM221 1361c0 37.333 12.168 68.5 36.501 93.5s53.833 38.167 88.5 39.5c35.333 1.33301 65.666 -10.5 90.999 -35.5s38 -54.833 38 -89.5c0 -36 -12 -66.667 -36 -92s-54 -38.666 -90 -39.999c-34 -1.33301 -63.833 10.167 -89.5 34.5
s-38.5 54.166 -38.5 89.499zM751.001 1361c0 34.667 11.667 64.999 35 90.999s53.333 39.667 90 41c36 1.33301 66.333 -10.667 91 -36s37 -54.666 37 -87.999c0 -37.333 -12 -68.333 -36 -93s-53.667 -37.667 -89 -39c-34 -1.33301 -63.833 10 -89.5 34s-38.5 54 -38.5 90z
" />
    <glyph glyph-name="Alphatonos" unicode="&#x386;" horiz-adv-x="1196" 
d="M738 298h-387l-127 -298h-312l694 1456h263l191 -1456h-297zM456 543h262l-41 516zM284 1601h268l-221 -345h-179z" />
    <glyph glyph-name="anoteleia" unicode="&#x387;" horiz-adv-x="576" 
d="M144 690c0 47.333 14.667 86.332 44 116.999s65.333 46 108 46c42.667 1.33301 78.5 -12.667 107.5 -42s43.5 -65.666 43.5 -108.999c0 -46 -14.5 -84.5 -43.5 -115.5s-65.167 -46.5 -108.5 -46.5c-42.667 -1.33301 -78.5 12.5 -107.5 41.5s-43.5 65.167 -43.5 108.5z
" />
    <glyph glyph-name="Epsilontonos" unicode="&#x388;" horiz-adv-x="985" 
d="M849 630h-444l-67 -386h526l-43 -244h-812l252 1456h811l-43 -245h-523l-60 -344h445zM-69 1602h268l-221 -345h-179z" />
    <glyph glyph-name="Etatonos" unicode="&#x389;" horiz-adv-x="1229" 
d="M1001 0h-286l108 623h-419l-108 -623h-287l252 1456h287l-102 -589h419l103 589h286zM-68 1599h268l-221 -345h-179z" />
    <glyph glyph-name="Iotatonos" unicode="&#x38a;" horiz-adv-x="547" 
d="M308 0h-287l253 1456h287zM-70 1603h268l-221 -345h-179z" />
    <glyph glyph-name="Omicrontonos" unicode="&#x38c;" horiz-adv-x="1229" 
d="M532 -20c-128 2.66699 -229.5 44.6699 -304.5 126.003s-115.833 194.333 -122.5 339c-2.66699 50 -0.666992 100.667 6 152l37 242c19.333 129.333 57 244 113 344s125.667 174.333 209 223s177.333 72 282 70c129.333 -2.66699 230.833 -46.834 304.5 -132.501
s113.167 -202.834 118.5 -351.501c1.33301 -56 -1.66699 -109 -9 -159l-33 -223c-30 -200 -97.5 -355.833 -202.5 -467.5s-237.833 -165.834 -398.5 -162.501zM879 843.003c8 68.667 12 121.668 12 159.001c-3.33301 148.667 -57 225 -161 229
c-80 3.33301 -144.5 -26.834 -193.5 -90.501s-83.167 -163.5 -102.5 -299.5l-35 -245c-8 -66 -11 -117.667 -9 -155c3.33301 -140 58.333 -212.333 165 -217c76 -2.66699 138.333 25.333 187 84s82.667 154.667 102 288zM90 1601h268l-221 -345h-179z" />
    <glyph glyph-name="Upsilontonos" unicode="&#x38e;" horiz-adv-x="1188" 
d="M670 805l325 651h323l-548 -942l-89 -514h-291l95 543l-216 913h302zM-53 1601h268l-221 -345h-179z" />
    <glyph glyph-name="Omegatonos" unicode="&#x38f;" horiz-adv-x="1199" 
d="M570 250c104.667 58.667 171.666 191.669 200.999 399.002l29 215l12 132c4 152 -32.333 230 -109 234c-56 2.66699 -102.5 -24 -139.5 -80s-64.833 -151.667 -83.5 -287l-10 -86l-28 -183l-8 -92c-4.66699 -60.667 -1.16699 -113.167 10.5 -157.5
s31.167 -75.5 58.5 -93.5l-41 -251h-432l45 247l178 1c-92 175.333 -126.667 351.666 -104 528.999l8 62c24.667 188 88.334 341.833 191.001 461.5s229.334 177.834 380.001 174.501c110.667 -2.66699 200.5 -41.834 269.5 -117.501s110.833 -177.834 125.5 -306.501l4 -49
c2 -48 0.333008 -95 -5 -141l-11 -76c-32.667 -227.333 -130.334 -408 -293.001 -542l179 4l-44 -247h-424zM109.999 1601h268l-221 -345h-179z" />
    <glyph glyph-name="iotadieresistonos" unicode="&#x390;" horiz-adv-x="631" 
d="M493 1082l-125.998 -744.997l-3 -38c-2.66699 -44.667 15.666 -67.667 54.999 -69c14 -0.666992 36.667 1.66602 68 6.99902l-25 -223c-44.667 -16.667 -93.334 -24.334 -146.001 -23.001c-82 1.33301 -142.667 30.666 -182 87.999s-54.333 134 -45 230l128 773h276z
M438.002 1732h252l-203 -333h-144zM23.002 1340c0 37.333 12.168 68.5 36.501 93.5s53.833 38.167 88.5 39.5c35.333 1.33301 65.666 -10.5 90.999 -35.5s38 -54.833 38 -89.5c0 -36 -12 -66.667 -36 -92s-54 -38.666 -90 -39.999c-34 -1.33301 -63.833 10.167 -89.5 34.5
s-38.5 54.166 -38.5 89.499zM553.003 1340c0 34.667 11.667 64.999 35 90.999s53.333 39.667 90 41c36 1.33301 66.333 -10.667 91 -36s37 -54.666 37 -87.999c0 -37.333 -12 -68.333 -36 -93s-53.667 -37.667 -89 -39c-34 -1.33301 -63.833 10 -89.5 34s-38.5 54 -38.5 90z
" />
    <glyph glyph-name="Alpha" unicode="&#x391;" horiz-adv-x="1196" 
d="M738 298h-387l-127 -298h-312l694 1456h263l191 -1456h-297zM456 543h262l-41 516z" />
    <glyph glyph-name="Beta" unicode="&#x392;" horiz-adv-x="1125" 
d="M9 0l251.999 1456l403 -1c140 0 246.667 -33.833 320 -101.5s105.666 -163.834 96.999 -288.501c-11.333 -148 -88.666 -255.333 -231.999 -322c51.333 -21.333 89 -58.5 113 -111.5s33.333 -118.167 28 -195.5c-10 -135.333 -58.167 -241.833 -144.5 -319.5
s-202.166 -116.5 -347.499 -116.5h-489zM405.999 633.001l-67.998 -389l168 -2c63.333 1.33301 113.166 24.5 149.499 69.5s55.166 109.167 56.499 192.5c0 80 -33.667 122.667 -101 128zM442.001 847.001l136 -2c72.667 1.33301 127.667 26 165 74s53.333 109.333 48 184
c-6.66699 67.333 -46.667 103 -120 107l-165 1z" />
    <glyph glyph-name="Gamma" unicode="&#x393;" horiz-adv-x="981" 
d="M1016 1211h-507l-210 -1211h-287l252 1456h795z" />
    <glyph glyph-name="uni2206" unicode="&#x394;" horiz-adv-x="1284" 
d="M640 1456h297l207 -1456h-1223zM346 244h476l-98 794z" />
    <glyph glyph-name="uni2206" unicode="&#x2206;" horiz-adv-x="1284" 
d="M640 1456h297l207 -1456h-1223zM346 244h476l-98 794z" />
    <glyph glyph-name="Epsilon" unicode="&#x395;" horiz-adv-x="985" 
d="M849 630h-444l-67 -386h526l-43 -244h-812l252 1456h811l-43 -245h-523l-60 -344h445z" />
    <glyph glyph-name="Zeta" unicode="&#x396;" horiz-adv-x="1063" 
d="M356 244h575l-43 -244h-917l33 190l746 1021h-575l43 245h912l-32 -186z" />
    <glyph glyph-name="Eta" unicode="&#x397;" horiz-adv-x="1229" 
d="M1001 0h-286l108 623h-419l-108 -623h-287l252 1456h287l-102 -589h419l103 589h286z" />
    <glyph glyph-name="Theta" unicode="&#x398;" horiz-adv-x="1204" 
d="M744 606h-278l41 234h278zM509 -20c-87.333 2 -162.336 25.666 -225.003 70.999s-110.5 110.833 -143.5 196.5s-50.167 181.834 -51.5 288.501c-1.33301 116 12.834 233.833 42.501 353.5s73.834 225.334 132.501 317.001s127.334 160 206.001 205s165 66.5 259 64.5
c88 -2 163.333 -26 226 -72s110.667 -112.333 144 -199s50.333 -183 51 -289c0 -54.667 -3 -107 -9 -157l-7 -50c-22 -154 -63.5 -287.5 -124.5 -400.5s-134.333 -196.833 -220 -251.5s-179.167 -80.334 -280.5 -77.001zM849.997 761.999
c8.66699 93.333 13.334 151.667 14.001 175c0 100 -13.333 172.5 -40 217.5s-66 69.167 -118 72.5c-73.333 4 -135.333 -26.667 -186 -92s-87.334 -160.333 -110.001 -285s-35 -235 -37 -331c-2 -94 10.833 -165.667 38.5 -215s67.834 -75 120.501 -77
c77.333 -4 141.666 30 192.999 102s88.333 181.667 111 329z" />
    <glyph glyph-name="Iota" unicode="&#x399;" horiz-adv-x="547" 
d="M308 0h-287l253 1456h287z" />
    <glyph glyph-name="Kappa" unicode="&#x39a;" horiz-adv-x="1109" 
d="M512 558l-146 -154l-70 -404h-287l252 1456h287l-108 -619l116 154l336 465h367l-527 -653l266 -803h-327z" />
    <glyph glyph-name="Lambda" unicode="&#x39b;" horiz-adv-x="1130" 
d="M635 1008l-405 -1008h-317l643 1456h297l139 -1456h-304z" />
    <glyph glyph-name="Mu" unicode="&#x39c;" horiz-adv-x="1516" 
d="M631 1456l85 -1047l447 1047h378l-253 -1456h-288l70 403l126 575l-446 -978h-195l-110 1011l-83 -627l-66 -384h-287l252 1456h370z" />
    <glyph glyph-name="Nu" unicode="&#x39d;" horiz-adv-x="1226" 
d="M998 0h-280l-254 965l-168 -965h-287l252 1456h281l255 -966l168 966h286z" />
    <glyph glyph-name="Xi" unicode="&#x39e;" horiz-adv-x="1001" 
d="M31 244h818l-43 -244h-818zM233 852h628l-41 -234h-629zM262 1456h761l-43 -245h-761z" />
    <glyph glyph-name="Omicron" unicode="&#x39f;" horiz-adv-x="1209" 
d="M512 -20c-128 2.66699 -229.5 44.6699 -304.5 126.003s-115.833 194.333 -122.5 339c-2.66699 50 -0.666992 100.667 6 152l37 242c19.333 129.333 57 244 113 344s125.667 174.333 209 223s177.333 72 282 70c129.333 -2.66699 230.833 -46.834 304.5 -132.501
s113.167 -202.834 118.5 -351.501c1.33301 -56 -1.66699 -109 -9 -159l-33 -223c-30 -200 -97.5 -355.833 -202.5 -467.5s-237.833 -165.834 -398.5 -162.501zM859 843.003c8 68.667 12 121.668 12 159.001c-3.33301 148.667 -57 225 -161 229
c-80 3.33301 -144.5 -26.834 -193.5 -90.501s-83.167 -163.5 -102.5 -299.5l-35 -245c-8 -66 -11 -117.667 -9 -155c3.33301 -140 58.333 -212.333 165 -217c76 -2.66699 138.333 25.333 187 84s82.667 154.667 102 288z" />
    <glyph glyph-name="Pi" unicode="&#x3a0;" horiz-adv-x="1231" 
d="M1002 0h-287l210 1211h-417l-210 -1211h-287l252 1456h991z" />
    <glyph glyph-name="Rho" unicode="&#x3a1;" horiz-adv-x="1140" 
d="M385 512l-88.998 -511.999h-287l252 1456l467 -1c127.333 -4 227.166 -49.5 299.499 -136.5s102.833 -199.167 91.5 -336.5c-13.333 -142.667 -67.333 -256.834 -162 -342.501s-215.334 -128.5 -362.001 -128.5zM427.002 757.001l185.002 -2.00098
c71.333 1.33301 126.666 28.833 165.999 82.5s58 125.834 56 216.501c-1.33301 46 -12.333 82.667 -33 110s-49.334 42.333 -86.001 45l-209 2z" />
    <glyph glyph-name="Sigma" unicode="&#x3a3;" horiz-adv-x="1001" 
d="M748 728l-357 -485h478l-43 -243h-850l28 164l442 584l-242 570l25 138h836l-43 -245h-475l202 -467z" />
    <glyph glyph-name="Tau" unicode="&#x3a4;" horiz-adv-x="1089" 
d="M1135 1211h-349l-210 -1211h-288l210 1211h-344l43 245h981z" />
    <glyph glyph-name="Upsilon" unicode="&#x3a5;" horiz-adv-x="1088" 
d="M570 805l325 651h323l-548 -942l-89 -514h-291l95 543l-216 913h302z" />
    <glyph glyph-name="Phi" unicode="&#x3a6;" horiz-adv-x="1353" 
d="M940 1285c126.667 -12.667 223.167 -70.9971 289.5 -174.997s91.833 -231.667 76.5 -383c-17.333 -162 -76 -294.333 -176 -397s-223.667 -157.667 -371 -165l-35 -165h-286l35 166c-85.333 7.33301 -157.5 35.166 -216.5 83.499s-102.167 113.166 -129.5 194.499
s-36 169.666 -26 264.999c11.333 107.333 41.5 204.5 90.5 291.5s113.5 155.333 193.5 205s169.667 76.5 269 80.5l36 170h286zM377 621.003c0 -110 43 -174.334 129 -193.001l116 598c-78 -13.333 -138.333 -56.166 -181 -128.499s-64 -164.5 -64 -276.5zM1031 816.002
c1.33301 55.333 -8.5 101.334 -29.5 138.001s-52.5 60 -94.5 70l-116 -598c74.667 13.333 132.667 52.666 174 117.999s63.333 156 66 272z" />
    <glyph glyph-name="Chi" unicode="&#x3a7;" horiz-adv-x="1122" 
d="M607 958l267 498h339l-452 -735l221 -721h-322l-113 507l-272 -507h-343l462 746l-216 710h317z" />
    <glyph glyph-name="Psi" unicode="&#x3a8;" horiz-adv-x="1273" 
d="M778 639c101.333 34.667 168.332 121.333 200.999 260l14 66l82 491h288l-78 -461c-26 -174 -85.333 -313.333 -178 -418s-212 -166 -358 -184l-75 -393h-287l75 393c-98 14.667 -177.667 57.5 -239 128.5s-98 162.167 -110 273.5
c-7.33301 66.667 -6.66602 133.334 2.00098 200.001l78 461h286l-77 -462l-10 -95l-2 -41c0 -108.667 34 -180.334 102 -215.001l148 813h287z" />
    <glyph glyph-name="uni2126" unicode="&#x3a9;" horiz-adv-x="1179" 
d="M550 250c104.667 58.667 171.666 191.669 200.999 399.002l29 215l12 132c4 152 -32.333 230 -109 234c-56 2.66699 -102.5 -24 -139.5 -80s-64.833 -151.667 -83.5 -287l-10 -86l-28 -183l-8 -92c-4.66699 -60.667 -1.16699 -113.167 10.5 -157.5
s31.167 -75.5 58.5 -93.5l-41 -251h-432l45 247l178 1c-92 175.333 -126.667 351.666 -104 528.999l8 62c24.667 188 88.334 341.833 191.001 461.5s229.334 177.834 380.001 174.501c110.667 -2.66699 200.5 -41.834 269.5 -117.501s110.833 -177.834 125.5 -306.501l4 -49
c2 -48 0.333008 -95 -5 -141l-11 -76c-32.667 -227.333 -130.334 -408 -293.001 -542l179 4l-44 -247h-424z" />
    <glyph glyph-name="uni2126" unicode="&#x2126;" horiz-adv-x="1179" 
d="M550 250c104.667 58.667 171.666 191.669 200.999 399.002l29 215l12 132c4 152 -32.333 230 -109 234c-56 2.66699 -102.5 -24 -139.5 -80s-64.833 -151.667 -83.5 -287l-10 -86l-28 -183l-8 -92c-4.66699 -60.667 -1.16699 -113.167 10.5 -157.5
s31.167 -75.5 58.5 -93.5l-41 -251h-432l45 247l178 1c-92 175.333 -126.667 351.666 -104 528.999l8 62c24.667 188 88.334 341.833 191.001 461.5s229.334 177.834 380.001 174.501c110.667 -2.66699 200.5 -41.834 269.5 -117.501s110.833 -177.834 125.5 -306.501l4 -49
c2 -48 0.333008 -95 -5 -141l-11 -76c-32.667 -227.333 -130.334 -408 -293.001 -542l179 4l-44 -247h-424z" />
    <glyph glyph-name="Iotadieresis" unicode="&#x3aa;" horiz-adv-x="547" 
d="M308 0h-287l253 1456h287zM80 1674c0 35.333 12.832 66 38.499 92s57.834 39.667 96.501 41c38.667 0 71 -12.333 97 -37s39 -54 39 -88c0 -37.333 -13 -68.333 -39 -93s-57.667 -37.667 -95 -39c-38 0 -70.333 12.167 -97 36.5s-40 53.5 -40 87.5zM554.999 1674
c0 37.333 13 68.333 39 93s57.667 37.667 95 39c39.333 0 71.833 -12.167 97.5 -36.5s38.5 -53.5 38.5 -87.5c0 -37.333 -13 -68.333 -39 -93s-57.667 -37.667 -95 -39c-39.333 0 -71.833 12.167 -97.5 36.5s-38.5 53.5 -38.5 87.5z" />
    <glyph glyph-name="Upsilondieresis" unicode="&#x3ab;" horiz-adv-x="1088" 
d="M570 805l325 651h323l-548 -942l-89 -514h-291l95 543l-216 913h302zM353 1671c0 35.333 12.832 66 38.499 92s57.834 39.667 96.501 41c38.667 0 71 -12.333 97 -37s39 -54 39 -88c0 -37.333 -13 -68.333 -39 -93s-57.667 -37.667 -95 -39
c-38 0 -70.333 12.167 -97 36.5s-40 53.5 -40 87.5zM827.999 1671c0 37.333 13 68.333 39 93s57.667 37.667 95 39c39.333 0 71.833 -12.167 97.5 -36.5s38.5 -53.5 38.5 -87.5c0 -37.333 -13 -68.333 -39 -93s-57.667 -37.667 -95 -39c-39.333 0 -71.833 12.167 -97.5 36.5
s-38.5 53.5 -38.5 87.5z" />
    <glyph glyph-name="alphatonos" unicode="&#x3ac;" horiz-adv-x="990" 
d="M957 1082l-124 -732l-8 -71c-2 -36.667 6.66699 -55.667 26 -57c2.66699 0 6 1 10 3l-1 -223c-34 -14.667 -69 -21.667 -105 -21c-99.333 1.33301 -161.666 51.333 -186.999 150c-36.667 -54 -73.834 -93 -111.501 -117s-78.834 -36 -123.501 -36
c-91.333 1.33301 -161.333 38.833 -210 112.5s-73 177.167 -73 310.5c0 74 9.5 156.5 28.5 247.5s47.833 172.5 86.5 244.5s85 125.5 139 160.5s114.333 51.167 181 48.5c82.667 -2.66699 145.334 -46 188.001 -130l42 110h242zM334 506l-9 -109.002
c-4 -120 27.333 -181 94 -183c40 -2 80.667 19.333 122 64l91 514c-21.333 48.667 -53 74 -95 76c-52 2.66699 -95 -23.166 -129 -77.499s-57.667 -142.166 -71 -263.499zM661 1601h268l-221 -345h-179z" />
    <glyph glyph-name="epsilontonos" unicode="&#x3ad;" horiz-adv-x="980" 
d="M46 298c3.33301 60 22.001 111.83 56.001 155.497s85.667 80.167 155 109.5c-36 24.667 -64.167 55.5 -84.5 92.5s-29.5 77.5 -27.5 121.5c3.33301 100.667 46.333 180.667 129 240s186 87.333 310 84c103.333 -2.66699 186.5 -34.5 249.5 -95.5
s94.5 -139.833 94.5 -236.5h-274c0 74 -33.667 111 -101 111c-36.667 -0.666992 -68.334 -12.667 -95.001 -36s-42.667 -53 -48 -89c-5.33301 -32 0.166992 -56.833 16.5 -74.5s40.166 -27.5 71.499 -29.5l171 -1l-34 -194l-142 1c-44 -1.33301 -81 -13.166 -111 -35.499
s-48 -56.166 -54 -101.499c-5.33301 -35.333 1.5 -64.5 20.5 -87.5s46.167 -35.167 81.5 -36.5c40 -0.666992 73 10.166 99 32.499s42.667 52.5 50 90.5l276 1c-7.33301 -105.333 -51 -189.166 -131 -251.499s-178 -92.166 -294 -89.499c-52 0.666992 -103 8.66699 -153 24
s-92.667 37.333 -128 66c-73.333 58.667 -107.666 135 -102.999 229zM640.001 1601h268l-221 -345h-179z" />
    <glyph glyph-name="etatonos" unicode="&#x3ae;" horiz-adv-x="996" 
d="M435 1083l-21 -124c76 98 161.333 146 256 144c76.667 -1.33301 135 -29.5 175 -84.5s60 -133.167 60 -234.5l-5 -92l-187 -1107h-278l188 1108l5 54c2.66699 78.667 -23.333 118.667 -78 120c-47.333 1.33301 -95 -23.667 -143 -75l-139 -792h-277l188 1082zM628 1601
h268l-221 -345h-179z" />
    <glyph glyph-name="iotatonos" unicode="&#x3af;" horiz-adv-x="631" 
d="M493 1082l-125.998 -744.997l-3 -38c-2.66699 -44.667 15.666 -67.667 54.999 -69c14 -0.666992 36.667 1.66602 68 6.99902l-25 -223c-44.667 -16.667 -93.334 -24.334 -146.001 -23.001c-82 1.33301 -142.667 30.666 -182 87.999s-54.333 134 -45 230l128 773h276z
M413.002 1580h268l-221 -345h-179z" />
    <glyph glyph-name="upsilondieresistonos" unicode="&#x3b0;" horiz-adv-x="966" 
d="M473 1082l-108.998 -669.001c-6.66699 -47.333 -9 -85 -7 -113c3.33301 -56 20.666 -85 51.999 -87c47.333 -4 89.166 23.5 125.499 82.5s64.833 150.833 85.5 275.5c12 85.333 19 171 21 257s-4.66699 171.333 -20 256l252 -1c23.333 -83.333 35 -168.333 35 -255
c0 -183.333 -21.333 -339.666 -64 -468.999s-103 -226 -181 -290s-169 -94.667 -273 -92c-110 3.33301 -191.5 44.5 -244.5 123.5s-72.5 184.5 -58.5 316.5l111 665h275zM649.002 1748h252l-203 -333h-144zM234.002 1356c0 37.333 12.168 68.5 36.501 93.5
s53.833 38.167 88.5 39.5c35.333 1.33301 65.666 -10.5 90.999 -35.5s38 -54.833 38 -89.5c0 -36 -12 -66.667 -36 -92s-54 -38.666 -90 -39.999c-34 -1.33301 -63.833 10.167 -89.5 34.5s-38.5 54.166 -38.5 89.499zM764.003 1356c0 34.667 11.667 64.999 35 90.999
s53.333 39.667 90 41c36 1.33301 66.333 -10.667 91 -36s37 -54.666 37 -87.999c0 -37.333 -12 -68.333 -36 -93s-53.667 -37.667 -89 -39c-34 -1.33301 -63.833 10 -89.5 34s-38.5 54 -38.5 90z" />
    <glyph glyph-name="alpha" unicode="&#x3b1;" horiz-adv-x="990" 
d="M957 1082l-124 -732l-8 -71c-2 -36.667 6.66699 -55.667 26 -57c2.66699 0 6 1 10 3l-1 -223c-34 -14.667 -69 -21.667 -105 -21c-99.333 1.33301 -161.666 51.333 -186.999 150c-36.667 -54 -73.834 -93 -111.501 -117s-78.834 -36 -123.501 -36
c-91.333 1.33301 -161.333 38.833 -210 112.5s-73 177.167 -73 310.5c0 74 9.5 156.5 28.5 247.5s47.833 172.5 86.5 244.5s85 125.5 139 160.5s114.333 51.167 181 48.5c82.667 -2.66699 145.334 -46 188.001 -130l42 110h242zM334 506l-9 -109.002
c-4 -120 27.333 -181 94 -183c40 -2 80.667 19.333 122 64l91 514c-21.333 48.667 -53 74 -95 76c-52 2.66699 -95 -23.166 -129 -77.499s-57.667 -142.166 -71 -263.499z" />
    <glyph glyph-name="beta" unicode="&#x3b2;" horiz-adv-x="1057" 
d="M668 1477c114 -2.66699 202.503 -39.334 265.503 -110.001s90.5 -163 82.5 -277c-11.333 -136 -83.333 -245 -216 -327c52.667 -31.333 91.167 -77.166 115.5 -137.499s33.5 -128.5 27.5 -204.5c-10.667 -134 -53.334 -241.833 -128.001 -323.5
s-171 -121.167 -289 -118.5c-76 0.666992 -146.667 22.667 -212 66l-87 -451h-275l246 1438c17.333 130 69.666 237.333 156.999 322s191.666 125.667 312.999 123zM569.003 856c46.667 1.33301 84 20.6689 112 58.002s44.667 88.666 50 153.999l2 55
c-5.33301 77.333 -35.333 117.666 -90 120.999c-42 2 -78.333 -16 -109 -54s-51 -90.333 -61 -157l-134 -776c40 -30.667 86.667 -45.334 140 -44.001c55.333 0 102 24.667 140 74s57.667 118 59 206c0 44 -8.5 79.333 -25.5 106s-42.167 41.334 -75.5 44.001l-76 1l23 213z
" />
    <glyph glyph-name="gamma" unicode="&#x3b3;" horiz-adv-x="912" 
d="M419 412l249 670h295l-479 -1083l-72 -416h-276l80 458l-101 1041h282z" />
    <glyph glyph-name="delta" unicode="&#x3b4;" horiz-adv-x="996" 
d="M286 1241c5.33301 102.667 43.167 184.168 113.5 244.501s159.166 89.833 266.499 88.5c53.333 -0.666992 123.666 -16 210.999 -46l-22 -225c-68 34 -127 50 -177 48c-75.333 -1.33301 -120.333 -35.333 -135 -102c-10.667 -52 12.5 -95 69.5 -129
s105.833 -70.333 146.5 -109c122.667 -116.667 174.334 -271.334 155.001 -464.001c-10.667 -109.333 -39 -208 -85 -296s-104.5 -156 -175.5 -204s-151.167 -70.667 -240.5 -68c-106 2.66699 -190.333 40.167 -253 112.5s-98 169.166 -106 290.499
c-2.66699 41.333 -1.33398 90 3.99902 146c14.667 118 50.834 216.333 108.501 295s130.834 128.334 219.501 149.001l-1 13c-72.667 70 -105.667 155.333 -99 256zM330.001 412.001c0 -131.333 35.668 -198 107.001 -200c80.667 -4 138.667 57.667 174 185
c21.333 78 32.666 161 33.999 249c0 56.667 -9.16699 105 -27.5 145s-44.833 67.333 -79.5 82c-124.667 -6.66699 -193.667 -146 -207 -418z" />
    <glyph glyph-name="epsilon" unicode="&#x3b5;" horiz-adv-x="980" 
d="M46 298c3.33301 60 22.001 111.83 56.001 155.497s85.667 80.167 155 109.5c-36 24.667 -64.167 55.5 -84.5 92.5s-29.5 77.5 -27.5 121.5c3.33301 100.667 46.333 180.667 129 240s186 87.333 310 84c103.333 -2.66699 186.5 -34.5 249.5 -95.5
s94.5 -139.833 94.5 -236.5h-274c0 74 -33.667 111 -101 111c-36.667 -0.666992 -68.334 -12.667 -95.001 -36s-42.667 -53 -48 -89c-5.33301 -32 0.166992 -56.833 16.5 -74.5s40.166 -27.5 71.499 -29.5l171 -1l-34 -194l-142 1c-44 -1.33301 -81 -13.166 -111 -35.499
s-48 -56.166 -54 -101.499c-5.33301 -35.333 1.5 -64.5 20.5 -87.5s46.167 -35.167 81.5 -36.5c40 -0.666992 73 10.166 99 32.499s42.667 52.5 50 90.5l276 1c-7.33301 -105.333 -51 -189.166 -131 -251.499s-178 -92.166 -294 -89.499c-52 0.666992 -103 8.66699 -153 24
s-92.667 37.333 -128 66c-73.333 58.667 -107.666 135 -102.999 229z" />
    <glyph glyph-name="zeta" unicode="&#x3b6;" horiz-adv-x="895" 
d="M983 1456l-30.998 -179.001l-360 -434l-62 -78c-92 -117.333 -146.667 -232.666 -164 -345.999l-5 -51c-4.66699 -64.667 14.666 -109 57.999 -133c73.333 -30.667 122 -52.334 146 -65.001c89.333 -46 131.333 -116 126 -210c-3.33301 -58 -26 -117.667 -68 -179
s-99.333 -118.666 -172 -171.999l-137 119c53.333 63.333 84.666 120.333 93.999 171c4.66699 24 2.83398 42.333 -5.49902 55s-23.5 23.667 -45.5 33l-57 22c-161.333 65.333 -233.333 187.333 -216 366c15.333 152.667 85.666 310.667 210.999 474l75 95l236 278h-400
l41 234h736z" />
    <glyph glyph-name="eta" unicode="&#x3b7;" horiz-adv-x="996" 
d="M435 1083l-21 -124c76 98 161.333 146 256 144c76.667 -1.33301 135 -29.5 175 -84.5s60 -133.167 60 -234.5l-5 -92l-187 -1107h-278l188 1108l5 54c2.66699 78.667 -23.333 118.667 -78 120c-47.333 1.33301 -95 -23.667 -143 -75l-139 -792h-277l188 1082z" />
    </font>
</defs>
</svg>
